<svg width="32" height="32" viewBox="0 0 32 32" fill="none" xmlns="http://www.w3.org/2000/svg">
<path fill-rule="evenodd" clip-rule="evenodd" d="M4.83988 18.3895L18.3895 4.83988C18.7093 4.52004 19.2279 4.52004 19.5477 4.83988L27.4404 12.7326C27.7603 13.0525 27.7603 13.571 27.4404 13.8908L13.8908 27.4404C13.571 27.7603 13.0525 27.7603 12.7326 27.4404L4.83988 19.5477C4.52004 19.2279 4.52004 18.7093 4.83988 18.3895ZM3.70851 20.6791C2.76383 19.7344 2.76383 18.2028 3.70851 17.2581L17.2581 3.70851C18.2028 2.76383 19.7344 2.76383 20.6791 3.70851L28.5718 11.6012C29.5165 12.5459 29.5165 14.0775 28.5718 15.0222L15.0222 28.5718C14.0775 29.5165 12.5459 29.5165 11.6012 28.5718L3.70851 20.6791ZM21.6198 16.3173C18.7189 13.4163 15.8727 11.5589 15.2625 12.169C14.6524 12.7792 16.3286 15.4447 19.0063 18.1225L18.1224 19.0064C15.4446 16.3286 12.7791 14.6525 12.169 15.2626C11.5591 15.8725 13.4162 18.7189 16.3172 21.6199L15.433 22.5041C12.3086 19.3798 10.6669 15.9565 11.7649 14.8585C12.3897 14.2336 13.7085 14.4375 15.2631 15.2631C14.4374 13.7086 14.2335 12.3898 14.8584 11.7649C15.9567 10.6667 19.3797 12.3087 22.504 15.433L21.6198 16.3173Z" fill="#292929"/>
</svg>
