<svg width="32" height="32" viewBox="0 0 32 32" fill="none" xmlns="http://www.w3.org/2000/svg">
<g clip-path="url(#clip0_5747_44891)">
<path fill-rule="evenodd" clip-rule="evenodd" d="M14.25 18.9792V8.9792H11H10.6458H10H6.65746H6C5.44772 8.9792 5 9.42692 5 9.9792V17.9792C5 18.5315 5.44772 18.9792 6 18.9792H7.41338L8.34553 24.9792C8.43134 25.5315 8.85803 25.9792 9.29857 25.9792H13.287C13.7275 25.9792 14.0151 25.5315 13.9293 24.9792L12.9971 18.9792H14.25ZM16 19.1705V8.78786L27 5.03146C27.5523 4.84286 28 5.52175 28 6.54781V21.4106C28 22.4366 27.5523 23.1155 27 22.9269L16 19.1705Z" fill="#FFBC0D"/>
</g>
<defs>
<clipPath id="clip0_5747_44891">
<rect width="32" height="32" fill="white"/>
</clipPath>
</defs>
</svg>
