<svg width="32" height="32" viewBox="0 0 32 32" fill="none" xmlns="http://www.w3.org/2000/svg">
<g clip-path="url(#clip0_5747_44855)">
<g clip-path="url(#clip1_5747_44855)">
<path fill-rule="evenodd" clip-rule="evenodd" d="M6.75 23V23.875C6.75 25.049 7.70105 26 8.875 26C10.049 26 11 25.049 11 23.875V23H12.75V23.875C12.75 26.0154 11.0154 27.75 8.875 27.75C6.73455 27.75 5 26.0154 5 23.875V23H6.75Z" fill="#FFBC0D"/>
<path fill-rule="evenodd" clip-rule="evenodd" d="M8.85714 5H3.14286C2.51086 5 2 5.5376 2 6.2V9.8C2 10.4624 2.51086 11 3.14286 11H10V6.2C10 5.5376 9.48914 5 8.85714 5Z" fill="#FFBC0D"/>
<path fill-rule="evenodd" clip-rule="evenodd" d="M22.75 23V23.875C22.75 25.049 23.701 26 24.875 26C26.049 26 27 25.049 27 23.875V23L28.75 23V23.875C28.75 26.0154 27.0154 27.75 24.875 27.75C22.7346 27.75 21 26.0154 21 23.875V23H22.75Z" fill="#FFBC0D"/>
<path fill-rule="evenodd" clip-rule="evenodd" d="M22.6667 12.75H18V12C18 11.4477 18.4477 11 19 11H22.6667V12.75Z" fill="#FFBC0D"/>
<path fill-rule="evenodd" clip-rule="evenodd" d="M6 12H12.3111C13.2439 12 14 12.7561 14 13.6889V15H7.68887C6.75613 15 6 14.2439 6 13.3111V12Z" fill="#FFBC0D"/>
<path fill-rule="evenodd" clip-rule="evenodd" d="M10 18.25C10 19.0784 9.32843 19.75 8.5 19.75H2V19C2 18.4477 2.44772 18 3 18H10V18.25Z" fill="#FFBC0D"/>
<path fill-rule="evenodd" clip-rule="evenodd" d="M25 11.75H23V10H25C26.2196 10 27.2083 10.9887 27.2083 12.2083C27.2083 13.428 26.2196 14.4167 25 14.4167H23.6667V12.6667H25C25.2531 12.6667 25.4583 12.4615 25.4583 12.2083C25.4583 11.9552 25.2531 11.75 25 11.75Z" fill="#FFBC0D"/>
<path fill-rule="evenodd" clip-rule="evenodd" d="M20 23C20 20.2386 22.2386 18 25 18C27.5929 18 29.7248 19.9737 29.9754 22.5007C30.0026 22.7755 29.7761 23 29.5 23L20 23Z" fill="#FFBC0D"/>
<path fill-rule="evenodd" clip-rule="evenodd" d="M1 22C1 21.4477 1.44772 21 2 21H5V22.75H1V22Z" fill="#FFBC0D"/>
<path fill-rule="evenodd" clip-rule="evenodd" d="M5 23H22.0001L26 19L25.8508 18.4531C25.575 18.4018 25.2906 18.375 24.9999 18.375C23.564 18.375 22.2814 19.0283 21.4317 20.0572L20.0824 18.9428C21.2503 17.5287 23.0199 16.625 24.9999 16.625C25.119 16.625 25.2374 16.6283 25.3549 16.6347L23.1139 8.41778C23.0467 8.17112 22.8226 8 22.567 8C22.2538 8 22 8.25384 22 8.56696L22.0001 16L18 19H14L14.0001 15H9C6.79086 15 5 16.7909 5 19V23Z" fill="#FFBC0D"/>
</g>
</g>
<defs>
<clipPath id="clip0_5747_44855">
<rect width="32" height="32" fill="white"/>
</clipPath>
<clipPath id="clip1_5747_44855">
<rect width="32" height="32" fill="white"/>
</clipPath>
</defs>
</svg>
