<svg width="32" height="32" viewBox="0 0 32 32" fill="none" xmlns="http://www.w3.org/2000/svg">
<g clip-path="url(#clip0_5747_44954)">
<path fill-rule="evenodd" clip-rule="evenodd" d="M16.875 10H19V9.5C19 8.67157 18.3284 8 17.5 8H14.5C13.6716 8 13 8.67157 13 9.5V10H15.125V11.6567C8.97519 12.1046 4.125 17.2359 4.125 23.5V24.125H2.99999C2.44772 24.125 2.00001 24.5727 2 25.125L2 25.875H30V25.125C30 24.5727 29.5523 24.125 29 24.125H27.875V23.5C27.875 17.2359 23.0248 12.1046 16.875 11.6567V10ZM5.875 23.5V24.125H26.125V23.5C26.125 17.9081 21.5919 13.375 16 13.375C10.4081 13.375 5.875 17.9081 5.875 23.5ZM13.3125 17.0673C13.7639 16.8946 13.9899 16.3888 13.8172 15.9374C13.6446 15.4861 13.1387 15.2601 12.6874 15.4327C10.9347 16.1031 9.50908 17.43 8.70961 19.1129C8.50225 19.5494 8.688 20.0714 9.1245 20.2787C9.561 20.4861 10.083 20.3003 10.2903 19.8638C10.8978 18.585 11.9826 17.5759 13.3125 17.0673Z" fill="#292929"/>
</g>
<defs>
<clipPath id="clip0_5747_44954">
<rect width="32" height="32" fill="white"/>
</clipPath>
</defs>
</svg>
