<svg width="32" height="32" viewBox="0 0 32 32" fill="none" xmlns="http://www.w3.org/2000/svg">
<g clip-path="url(#clip0_5747_44994)">
<path fill-rule="evenodd" clip-rule="evenodd" d="M25.2374 7.23744L23.2929 9.18198C22.9024 9.5725 22.2692 9.5725 21.8787 9.18198L21.3483 8.65165L23.2929 6.70711C23.6834 6.31658 24.3166 6.31658 24.7071 6.70711L25.2374 7.23744Z" fill="#292929"/>
<path fill-rule="evenodd" clip-rule="evenodd" d="M7.23744 6.76256L9.18198 8.70711C9.5725 9.09763 9.5725 9.7308 9.18198 10.1213L8.65165 10.6517L6.70711 8.70711C6.31658 8.31658 6.31658 7.68342 6.70711 7.29289L7.23744 6.76256Z" fill="#292929"/>
<path fill-rule="evenodd" clip-rule="evenodd" d="M16.75 3L16.75 5.75C16.75 6.30228 16.3023 6.75 15.75 6.75L15 6.75L15 4C15 3.44772 15.4477 3 16 3L16.75 3Z" fill="#292929"/>
<path fill-rule="evenodd" clip-rule="evenodd" d="M15.875 9.75C12.4923 9.75 9.75 12.4923 9.75 15.875C9.75 17.2937 10.2312 18.5975 11.0399 19.6355C11.1131 19.7294 11.188 19.8248 11.2641 19.9218C12.1211 21.013 13.1339 22.3027 13.5248 23.8665L13.5582 24H18.1918L18.2252 23.8665C18.6161 22.3027 19.6289 21.013 20.4859 19.9218C20.562 19.8248 20.6369 19.7294 20.7101 19.6355C21.5188 18.5975 22 17.2937 22 15.875C22 12.4923 19.2577 9.75 15.875 9.75ZM8 15.875C8 11.5258 11.5258 8 15.875 8C20.2242 8 23.75 11.5258 23.75 15.875C23.75 17.6969 23.1302 19.3765 22.0906 20.711C22.0295 20.7894 21.9688 20.8671 21.9087 20.9441C21.0021 22.1043 20.2191 23.1064 19.923 24.2909L19.7239 25.0872C19.6265 25.4767 19.2765 25.75 18.875 25.75H12.875C12.4735 25.75 12.1235 25.4767 12.0261 25.0872L11.827 24.2909C11.5309 23.1064 10.7479 22.1043 9.84133 20.9441C9.78119 20.8671 9.7205 20.7894 9.65938 20.711C8.61975 19.3765 8 17.6969 8 15.875Z" fill="#292929"/>
<path fill-rule="evenodd" clip-rule="evenodd" d="M19.5 27.75C19.5 28.3023 19.0523 28.75 18.5 28.75H13.5C12.9477 28.75 12.5 28.3023 12.5 27.75V27H19.5V27.75Z" fill="#292929"/>
<path fill-rule="evenodd" clip-rule="evenodd" d="M13.1187 17.2563C13.4604 16.9146 14.0144 16.9146 14.3562 17.2563C15.2333 18.1335 16.6556 18.1335 17.5327 17.2563C17.8745 16.9146 18.4285 16.9146 18.7702 17.2563L19.3889 17.875L18.7702 18.4937C18.2139 19.05 17.5343 19.408 16.8195 19.5677V22.7144H16.0695C15.5172 22.7144 15.0695 22.2667 15.0695 21.7144V19.5677C14.3546 19.408 13.675 19.05 13.1187 18.4937L12.5 17.875L13.1187 17.2563Z" fill="#292929"/>
<path fill-rule="evenodd" clip-rule="evenodd" d="M29 14.75C29 15.3023 28.5523 15.75 28 15.75L25.25 15.75L25.25 15C25.25 14.4477 25.6977 14 26.25 14L29 14L29 14.75Z" fill="#292929"/>
<path fill-rule="evenodd" clip-rule="evenodd" d="M3 14.25L5.75 14.25C6.30228 14.25 6.75 14.6977 6.75 15.25L6.75 16L4 16C3.44772 16 3 15.5523 3 15L3 14.25Z" fill="#292929"/>
</g>
<defs>
<clipPath id="clip0_5747_44994">
<rect width="32" height="32" fill="white"/>
</clipPath>
</defs>
</svg>
