<svg width="32" height="32" viewBox="0 0 32 32" fill="none" xmlns="http://www.w3.org/2000/svg">
<path d="M16 3C23.1797 3 29 8.8203 29 16C29 23.1797 23.1797 29 16 29C8.8203 29 3 23.1797 3 16C3 8.8203 8.8203 3 16 3ZM19.25 9.5C17.9371 9.5 16.7657 11.2495 16 13.9844C15.2343 11.2495 14.0629 9.5 12.75 9.5C10.443 9.50006 8.57129 15.32 8.57129 22.5H10.4297C10.4297 15.8334 11.4686 10.4288 12.75 10.4287C14.032 10.4287 15.0713 15.4175 15.0713 21.5713H16.9287C16.9287 15.4175 17.968 10.4287 19.25 10.4287C20.532 10.4288 21.5703 15.8334 21.5703 22.5H23.4287C23.4287 15.32 21.5575 9.50006 19.25 9.5Z" fill="#FFBC0D"/>
</svg>
