<svg width="32" height="32" viewBox="0 0 32 32" fill="none" xmlns="http://www.w3.org/2000/svg">
<path fill-rule="evenodd" clip-rule="evenodd" d="M4 15.9754C4 9.36159 9.36153 4 15.9754 4C22.5892 4 27.9508 9.36159 27.9508 15.9754C27.9508 22.5892 22.5892 27.9507 15.9754 27.9507C9.36153 27.9507 4 22.5892 4 15.9754ZM10 20.9507C10 20.3984 10.4477 19.9507 11 19.9507C11.5524 19.9507 12 20.3984 12 20.9507C12 21.503 11.5524 21.9507 11 21.9507C10.4477 21.9507 10 21.503 10 20.9507ZM11.7033 20.9507C11.7033 20.5629 11.3878 20.2474 11 20.2474C10.8122 20.2474 10.6356 20.3206 10.5027 20.4535C10.3699 20.5862 10.2967 20.7629 10.2967 20.9507C10.2967 21.3384 10.6123 21.6539 11 21.6539C11.1878 21.6539 11.3645 21.5807 11.4973 21.448C11.6301 21.3151 11.7033 21.1386 11.7033 20.9507ZM22 20.9507C22 21.503 21.5522 21.9507 20.9999 21.9507C20.4477 21.9507 20 21.503 20 20.9507C20 20.3983 20.4477 19.9507 20.9999 19.9507C21.5522 19.9507 22 20.3983 22 20.9507ZM19.5 22.9507C19.7761 22.9507 20 22.7268 20 22.4507C20 22.1745 19.7761 21.9507 19.5 21.9507C19.2239 21.9507 19 22.1745 19 22.4507C19 22.7268 19.2239 22.9507 19.5 22.9507ZM18.6001 22.8207C18.6001 23.0968 18.3762 23.3207 18.1001 23.3207C17.824 23.3207 17.6001 23.0968 17.6001 22.8207C17.6001 22.5445 17.824 22.3207 18.1001 22.3207C18.3762 22.3207 18.6001 22.5445 18.6001 22.8207ZM16.7 23.4507C16.9761 23.4507 17.2 23.2268 17.2 22.9507C17.2 22.6745 16.9761 22.4507 16.7 22.4507C16.4238 22.4507 16.2 22.6745 16.2 22.9507C16.2 23.2268 16.4238 23.4507 16.7 23.4507ZM15.8 22.9507C15.8 23.2268 15.5762 23.4507 15.3 23.4507C15.0239 23.4507 14.8 23.2268 14.8 22.9507C14.8 22.6745 15.0239 22.4507 15.3 22.4507C15.5762 22.4507 15.8 22.6745 15.8 22.9507ZM13.8999 23.3207C14.176 23.3207 14.3999 23.0968 14.3999 22.8207C14.3999 22.5445 14.176 22.3207 13.8999 22.3207C13.6238 22.3207 13.3999 22.5445 13.3999 22.8207C13.3999 23.0968 13.6238 23.3207 13.8999 23.3207ZM13 22.4507C13 22.7268 12.7761 22.9507 12.5 22.9507C12.2239 22.9507 12 22.7268 12 22.4507C12 22.1745 12.2239 21.9507 12.5 21.9507C12.7761 21.9507 13 22.1745 13 22.4507ZM20.4999 18.9507C20.4999 13.8223 19.6606 9.6649 18.625 9.6649C17.5898 9.6649 16.7499 13.5027 16.7499 18.2365H15.2503C15.2503 13.5027 14.4107 9.6649 13.3751 9.6649C12.3398 9.6649 11.5002 13.8223 11.5002 18.9507H10C10 13.4278 11.5113 8.95068 13.3751 8.95068C14.4353 8.95068 15.3816 10.2962 16.0001 12.4004C16.6189 10.2962 17.5648 8.95068 18.625 8.95068C20.489 8.95068 22 13.4278 22 18.9507H20.4999Z" fill="#FFBC0D"/>
</svg>
