<svg width="32" height="32" viewBox="0 0 32 32" fill="none" xmlns="http://www.w3.org/2000/svg">
<path fill-rule="evenodd" clip-rule="evenodd" d="M19.2891 15.1953V10.4375C19.2891 8.31034 17.5647 6.58594 15.4375 6.58594C13.3103 6.58594 11.5859 8.31034 11.5859 10.4375V15.1953H19.2891ZM20.875 10.4375C20.875 7.43445 18.4405 5 15.4375 5C12.4345 5 10 7.43445 10 10.4375V16.7812H20.875V10.4375Z" fill="#FFBC0D"/>
<path fill-rule="evenodd" clip-rule="evenodd" d="M7.8125 15C6.81148 15 6 15.8115 6 16.8125V25.875C6 26.876 6.81148 27.6875 7.8125 27.6875H22.3125C23.3135 27.6875 24.125 26.876 24.125 25.875V16.8125C24.125 15.8115 23.3135 15 22.3125 15H7.8125ZM15.8129 18.2852C14.9605 18.2852 14.2695 18.9761 14.2695 19.8285V23.4961H15.8555V18.3277C15.8555 18.3042 15.8364 18.2852 15.8129 18.2852Z" fill="#FFBC0D"/>
</svg>
