<svg width="32" height="32" viewBox="0 0 32 32" fill="none" xmlns="http://www.w3.org/2000/svg">
<g clip-path="url(#clip0_5747_44984)">
<path d="M16.4287 3C15.117 3 14.0537 4.06332 14.0537 5.375V5.59474C13.8546 5.54056 13.645 5.51165 13.4287 5.51165C12.117 5.51165 11.0537 6.57497 11.0537 7.88664V15.3866C11.0537 15.8699 11.4455 16.2616 11.9287 16.2616C12.412 16.2616 12.8037 15.8699 12.8037 15.3866V7.88664C12.8037 7.54147 13.0835 7.26164 13.4287 7.26164C13.7739 7.26164 14.0537 7.54147 14.0537 7.88664V13.3866C14.0537 13.8699 14.4455 14.2616 14.9287 14.2616C15.412 14.2616 15.8037 13.8699 15.8037 13.3866V5.375C15.8037 5.02982 16.0835 4.75 16.4287 4.75C16.7739 4.75 17.0537 5.02982 17.0537 5.375V13.3866C17.0537 13.8699 17.4455 14.2616 17.9287 14.2616C18.412 14.2616 18.8037 13.8699 18.8037 13.3866V7.88664C18.8037 7.54147 19.0835 7.26164 19.4287 7.26164C19.7739 7.26164 20.0537 7.54147 20.0537 7.88664V14.6594C20.0537 15.1426 20.4455 15.5344 20.9287 15.5344C21.412 15.5344 21.8037 15.1426 21.8037 14.6594V10.8866C21.8037 10.5415 22.0835 10.2616 22.4287 10.2616C22.7739 10.2616 23.0537 10.5415 23.0537 10.8866V20.6976C23.0537 22.0403 22.7574 23.3666 22.1858 24.5817L21.8844 25.2224C21.473 26.097 21.8485 27.1395 22.723 27.5509L23.7693 25.3265C24.4505 23.8785 24.8037 22.2979 24.8037 20.6976V10.8866C24.8037 9.57497 23.7404 8.51164 22.4287 8.51164C22.2124 8.51164 22.0029 8.54056 21.8037 8.59474V7.88664C21.8037 6.57497 20.7404 5.51165 19.4287 5.51165C19.2124 5.51165 19.0029 5.54056 18.8037 5.59474V5.375C18.8037 4.06332 17.7404 3 16.4287 3Z" fill="#292929"/>
<path d="M13.8042 18.924L14.6756 18.8443C16.7094 18.6581 18.6601 19.6056 19.4648 21.2645L19.8468 22.0517L19.0595 22.4336C18.6247 22.6446 18.1013 22.4631 17.8904 22.0283C17.4622 21.1458 16.2872 20.4541 14.8351 20.587C14.3538 20.631 13.928 20.2766 13.8839 19.7954L13.8042 18.924Z" fill="#292929"/>
<path d="M6.93184 16.9362C7.62452 16.4744 8.5604 16.6616 9.02219 17.3542L9.69752 18.3672L10.7186 19.943C11.2442 20.7541 12.3278 20.9855 13.1389 20.4599L11.1631 17.4108L10.4783 16.3835C9.48037 14.8867 7.45797 14.4822 5.96112 15.4801C5.00274 16.119 4.71514 17.398 5.30775 18.3857L6.18252 19.8436L9.13048 24.5604C10.5695 26.8629 13.0932 28.2616 15.8085 28.2616H19.8037C19.8037 27.2951 19.0202 26.5116 18.0537 26.5116H15.8085C13.6966 26.5116 11.7337 25.4237 10.6145 23.6329L7.67495 18.9296L6.80836 17.4853C6.69636 17.2986 6.75071 17.0569 6.93184 16.9362Z" fill="#292929"/>
</g>
<defs>
<clipPath id="clip0_5747_44984">
<rect width="32" height="32" fill="white"/>
</clipPath>
</defs>
</svg>
