<svg width="32" height="32" viewBox="0 0 32 32" fill="none" xmlns="http://www.w3.org/2000/svg">
<g clip-path="url(#clip0_5747_44992)">
<path fill-rule="evenodd" clip-rule="evenodd" d="M16.5 10.7956L7.29774 13.9459L16.5 17.0962L25.7023 13.9459L16.5 10.7956ZM16.8079 9.05132C16.608 8.98289 16.392 8.98289 16.1921 9.05132L4.66579 12.9972C3.77807 13.3011 3.77807 14.5907 4.66578 14.8946L8.625 16.25V20.9459C8.625 22.5 9.71941 23.7359 11.1161 24.5341C12.5376 25.3463 14.4429 25.8209 16.5 25.8209C18.5571 25.8209 20.4624 25.3463 21.8839 24.5341C23.2806 23.7359 24.375 22.5 24.375 20.9459V16.25L25.5 15.8649V20.1959C25.5 21.1624 26.2835 21.9459 27.25 21.9459V15.2658L28.3342 14.8946C29.2219 14.5907 29.2219 13.3011 28.3342 12.9972L16.8079 9.05132ZM22.625 16.8491L16.8079 18.8405C16.608 18.9089 16.392 18.9089 16.1921 18.8405L10.375 16.8491V20.9459C10.375 21.601 10.8476 22.365 11.9844 23.0146C13.0964 23.6501 14.6911 24.0709 16.5 24.0709C18.3089 24.0709 19.9036 23.6501 21.0156 23.0146C22.1524 22.365 22.625 21.601 22.625 20.9459V16.8491Z" fill="#292929"/>
</g>
<defs>
<clipPath id="clip0_5747_44992">
<rect width="32" height="32" fill="white"/>
</clipPath>
</defs>
</svg>
