<svg width="32" height="32" viewBox="0 0 32 32" fill="none" xmlns="http://www.w3.org/2000/svg">
<mask id="path-1-inside-1_5747_44919" fill="white">
<path d="M20.5 15.5996C24.3108 15.5996 27.4004 18.6892 27.4004 22.5C27.4004 26.3108 24.3108 29.4004 20.5 29.4004C16.6892 29.4004 13.5996 26.3108 13.5996 22.5C13.5996 18.6892 16.6892 15.5996 20.5 15.5996ZM22 4C22.5523 4 23 4.44772 23 5V14.374C22.2095 14.1311 21.3701 14 20.5 14C18.6909 14 17.0149 14.5668 15.6367 15.5303C15.5112 15.4483 15.3613 15.4004 15.2002 15.4004H7.7998C7.35807 15.4005 7 15.7584 7 16.2002C7.00011 16.6419 7.35813 16.9999 7.7998 17H14.0215C12.7616 18.4826 12 20.4019 12 22.5C12 24.5981 12.7616 26.5174 14.0215 28H6C5.44772 28 5 27.5523 5 27V5C5 4.44772 5.44772 4 6 4H22ZM24.6299 19.6025C24.1791 19.2717 23.5446 19.3746 23.2217 19.8311L19.7168 24.7881L16.9521 22.29L16.6172 22.6914C16.2727 23.1047 16.3174 23.7168 16.7178 24.0762L19.1406 26.249C19.5862 26.6486 20.2811 26.5702 20.626 26.0811L25 19.874L24.6299 19.6025ZM7.7998 11.4004C7.35807 11.4005 7 11.7584 7 12.2002C7.00011 12.6419 7.35813 12.9999 7.7998 13H20.2002C20.6419 12.9999 20.9999 12.6419 21 12.2002C21 11.7584 20.6419 11.4005 20.2002 11.4004H7.7998ZM7.7998 7.40039C7.35807 7.4005 7 7.75843 7 8.2002C7.00011 8.64187 7.35813 8.99989 7.7998 9H20.2002C20.6419 8.99989 20.9999 8.64187 21 8.2002C21 7.75843 20.6419 7.4005 20.2002 7.40039H7.7998Z"/>
</mask>
<path d="M20.5 15.5996C24.3108 15.5996 27.4004 18.6892 27.4004 22.5C27.4004 26.3108 24.3108 29.4004 20.5 29.4004C16.6892 29.4004 13.5996 26.3108 13.5996 22.5C13.5996 18.6892 16.6892 15.5996 20.5 15.5996ZM22 4C22.5523 4 23 4.44772 23 5V14.374C22.2095 14.1311 21.3701 14 20.5 14C18.6909 14 17.0149 14.5668 15.6367 15.5303C15.5112 15.4483 15.3613 15.4004 15.2002 15.4004H7.7998C7.35807 15.4005 7 15.7584 7 16.2002C7.00011 16.6419 7.35813 16.9999 7.7998 17H14.0215C12.7616 18.4826 12 20.4019 12 22.5C12 24.5981 12.7616 26.5174 14.0215 28H6C5.44772 28 5 27.5523 5 27V5C5 4.44772 5.44772 4 6 4H22ZM24.6299 19.6025C24.1791 19.2717 23.5446 19.3746 23.2217 19.8311L19.7168 24.7881L16.9521 22.29L16.6172 22.6914C16.2727 23.1047 16.3174 23.7168 16.7178 24.0762L19.1406 26.249C19.5862 26.6486 20.2811 26.5702 20.626 26.0811L25 19.874L24.6299 19.6025ZM7.7998 11.4004C7.35807 11.4005 7 11.7584 7 12.2002C7.00011 12.6419 7.35813 12.9999 7.7998 13H20.2002C20.6419 12.9999 20.9999 12.6419 21 12.2002C21 11.7584 20.6419 11.4005 20.2002 11.4004H7.7998ZM7.7998 7.40039C7.35807 7.4005 7 7.75843 7 8.2002C7.00011 8.64187 7.35813 8.99989 7.7998 9H20.2002C20.6419 8.99989 20.9999 8.64187 21 8.2002C21 7.75843 20.6419 7.4005 20.2002 7.40039H7.7998Z" fill="#FFBC0D"/>
<path d="M22 4V2.4V4ZM23 5H24.6V5L23 5ZM23 14.374L22.53 15.9034L24.6 16.5395V14.374H23ZM15.6367 15.5303L14.7621 16.87L15.6674 17.461L16.5534 16.8416L15.6367 15.5303ZM15.2002 15.4004L15.2006 13.8004H15.2002V15.4004ZM7.7998 15.4004V13.8004H7.79942L7.7998 15.4004ZM7 16.2002H5.4L5.4 16.2006L7 16.2002ZM7.7998 17L7.79942 18.6H7.7998V17ZM14.0215 17L15.2407 18.0361L17.4809 15.4H14.0215V17ZM14.0215 28V29.6H17.4809L15.2407 26.9639L14.0215 28ZM6 28L6 29.6H6V28ZM5 27H3.4H5ZM5 5L3.4 5V5H5ZM6 4V2.4V4ZM24.6299 19.6025L23.6832 20.8924L23.6836 20.8927L24.6299 19.6025ZM23.2217 19.8311L21.9154 18.9071L21.9153 18.9073L23.2217 19.8311ZM19.7168 24.7881L18.6441 25.9752L19.9821 27.1842L21.0232 25.7118L19.7168 24.7881ZM16.9521 22.29L18.0248 21.1029L16.79 19.9872L15.7237 21.2649L16.9521 22.29ZM16.6172 22.6914L15.3888 21.6662L15.3881 21.667L16.6172 22.6914ZM16.7178 24.0762L15.6491 25.2669L15.6495 25.2673L16.7178 24.0762ZM19.1406 26.249L18.0724 27.4402L18.0724 27.4402L19.1406 26.249ZM20.626 26.0811L21.9337 27.003L21.9339 27.0027L20.626 26.0811ZM25 19.874L26.3079 20.7957L27.2122 19.5124L25.9463 18.5839L25 19.874ZM7.7998 11.4004V9.80039H7.79942L7.7998 11.4004ZM7 12.2002H5.4L5.4 12.2006L7 12.2002ZM7.7998 13L7.79942 14.6H7.7998V13ZM20.2002 13V14.6H20.2006L20.2002 13ZM21 12.2002L22.6 12.2006V12.2002H21ZM20.2002 11.4004L20.2006 9.80039H20.2002V11.4004ZM7.7998 7.40039V5.80039H7.79942L7.7998 7.40039ZM7 8.2002H5.4L5.4 8.20058L7 8.2002ZM7.7998 9L7.79942 10.6H7.7998V9ZM20.2002 9V10.6H20.2006L20.2002 9ZM21 8.2002L22.6 8.20058V8.2002H21ZM20.2002 7.40039L20.2006 5.80039H20.2002V7.40039ZM20.5 15.5996V17.1996C23.4271 17.1996 25.8004 19.5729 25.8004 22.5H27.4004H29.0004C29.0004 17.8056 25.1944 13.9996 20.5 13.9996V15.5996ZM27.4004 22.5H25.8004C25.8004 25.4271 23.4271 27.8004 20.5 27.8004V29.4004V31.0004C25.1944 31.0004 29.0004 27.1944 29.0004 22.5H27.4004ZM20.5 29.4004V27.8004C17.5729 27.8004 15.1996 25.4271 15.1996 22.5H13.5996H11.9996C11.9996 27.1944 15.8056 31.0004 20.5 31.0004V29.4004ZM13.5996 22.5H15.1996C15.1996 19.5729 17.5729 17.1996 20.5 17.1996V15.5996V13.9996C15.8056 13.9996 11.9996 17.8056 11.9996 22.5H13.5996ZM22 4V5.6C21.6686 5.6 21.4 5.33137 21.4 5H23L24.6 5C24.6 3.56406 23.4359 2.4 22 2.4V4ZM23 5H21.4V14.374H23H24.6V5H23ZM23 14.374L23.47 12.8446C22.5294 12.5556 21.5317 12.4 20.5 12.4V14V15.6C21.2085 15.6 21.8896 15.7067 22.53 15.9034L23 14.374ZM20.5 14V12.4C18.3512 12.4 16.3572 13.0744 14.72 14.2189L15.6367 15.5303L16.5534 16.8416C17.6726 16.0592 19.0305 15.6 20.5 15.6V14ZM15.6367 15.5303L16.5114 14.1905C16.1353 13.945 15.6834 13.8005 15.2006 13.8004L15.2002 15.4004L15.1998 17.0004C15.0393 17.0004 14.887 16.9516 14.7621 16.87L15.6367 15.5303ZM15.2002 15.4004V13.8004H7.7998V15.4004V17.0004H15.2002V15.4004ZM7.7998 15.4004L7.79942 13.8004C6.47471 13.8007 5.4 14.8744 5.4 16.2002H7H8.6C8.6 16.6425 8.24143 17.0003 7.80019 17.0004L7.7998 15.4004ZM7 16.2002L5.4 16.2006C5.40032 17.5256 6.47439 18.5997 7.79942 18.6L7.7998 17L7.80019 15.4C8.24187 15.4001 8.59989 15.7581 8.6 16.1998L7 16.2002ZM7.7998 17V18.6H14.0215V17V15.4H7.7998V17ZM14.0215 17L12.8023 15.9639C11.3065 17.7241 10.4 20.0073 10.4 22.5H12H13.6C13.6 20.7966 14.2167 19.2411 15.2407 18.0361L14.0215 17ZM12 22.5H10.4C10.4 24.9927 11.3065 27.2759 12.8023 29.0361L14.0215 28L15.2407 26.9639C14.2167 25.7589 13.6 24.2034 13.6 22.5H12ZM14.0215 28V26.4H6V28V29.6H14.0215V28ZM6 28L6 26.4C6.33137 26.4 6.6 26.6686 6.6 27H5H3.4C3.4 28.4359 4.56406 29.6 6 29.6L6 28ZM5 27H6.6V5H5H3.4V27H5ZM5 5L6.6 5C6.6 5.33137 6.33137 5.6 6 5.6V4V2.4C4.56406 2.4 3.4 3.56406 3.4 5L5 5ZM6 4V5.6H22V4V2.4H6V4ZM24.6299 19.6025L25.5766 18.3127C24.4051 17.4529 22.7553 17.7198 21.9154 18.9071L23.2217 19.8311L24.5279 20.755C24.3339 21.0294 23.9532 21.0906 23.6832 20.8924L24.6299 19.6025ZM23.2217 19.8311L21.9153 18.9073L18.4104 23.8644L19.7168 24.7881L21.0232 25.7118L24.5281 20.7548L23.2217 19.8311ZM19.7168 24.7881L20.7895 23.6009L18.0248 21.1029L16.9521 22.29L15.8795 23.4772L18.6441 25.9752L19.7168 24.7881ZM16.9521 22.29L15.7237 21.2649L15.3888 21.6662L16.6172 22.6914L17.8456 23.7166L18.1806 23.3152L16.9521 22.29ZM16.6172 22.6914L15.3881 21.667C14.4918 22.7424 14.6088 24.3332 15.6491 25.2669L16.7178 24.0762L17.7865 22.8854C18.026 23.1004 18.0536 23.4671 17.8462 23.7158L16.6172 22.6914ZM16.7178 24.0762L15.6495 25.2673L18.0724 27.4402L19.1406 26.249L20.2089 25.0579L17.786 22.885L16.7178 24.0762ZM19.1406 26.249L18.0724 27.4402C19.2302 28.4785 21.0364 28.2756 21.9337 27.003L20.626 26.0811L19.3183 25.1591C19.5258 24.8648 19.9422 24.8187 20.2089 25.0579L19.1406 26.249ZM20.626 26.0811L21.9339 27.0027L26.3079 20.7957L25 19.874L23.6921 18.9524L19.3181 25.1594L20.626 26.0811ZM25 19.874L25.9463 18.5839L25.5762 18.3124L24.6299 19.6025L23.6836 20.8927L24.0537 21.1642L25 19.874ZM7.7998 11.4004L7.79942 9.80039C6.47471 9.80071 5.4 10.8744 5.4 12.2002H7H8.6C8.6 12.6425 8.24143 13.0003 7.80019 13.0004L7.7998 11.4004ZM7 12.2002L5.4 12.2006C5.40032 13.5256 6.47439 14.5997 7.79942 14.6L7.7998 13L7.80019 11.4C8.24187 11.4001 8.59989 11.7581 8.6 12.1998L7 12.2002ZM7.7998 13V14.6H20.2002V13V11.4H7.7998V13ZM20.2002 13L20.2006 14.6C21.5256 14.5997 22.5997 13.5256 22.6 12.2006L21 12.2002L19.4 12.1998C19.4001 11.7581 19.7581 11.4001 20.1998 11.4L20.2002 13ZM21 12.2002H22.6C22.6 10.8744 21.5253 9.80071 20.2006 9.80039L20.2002 11.4004L20.1998 13.0004C19.7586 13.0003 19.4 12.6425 19.4 12.2002H21ZM20.2002 11.4004V9.80039H7.7998V11.4004V13.0004H20.2002V11.4004ZM7.7998 7.40039L7.79942 5.80039C6.47471 5.80071 5.4 6.8744 5.4 8.2002H7H8.6C8.6 8.64247 8.24143 9.00029 7.80019 9.00039L7.7998 7.40039ZM7 8.2002L5.4 8.20058C5.40032 9.52561 6.47439 10.5997 7.79942 10.6L7.7998 9L7.80019 7.4C8.24187 7.40011 8.59989 7.75813 8.6 8.19981L7 8.2002ZM7.7998 9V10.6H20.2002V9V7.4H7.7998V9ZM20.2002 9L20.2006 10.6C21.5256 10.5997 22.5997 9.52561 22.6 8.20058L21 8.2002L19.4 8.19981C19.4001 7.75813 19.7581 7.40011 20.1998 7.4L20.2002 9ZM21 8.2002H22.6C22.6 6.8744 21.5253 5.80071 20.2006 5.80039L20.2002 7.40039L20.1998 9.00039C19.7586 9.00029 19.4 8.64247 19.4 8.2002H21ZM20.2002 7.40039V5.80039H7.7998V7.40039V9.00039H20.2002V7.40039Z" fill="#FFBC0D" mask="url(#path-1-inside-1_5747_44919)"/>
</svg>
