<svg width="32" height="32" viewBox="0 0 32 32" fill="none" xmlns="http://www.w3.org/2000/svg">
<path fill-rule="evenodd" clip-rule="evenodd" d="M3.28163 17.7184C2.57381 18.4262 2.57381 19.5738 3.28163 20.2816L12.0321 29.0321C12.7399 29.7399 13.8875 29.7399 14.5953 29.0321L29.0026 14.6248C29.7105 13.917 29.7105 12.7693 29.0026 12.0615L20.2522 3.31107C19.5444 2.60324 18.3968 2.60324 17.6889 3.31107L3.28163 17.7184ZM21.6219 16.3487C18.7209 13.4478 15.8747 11.5903 15.2646 12.2005C14.6545 12.8106 16.3306 15.4761 19.0084 18.1539L18.1245 19.0379C15.4467 16.3601 12.7812 14.6839 12.171 15.294C11.5612 15.9039 13.4183 18.7504 16.3193 21.6513L15.435 22.5355C12.3107 19.4112 10.669 15.9879 11.7669 14.8899C12.3918 14.265 13.7106 14.4689 15.2651 15.2946C14.4395 13.74 14.2356 12.4212 14.8605 11.7964C15.9587 10.6981 19.3818 12.3401 22.5061 15.4645L21.6219 16.3487Z" fill="#FFBC0D"/>
</svg>
