<svg width="32" height="32" viewBox="0 0 32 32" fill="none" xmlns="http://www.w3.org/2000/svg">
<path d="M16 4C22.6274 4 28 9.37258 28 16C28 22.6274 22.6274 28 16 28C9.37258 28 4 22.6274 4 16C4 9.37258 9.37258 4 16 4ZM23.8877 12.207C23.6499 11.3281 22.7803 10.7518 21.8604 10.9023C21.8604 10.9023 18.3343 11.8614 16.0254 11.8613C13.7185 11.8613 10.1975 10.904 10.1914 10.9023C9.21007 10.7416 8.28518 11.408 8.12402 12.3867C7.96329 13.3681 8.62945 14.2931 9.6084 14.4541L13.5459 15.1006C13.5459 15.1006 13.6399 16.4283 13.5459 17.2705C13.4523 18.1086 11.4336 22.3139 11.4141 22.3545C11.0295 23.2718 11.4627 24.3248 12.377 24.709L12.3779 24.71C13.237 25.0697 14.2167 24.7132 14.6533 23.9111L14.666 23.8877L14.6777 23.8633L14.708 23.8008L14.7334 23.7461L15.9141 20.9297L17.0957 23.7461L17.1045 23.7676L17.1143 23.7881L17.1436 23.8506L17.1582 23.8809L17.1738 23.9102C17.6108 24.7145 18.5927 25.0699 19.4512 24.71C20.3667 24.3258 20.7992 23.2712 20.415 22.3545C20.3986 22.3188 18.4525 18.1004 18.3633 17.2705C18.2737 16.437 18.3633 15.124 18.3633 15.124L22.4434 14.4541L22.624 14.415C23.5041 14.1766 24.0771 13.3047 23.9268 12.3867L23.8877 12.207ZM22.042 12.0127C22.4092 11.9526 22.7558 12.2022 22.8164 12.5693C22.8766 12.9366 22.6279 13.2832 22.2607 13.3438L17.2383 14.1689C17.2383 14.1689 17.0855 16.0689 17.2383 17.2705C17.3905 18.467 19.3604 22.7531 19.377 22.7891C19.5209 23.1324 19.3589 23.5278 19.0156 23.6719C18.6935 23.8069 18.3253 23.6735 18.1621 23.373L18.1328 23.3105L15.9141 18.0205L13.6953 23.3105L13.665 23.373C13.5017 23.6731 13.1344 23.8067 12.8125 23.6719C12.4695 23.5276 12.3072 23.1323 12.4512 22.7891C12.4708 22.7481 14.5122 18.4746 14.6709 17.2705C14.8303 16.0606 14.6709 14.1455 14.6709 14.1455L9.79102 13.3438C9.42372 13.2833 9.17421 12.9367 9.23438 12.5693C9.29494 12.2022 9.64161 11.9526 10.0088 12.0127C10.015 12.0144 13.6463 13.001 16.0254 13.001C18.4065 13.001 22.042 12.0127 22.042 12.0127ZM15.9502 6.75098C14.673 6.75098 13.6377 7.78632 13.6377 9.06348C13.6378 10.3406 14.6731 11.376 15.9502 11.376C17.2272 11.3758 18.2626 10.3405 18.2627 9.06348C18.2627 7.7864 17.2272 6.75111 15.9502 6.75098ZM15.9502 7.87598C16.6059 7.87611 17.1377 8.40772 17.1377 9.06348C17.1376 9.71916 16.6059 10.2508 15.9502 10.251C15.2944 10.251 14.7628 9.71924 14.7627 9.06348C14.7627 8.40764 15.2944 7.87598 15.9502 7.87598Z" fill="#FFBC0D"/>
</svg>
