<svg width="32" height="32" viewBox="0 0 32 32" fill="none" xmlns="http://www.w3.org/2000/svg">
<path d="M21.8604 10.9028C22.7805 10.7522 23.6499 11.3284 23.8877 12.2075L23.9268 12.3872C24.0771 13.3052 23.5042 14.1771 22.624 14.4155L22.4434 14.4546L18.3633 15.1245C18.3633 15.1245 18.2737 16.4376 18.3633 17.271C18.4529 18.1045 20.415 22.355 20.415 22.355C20.7992 23.2718 20.3668 24.3264 19.4512 24.7105C18.5927 25.0704 17.6109 24.715 17.1738 23.9107L17.1582 23.8814L17.1436 23.8511L17.1143 23.7886L17.1045 23.7681L17.0957 23.7466L15.9141 20.9302L14.7334 23.7466L14.708 23.8013L14.6777 23.8638L14.666 23.8882L14.6533 23.9116C14.2167 24.7137 13.237 25.0702 12.3779 24.7105L12.377 24.7095C11.4627 24.3254 11.0295 23.2723 11.4141 22.355C11.4141 22.355 13.4519 18.1132 13.5459 17.271C13.6399 16.4288 13.5459 15.1011 13.5459 15.1011L9.6084 14.4546C8.62945 14.2936 7.96329 13.3686 8.12402 12.3872C8.28503 11.4083 9.20996 10.7421 10.1914 10.9028C10.1914 10.9028 13.7165 11.8618 16.0254 11.8618C18.3343 11.8619 21.8604 10.9028 21.8604 10.9028ZM22.042 12.0132C22.042 12.0132 18.4065 13.0015 16.0254 13.0015C13.6443 13.0015 10.0088 12.0132 10.0088 12.0132C9.64151 11.9531 9.29479 12.2026 9.23438 12.5698C9.17421 12.9372 9.42372 13.2838 9.79102 13.3443L14.6709 14.146C14.6709 14.146 14.8304 16.0611 14.6709 17.271C14.5114 18.4809 12.4512 22.7896 12.4512 22.7896C12.3072 23.1328 12.4694 23.5281 12.8125 23.6724C13.1344 23.8072 13.5017 23.6736 13.665 23.3736L13.6953 23.3111L15.9141 18.021L18.1328 23.3111L18.1621 23.3736C18.3253 23.674 18.6935 23.8074 19.0156 23.6724C19.359 23.5283 19.521 23.133 19.377 22.7896C19.377 22.7896 17.3911 18.4726 17.2383 17.271C17.0854 16.0695 17.2383 14.1694 17.2383 14.1694L22.2607 13.3443C22.628 13.2838 22.8766 12.9372 22.8164 12.5698C22.756 12.2025 22.4093 11.953 22.042 12.0132Z" fill="#292929"/>
<path d="M17.1375 9.06348C17.1375 8.40764 16.6058 7.87598 15.95 7.87598C15.2941 7.87598 14.7625 8.40764 14.7625 9.06348C14.7625 9.71931 15.2941 10.251 15.95 10.251C16.6058 10.251 17.1375 9.71931 17.1375 9.06348ZM18.2625 9.06348C18.2625 10.3406 17.2271 11.376 15.95 11.376C14.6728 11.376 13.6375 10.3406 13.6375 9.06348C13.6375 7.78632 14.6728 6.75098 15.95 6.75098C17.2271 6.75098 18.2625 7.78632 18.2625 9.06348Z" fill="#292929"/>
<path d="M26.5 16C26.5 10.201 21.799 5.5 16 5.5C10.201 5.5 5.5 10.201 5.5 16C5.5 21.799 10.201 26.5 16 26.5V28C9.37258 28 4 22.6274 4 16C4 9.37258 9.37258 4 16 4C22.6274 4 28 9.37258 28 16C28 22.6274 22.6274 28 16 28V26.5C21.799 26.5 26.5 21.799 26.5 16Z" fill="#292929"/>
</svg>
