<svg width="32" height="32" viewBox="0 0 32 32" fill="none" xmlns="http://www.w3.org/2000/svg">
<path d="M26.2163 14.1388L26.2422 10.8763L23.4038 9.26758" stroke="#FFBC0D" stroke-width="1.5" stroke-linecap="round"/>
<path d="M6.78369 18.8623L6.75781 22.1248L9.59619 23.7336" stroke="#FFBC0D" stroke-width="1.5" stroke-linecap="round"/>
<path d="M9.59619 9.2666L6.75781 10.8754L6.78369 14.1379" stroke="#FFBC0D" stroke-width="1.5" stroke-linecap="round"/>
<path d="M23.4038 23.7336L26.2422 22.1248L26.2163 18.8623" stroke="#FFBC0D" stroke-width="1.5" stroke-linecap="round"/>
<path d="M13.6875 26.0957L16.5 27.7506L19.3125 26.0957" stroke="#FFBC0D" stroke-width="1.5" stroke-linecap="round"/>
<path d="M19.3125 6.90487L16.5 5.25L13.6875 6.90487" stroke="#FFBC0D" stroke-width="1.5" stroke-linecap="round"/>
<path d="M16.5 8.625V5.25" stroke="#FFBC0D" stroke-width="1.5" stroke-linecap="round"/>
<path d="M16.5 27.75V24.375" stroke="#FFBC0D" stroke-width="1.5" stroke-linecap="round"/>
<path d="M13.6875 14.5479L16.5 16.2027L19.3125 14.5479" stroke="#FFBC0D" stroke-width="1.5" stroke-linecap="round"/>
<path d="M16.5 19.875V16.5" stroke="#FFBC0D" stroke-width="1.5" stroke-linecap="round"/>
<path d="M9.67959 20.4375L6.75684 22.125" stroke="#FFBC0D" stroke-width="1.5" stroke-linecap="round"/>
<path d="M26.2426 10.875L23.3198 12.5625" stroke="#FFBC0D" stroke-width="1.5" stroke-linecap="round"/>
<path d="M9.67959 12.5625L6.75684 10.875" stroke="#FFBC0D" stroke-width="1.5" stroke-linecap="round"/>
<path d="M26.2426 22.125L23.3198 20.4375" stroke="#FFBC0D" stroke-width="1.5" stroke-linecap="round"/>
</svg>
