<svg width="32" height="32" viewBox="0 0 32 32" fill="none" xmlns="http://www.w3.org/2000/svg">
<path d="M28 25.667C27.9998 26.7714 27.1045 27.667 26 27.667H6C4.89554 27.667 4.00018 26.7714 4 25.667V17.2959C4 18.605 5.19423 19.667 6.66699 19.667H13.333V20C13.333 20.5522 13.7809 20.9998 14.333 21H17.667C18.2191 20.9998 18.667 20.5522 18.667 20V19.667H25.333C26.8058 19.667 28 18.605 28 17.2959V25.667ZM17.167 17.167V19.5H14.833V17.167H17.167ZM20 5C20.7363 5.00001 21.3328 5.59678 21.333 6.33301V9H26C27.1046 9 28 9.89543 28 11V17C28 17.3195 26.1483 18.167 25.333 18.167H18.667V16.667C18.667 16.1148 18.2191 15.6672 17.667 15.667H14.333C13.7809 15.6672 13.333 16.1148 13.333 16.667V18.167H6.66699C5.85169 18.167 4 17.3195 4 17V11C4 9.89543 4.89543 9 6 9H10.667V6.33301C10.6672 5.59678 11.2637 5 12 5H20ZM12.167 9H19.833V6.5H12.167V9Z" fill="#FFBC0D"/>
</svg>
