<svg width="32" height="32" viewBox="0 0 32 32" fill="none" xmlns="http://www.w3.org/2000/svg">
<path d="M6 9.75H26C26.6904 9.75 27.25 10.3096 27.25 11V25.667C27.2498 26.3572 26.6902 26.917 26 26.917H6C5.30975 26.917 4.75018 26.3572 4.75 25.667V11C4.75 10.3096 5.30964 9.75 6 9.75Z" stroke="#292929" stroke-width="1.5"/>
<mask id="path-2-inside-1_5747_44978" fill="white">
<path fill-rule="evenodd" clip-rule="evenodd" d="M14.3732 19.6667H6.66667C5.19391 19.6667 4 18.6054 4 17.2963V11.3704C4 10.0613 5.19391 9 6.66667 9H25.3333C26.8061 9 28 10.0613 28 11.3704V17.2963C28 18.6054 26.8061 19.6667 25.3333 19.6667H17.3646"/>
</mask>
<path d="M14.3732 19.6667V18.1667H6.66667V19.6667V21.1667H14.3732V19.6667ZM6.66667 19.6667V18.1667C5.85136 18.1667 5.5 17.6158 5.5 17.2963H4H2.5C2.5 19.5951 4.53645 21.1667 6.66667 21.1667V19.6667ZM4 17.2963H5.5V11.3704H4H2.5V17.2963H4ZM4 11.3704H5.5C5.5 11.0509 5.85136 10.5 6.66667 10.5V9V7.5C4.53645 7.5 2.5 9.07161 2.5 11.3704H4ZM6.66667 9V10.5H25.3333V9V7.5H6.66667V9ZM25.3333 9V10.5C26.1486 10.5 26.5 11.0509 26.5 11.3704H28H29.5C29.5 9.07161 27.4635 7.5 25.3333 7.5V9ZM28 11.3704H26.5V17.2963H28H29.5V11.3704H28ZM28 17.2963H26.5C26.5 17.6158 26.1486 18.1667 25.3333 18.1667V19.6667V21.1667C27.4635 21.1667 29.5 19.5951 29.5 17.2963H28ZM25.3333 19.6667V18.1667H17.3646V19.6667V21.1667H25.3333V19.6667Z" fill="#292929" mask="url(#path-2-inside-1_5747_44978)"/>
<mask id="path-4-inside-2_5747_44978" fill="white">
<path fill-rule="evenodd" clip-rule="evenodd" d="M10.6667 9V6.33333C10.6667 5.59695 11.2637 5 12.0001 5H20.0001C20.7365 5 21.3334 5.59695 21.3334 6.33333V9"/>
</mask>
<path d="M10.6667 9H12.1667V6.33333H10.6667H9.16675V9H10.6667ZM10.6667 6.33333H12.1667C12.1667 6.42538 12.0921 6.5 12.0001 6.5V5V3.5C10.4353 3.5 9.16675 4.76853 9.16675 6.33333H10.6667ZM12.0001 5V6.5H20.0001V5V3.5H12.0001V5ZM20.0001 5V6.5C19.908 6.5 19.8334 6.42538 19.8334 6.33333H21.3334H22.8334C22.8334 4.76853 21.5649 3.5 20.0001 3.5V5ZM21.3334 6.33333H19.8334V9H21.3334H22.8334V6.33333H21.3334Z" fill="#292929" mask="url(#path-4-inside-2_5747_44978)"/>
<path d="M14.3333 16.417H17.6663C17.8043 16.417 17.9163 16.5289 17.9163 16.667V20C17.9163 20.1381 17.8043 20.25 17.6663 20.25H14.3333C14.1952 20.25 14.0833 20.1381 14.0833 20V16.667C14.0833 16.5289 14.1952 16.417 14.3333 16.417Z" stroke="#292929" stroke-width="1.5"/>
</svg>
