<svg width="32" height="32" viewBox="0 0 32 32" fill="none" xmlns="http://www.w3.org/2000/svg">
<path fill-rule="evenodd" clip-rule="evenodd" d="M10.6134 21.431H6.90891C6.8211 21.431 6.74992 21.3598 6.74992 21.272V7.909C6.74992 7.82119 6.8211 7.75 6.90891 7.75H25.0444C25.1322 7.75 25.2034 7.82118 25.2034 7.909V21.272C25.2034 21.3598 25.1322 21.431 25.0444 21.431H14.0781L10.6134 25.0438V21.431ZM10.3753 27.8203L14.8246 23.181H25.0444C26.0987 23.181 26.9534 22.3263 26.9534 21.272V7.909C26.9534 6.85469 26.0987 6 25.0444 6H6.90891C5.8546 6 4.99992 6.85469 4.99992 7.909V21.272C4.99992 22.3263 5.8546 23.181 6.90891 23.181H8.86341V27.0455C8.86341 27.5727 9.29075 28 9.81791 28C10.0179 28 10.2129 27.9372 10.3753 27.8203Z" fill="#292929"/>
<path fill-rule="evenodd" clip-rule="evenodd" d="M8.25 11.75C8.25 11.3358 8.58579 11 9 11H23C23.4142 11 23.75 11.3358 23.75 11.75C23.75 12.1642 23.4142 12.5 23 12.5H9C8.58579 12.5 8.25 12.1642 8.25 11.75Z" fill="#292929"/>
<path fill-rule="evenodd" clip-rule="evenodd" d="M8.25 14.75C8.25 14.3358 8.58579 14 9 14H23C23.4142 14 23.75 14.3358 23.75 14.75C23.75 15.1642 23.4142 15.5 23 15.5H9C8.58579 15.5 8.25 15.1642 8.25 14.75Z" fill="#292929"/>
<path fill-rule="evenodd" clip-rule="evenodd" d="M8.25 17.75C8.25 17.3358 8.58579 17 9 17H15C15.4142 17 15.75 17.3358 15.75 17.75C15.75 18.1642 15.4142 18.5 15 18.5H9C8.58579 18.5 8.25 18.1642 8.25 17.75Z" fill="#292929"/>
</svg>
