<svg width="32" height="32" viewBox="0 0 32 32" fill="none" xmlns="http://www.w3.org/2000/svg">
<path d="M25.0449 6C26.099 6.00025 26.9531 6.85503 26.9531 7.90918V21.2715C26.9531 22.3256 26.099 23.1804 25.0449 23.1807H14.8242L10.375 27.8203C10.2128 27.9369 10.0182 27.9999 9.81836 28C9.29134 28 8.8635 27.5729 8.86328 27.0459V23.1807H6.90918C5.85487 23.1807 5 22.3258 5 21.2715V7.90918C5 6.85487 5.85487 6 6.90918 6H25.0449ZM9 17C8.58579 17 8.25 17.3358 8.25 17.75C8.25 18.1642 8.58579 18.5 9 18.5H15C15.4142 18.5 15.75 18.1642 15.75 17.75C15.75 17.3358 15.4142 17 15 17H9ZM9 14C8.58579 14 8.25 14.3358 8.25 14.75C8.25 15.1642 8.58579 15.5 9 15.5H23C23.4142 15.5 23.75 15.1642 23.75 14.75C23.75 14.3358 23.4142 14 23 14H9ZM9 11C8.58579 11 8.25 11.3358 8.25 11.75C8.25 12.1642 8.58579 12.5 9 12.5H23C23.4142 12.5 23.75 12.1642 23.75 11.75C23.75 11.3358 23.4142 11 23 11H9Z" fill="#FFBC0D"/>
</svg>
