<svg width="32" height="32" viewBox="0 0 32 32" fill="none" xmlns="http://www.w3.org/2000/svg">
<path fill-rule="evenodd" clip-rule="evenodd" d="M25.1925 7.8807L26.5825 15.4607C26.6825 16.0407 26.5025 16.6407 26.0725 17.0607L14.0625 29.0707C13.3625 29.7807 12.2125 29.7807 11.5025 29.0707L2.5325 20.1007C1.8225 19.4007 1.8225 18.2507 2.5325 17.5407L14.5425 5.5307C14.9625 5.1107 15.5625 4.9207 16.1525 5.0307L23.7325 6.4207C24.4725 6.5607 25.0525 7.1407 25.1925 7.8807ZM12.9425 27.9507L24.9525 15.9407C25.0125 15.8907 25.0325 15.8207 25.0125 15.7407L23.6225 8.1607C23.6025 8.0707 23.5325 8.0007 23.4425 7.9807L15.8625 6.5907C15.7925 6.5707 15.7125 6.6007 15.6625 6.6507L3.6525 18.6607C3.5625 18.7507 3.5625 18.8907 3.6525 18.9807L12.6225 27.9507C12.7125 28.0407 12.8525 28.0407 12.9425 27.9507ZM16.2125 15.4007C14.8625 14.0407 14.8625 11.8407 16.2125 10.4907C17.5625 9.1407 19.7625 9.1407 21.1225 10.4907C22.4725 11.8507 22.4725 14.0507 21.1225 15.4007C19.7625 16.7507 17.5625 16.7507 16.2125 15.4007ZM17.3325 14.2707C18.0625 15.0107 19.2525 15.0107 19.9925 14.2707C20.7325 13.5407 20.7325 12.3507 19.9925 11.6107C19.2625 10.8707 18.0725 10.8807 17.3325 11.6107C16.5925 12.3407 16.6025 13.5307 17.3325 14.2707Z" fill="#292929"/>
</svg>
