<svg width="32" height="32" viewBox="0 0 32 32" fill="none" xmlns="http://www.w3.org/2000/svg">
<path fill-rule="evenodd" clip-rule="evenodd" d="M7 19L7.93216 25C8.01796 25.5523 8.44465 26 8.88519 26H12.8736C13.3141 26 13.6017 25.5523 13.5159 25L12.5837 19H10.8127L11.6284 24.25H9.58663L8.77099 19H7Z" fill="#292929"/>
<path fill-rule="evenodd" clip-rule="evenodd" d="M15.75 10.6371V17.3213L26 20.8216V7.1368L15.75 10.6371ZM26.75 5.03146L15 9.04398C14.4477 9.23258 14 9.79681 14 10.3042V17.6542C14 18.1616 14.4477 18.7258 15 18.9144L26.75 22.9269C27.3023 23.1155 27.75 22.4366 27.75 21.4106V6.54781C27.75 5.52175 27.3023 4.84286 26.75 5.03146Z" fill="#292929"/>
<path fill-rule="evenodd" clip-rule="evenodd" d="M6.75 10.75V17.25H14.25V10.75H6.75ZM6 9C5.44772 9 5 9.44772 5 10V18C5 18.5523 5.44771 19 6 19H15C15.5523 19 16 18.5523 16 18V10C16 9.44772 15.5523 9 15 9H6Z" fill="#292929"/>
</svg>
