<svg width="32" height="32" viewBox="0 0 32 32" fill="none" xmlns="http://www.w3.org/2000/svg">
<path fill-rule="evenodd" clip-rule="evenodd" d="M2.28163 17.7184C1.57381 18.4262 1.57381 19.5738 2.28163 20.2816L11.253 29.253C11.9609 29.9609 13.1085 29.9609 13.8163 29.253L25.8249 17.2444C26.2462 16.8232 26.4335 16.2218 26.3261 15.6359L24.9358 8.05473C24.8 7.31418 24.2205 6.7347 23.4799 6.5989L15.8988 5.20861C15.3129 5.10116 14.7115 5.28851 14.2902 5.70976L2.28163 17.7184ZM20.2794 15.1001C21.3412 14.0384 21.3412 12.317 20.2794 11.2552C19.2177 10.1935 17.4963 10.1935 16.4345 11.2552C15.3728 12.317 15.3728 14.0384 16.4345 15.1001C17.4963 16.1619 19.2177 16.1619 20.2794 15.1001Z" fill="#FFBC0D"/>
</svg>
