<svg width="32" height="32" viewBox="0 0 32 32" fill="none" xmlns="http://www.w3.org/2000/svg">
<path fill-rule="evenodd" clip-rule="evenodd" d="M3.01786 5C1.86231 5 1 5.97065 1 7.075V10.675C1 11.7793 1.86231 12.75 3.01786 12.75H5V13.1861C5 13.9315 5.31807 14.6026 5.82587 15.071C4.89721 15.8164 4.2473 16.8948 4.05734 18.125H2.875C2.32272 18.125 1.875 18.5727 1.875 19.125V19.875H4V22H2.87499C2.32272 22 1.87501 22.4477 1.875 23L1.875 23.75H5V23.875C5 26.0154 6.73455 27.75 8.875 27.75C11.0154 27.75 12.75 26.0154 12.75 23.875V23.75H21V23.875C21 26.0154 22.7346 27.75 24.875 27.75C27.0154 27.75 28.75 26.0154 28.75 23.875V23.75H29.375C30.1085 23.75 30.8051 23.1369 30.7211 22.2894C30.4748 19.805 28.6823 17.7761 26.3194 17.1788L25.566 14.4167H25.875C27.0946 14.4167 28.0833 13.428 28.0833 12.2083C28.0833 10.9887 27.0946 10 25.875 10H24.3615L23.7919 7.91139C23.6451 7.3733 23.1564 7 22.5986 7C21.7157 7 21 7.71574 21 8.59865L21 10.875H18.875C18.3227 10.875 17.875 11.3227 17.875 11.875L17.875 12.625H21L21.0001 15.4375L17.5833 18H14.75L14.75 13.5639C14.75 12.1479 13.6021 11 12.1861 11H10.75V7.075C10.75 5.97065 9.88769 5 8.73214 5H3.01786ZM24.4606 17.0144L22.75 10.7423L22.7501 16.3125L18.1667 19.75H13L13.0001 15.75H8.875C7.40764 15.75 6.1765 16.7613 5.84058 18.125H9.875V18.875C9.875 19.4273 9.42728 19.875 8.875 19.875H5.75V22H28.9072C28.5062 20.1424 26.8528 18.75 24.875 18.75C23.7504 18.75 22.7325 19.1988 21.9875 19.9291L20.7625 18.6794C21.7291 17.7318 23.0242 17.1146 24.4606 17.0144ZM27 23.75H22.75V23.875C22.75 25.049 23.701 26 24.875 26C26.049 26 27 25.049 27 23.875V23.75ZM25.875 12.6667H25.0888L24.8388 11.75H25.875C26.1281 11.75 26.3333 11.9552 26.3333 12.2083C26.3333 12.4615 26.1281 12.6667 25.875 12.6667ZM9 11V7.075C9 6.85455 8.8406 6.75 8.73214 6.75H3.01786C2.9094 6.75 2.75 6.85455 2.75 7.075V10.675C2.75 10.8955 2.9094 11 3.01786 11H9ZM13 14V13.5639C13 13.1144 12.6356 12.75 12.1861 12.75H6.75V13.1861C6.75 13.6356 7.11438 14 7.56387 14H13ZM6.75 23.75V23.875C6.75 25.049 7.70105 26 8.875 26C10.049 26 11 25.049 11 23.875V23.75H6.75Z" fill="#292929"/>
</svg>
