<svg width="32" height="32" viewBox="0 0 32 32" fill="none" xmlns="http://www.w3.org/2000/svg">
<path fill-rule="evenodd" clip-rule="evenodd" d="M26.1875 10.75H5.8125C5.77798 10.75 5.75 10.778 5.75 10.8125V22.6161C5.75 22.6506 5.77798 22.6786 5.8125 22.6786H26.1875C26.222 22.6786 26.25 22.6506 26.25 22.6161V10.8125C26.25 10.778 26.222 10.75 26.1875 10.75ZM5.8125 9C4.81148 9 4 9.81149 4 10.8125V22.6161C4 23.6171 4.81148 24.4286 5.8125 24.4286H26.1875C27.1885 24.4286 28 23.6171 28 22.6161V10.8125C28 9.81148 27.1885 9 26.1875 9H5.8125Z" fill="#292929"/>
<path fill-rule="evenodd" clip-rule="evenodd" d="M26.1875 10.75H5.8125C5.77798 10.75 5.75 10.778 5.75 10.8125V12.1318L15.9754 16.5141C15.9911 16.5208 16.0089 16.5208 16.0246 16.5141L26.25 12.1318V10.8125C26.25 10.778 26.222 10.75 26.1875 10.75ZM28 13.2857V10.8125C28 9.81148 27.1885 9 26.1875 9H5.8125C4.81148 9 4 9.81148 4 10.8125V13.2857L15.286 18.1226C15.742 18.318 16.258 18.318 16.714 18.1226L28 13.2857Z" fill="#292929"/>
</svg>
