<svg width="32" height="32" viewBox="0 0 32 32" fill="none" xmlns="http://www.w3.org/2000/svg">
<path fill-rule="evenodd" clip-rule="evenodd" d="M5.8125 9C4.81148 9 4 9.81149 4 10.8125V12.5355C4.09868 12.5355 4.19899 12.555 4.29544 12.5964L15.6202 17.4498C15.8627 17.5538 16.1373 17.5538 16.3799 17.4498L27.7046 12.5964C27.801 12.555 27.9013 12.5355 28 12.5355V10.8125C28 9.81148 27.1885 9 26.1875 9H5.8125ZM28 14.1017L16.9707 18.8285C16.3508 19.0942 15.6492 19.0942 15.0293 18.8285L4 14.1017V22.6161C4 23.6171 4.81148 24.4286 5.8125 24.4286H26.1875C27.1885 24.4286 28 23.6171 28 22.6161V14.1017Z" fill="#FFBC0D"/>
</svg>
