<svg width="32" height="32" viewBox="0 0 32 32" fill="none" xmlns="http://www.w3.org/2000/svg">
<path fill-rule="evenodd" clip-rule="evenodd" d="M17.8784 3C17.0291 3 16.3405 3.71312 16.3405 4.5928V15.1738C16.9377 15.1305 17.5235 14.9856 18.0905 14.7614V3.2197C18.0905 3.09836 17.9956 3 17.8784 3ZM19.2155 14.2027C19.8344 13.8328 20.4215 13.3777 20.9655 12.8713V7.31155C20.9655 6.43187 20.277 5.71875 19.4277 5.71875C19.3105 5.71875 19.2155 5.81711 19.2155 5.93845V14.2027ZM21.9655 11.8315C22.1318 11.6394 22.292 11.4437 22.4458 11.246C22.7713 10.8273 23.2117 10.4996 23.7155 10.3255V7.75095C23.7155 7.62961 23.6206 7.53125 23.5034 7.53125C22.6541 7.53125 21.9655 8.24437 21.9655 9.12405V11.8315ZM25.9311 11.1875H24.5335C24.039 11.1875 23.5621 11.4393 23.2352 11.8598C21.5516 14.025 18.9498 16.1875 15.9655 16.1875C12.9976 16.1875 10.0049 14.0439 8.21589 11.8605C7.87149 11.4402 7.39105 11.1875 6.89759 11.1875H6L7.68676 27.6242C7.74819 28.2228 8.36693 28.6035 8.93686 28.4104C10.5107 27.8771 13.4554 27.0102 15.9655 27.0102C18.4757 27.0102 21.4204 27.8771 22.9942 28.4104C23.5642 28.6035 24.1829 28.2228 24.2443 27.6242L25.9311 11.1875ZM7.96554 10.426C8.36427 10.6105 8.7141 10.8907 8.98939 11.2267C9.21431 11.5012 9.45731 11.7723 9.71554 12.0362V9.12405C9.71554 8.24437 9.02701 7.53125 8.17766 7.53125C8.06051 7.53125 7.96554 7.62961 7.96554 7.75095V10.426ZM10.7155 12.9557C11.2635 13.4086 11.8531 13.819 12.4655 14.1607V5.93845C12.4655 5.81711 12.3706 5.71875 12.2534 5.71875C11.4041 5.71875 10.7155 6.43187 10.7155 7.31155V12.9557ZM13.5905 14.6969C14.1693 14.9253 14.7575 15.0832 15.3405 15.1507V5.49905C15.3405 4.61937 14.652 3.90625 13.8027 3.90625C13.6855 3.90625 13.5905 4.00461 13.5905 4.12595V14.6969Z" fill="#FFBC0D"/>
</svg>
