<svg width="32" height="32" viewBox="0 0 32 32" fill="none" xmlns="http://www.w3.org/2000/svg">
<g clip-path="url(#clip0_5840_2081)">
<path fill-rule="evenodd" clip-rule="evenodd" d="M24.906 10.875V5H23.156V10.875H19.0001C18.4062 10.875 17.9431 11.3897 18.0057 11.9803L19.5832 26.875H28.4789L30.0564 11.9803C30.119 11.3897 29.6559 10.875 29.062 10.875H24.906ZM21.1577 25.125L19.8337 12.625H28.2283L26.9044 25.125H21.1577Z" fill="#292929"/>
<path fill-rule="evenodd" clip-rule="evenodd" d="M7.09526 12.5C4.97817 12.5 3.26193 14.2162 3.26193 16.3333V16.3571H15.5V16.3333C15.5 14.2162 13.7838 12.5 11.6667 12.5H7.09526ZM1.76193 16.3333C1.76193 13.3878 4.14974 11 7.09526 11H11.6667C14.6122 11 17 13.3878 17 16.3333V17.8571H1.76193V16.3333Z" fill="#292929"/>
<path d="M1 19.6413C1 19.2871 1.28713 19 1.64132 19H16.667C17.2717 19 17.7619 19.4902 17.7619 20.0949C17.7619 20.7526 17.2288 21.2857 16.5711 21.2857H2.6444C1.73622 21.2857 1 20.5495 1 19.6413Z" fill="#292929"/>
<path fill-rule="evenodd" clip-rule="evenodd" d="M4.80955 25.5H13.9524C14.8071 25.5 15.5 24.8071 15.5 23.9524V23.9286H3.26193V23.9524C3.26193 24.8071 3.95482 25.5 4.80955 25.5ZM13.9524 27H4.80955C3.12639 27 1.76193 25.6356 1.76193 23.9524V22.4286H17V23.9524C17 25.6356 15.6356 27 13.9524 27Z" fill="#292929"/>
</g>
<defs>
<clipPath id="clip0_5840_2081">
<rect width="32" height="32" fill="white"/>
</clipPath>
</defs>
</svg>
