<svg width="32" height="32" viewBox="0 0 32 32" fill="none" xmlns="http://www.w3.org/2000/svg">
<path d="M18.75 5.34668C21.7135 6.10943 24.1913 8.07723 25.6357 10.6953L23.4297 10.125L23.0283 14.0098L25.3184 17.1738L26.9961 15.8691C26.9966 15.9127 27 15.9563 27 16C27 18.9185 25.8606 21.569 24.0059 23.5381L23.7988 22.1094L20.1074 23.3877L18.2217 26.7744C17.5041 26.9216 16.7612 27 16 27C15.0961 27 14.2184 26.8882 13.3779 26.6826L11.5146 23.333L7.82324 22.0547L7.66016 23.1689C6.00342 21.2434 5 18.7395 5 16C5 15.9377 5.00287 15.8755 5.00391 15.8135L6.33887 17.2305L8.62988 14.0664L8.22852 10.1807L6.33105 10.75C7.65756 8.31214 9.88022 6.43429 12.5557 5.55273L12.123 6.52441L15.7725 7.91895L19.4219 6.52441L18.75 5.34668ZM11.9121 15.1719L13.3867 19.6445H18.1582L19.6328 15.1719L15.7725 12.4072L11.9121 15.1719Z" fill="#FFBC0D"/>
<circle cx="16" cy="16" r="10.5" stroke="#FFBC0D"/>
</svg>
