<svg width="32" height="32" viewBox="0 0 32 32" fill="none" xmlns="http://www.w3.org/2000/svg">
<path fill-rule="evenodd" clip-rule="evenodd" d="M15.1138 11V9H12.9888V8.5C12.9888 7.67157 13.6603 7 14.4888 7H15.1138H16.8638H17.4888C18.3172 7 18.9888 7.67157 18.9888 8.5V9H16.8638V11H15.1138ZM5 23C5.2614 17.1569 10.0813 12.5 15.9888 12.5C21.8964 12.5 26.7163 17.1569 26.9777 23H5ZM13.3013 17.0673C13.7527 16.8946 13.9786 16.3888 13.806 15.9374C13.6334 15.4861 13.1275 15.2601 12.6762 15.4327C10.9235 16.1031 9.49785 17.43 8.69838 19.1129C8.49102 19.5494 8.67677 20.0714 9.11327 20.2787C9.54977 20.4861 10.0717 20.3003 10.2791 19.8638C10.8866 18.585 11.9714 17.5759 13.3013 17.0673Z" fill="#FFBC0D"/>
<path fill-rule="evenodd" clip-rule="evenodd" d="M30 25.75H2C2 25.5 2 25.25 2 25C2.00001 24.4477 2.44772 24 2.99999 24H29C29.5523 24 30 24.4477 30 25C30 25.25 30 25.5 30 25.75Z" fill="#FFBC0D"/>
</svg>
