<svg width="32" height="32" viewBox="0 0 32 32" fill="none" xmlns="http://www.w3.org/2000/svg">
<g clip-path="url(#clip0_5840_2027)">
<path fill-rule="evenodd" clip-rule="evenodd" d="M17.9129 3C17.0635 3 16.375 3.71312 16.375 4.5928V15.5938H18.125V3.2197C18.125 3.09836 18.03 3 17.9129 3ZM13.8371 3.90625C14.6865 3.90625 15.375 4.61937 15.375 5.49905V15.5H13.625V4.12595C13.625 4.00461 13.72 3.90625 13.8371 3.90625ZM21 7.31155C21 6.43187 20.3115 5.71875 19.4621 5.71875C19.345 5.71875 19.25 5.81711 19.25 5.93845V15.5938L21 14.5938V7.31155ZM23.5379 7.53125C22.6885 7.53125 22 8.24437 22 9.12405V13.7812L23.75 10.9688V7.75095C23.75 7.62961 23.655 7.53125 23.5379 7.53125ZM10.75 7.31155C10.75 6.43187 11.4385 5.71875 12.2879 5.71875C12.405 5.71875 12.5 5.81711 12.5 5.93845V15.5L10.75 14.5V7.31155ZM8.21212 7.53125C9.06147 7.53125 9.75 8.24437 9.75 9.12405V13.875L8 11.6875V7.75095C8 7.62961 8.09497 7.53125 8.21212 7.53125Z" fill="#292929"/>
<path fill-rule="evenodd" clip-rule="evenodd" d="M5.22547 10.2887C5.39138 10.1049 5.6274 10 5.875 10H8.59375C8.9502 10 9.27091 10.2162 9.40469 10.5464L9.40575 10.5489L9.41602 10.5727C9.42642 10.5962 9.44393 10.6348 9.46896 10.6862C9.51908 10.7891 9.59896 10.9428 9.71174 11.1303C9.93803 11.5065 10.2922 12.0114 10.7977 12.5157C11.7977 13.5133 13.3974 14.5203 15.8438 14.5203C18.2901 14.5203 19.8898 13.5133 20.8898 12.5157C21.3953 12.0114 21.7495 11.5065 21.9758 11.1303C22.0885 10.9428 22.1684 10.7891 22.2185 10.6862C22.2436 10.6348 22.2611 10.5962 22.2715 10.5727L22.2818 10.5489C22.2826 10.5469 22.283 10.546 22.283 10.546L22.2822 10.5479C22.4154 10.2165 22.7365 10 23.0938 10H25.8125C26.0601 10 26.2961 10.1049 26.462 10.2887C26.6279 10.4725 26.7082 10.718 26.6829 10.9643L24.993 27.4323C24.8718 28.6134 23.671 29.3236 22.5916 28.9579C21.0286 28.4283 18.2003 27.6039 15.8438 27.6039C13.4872 27.6039 10.6589 28.4283 9.09587 28.9579C8.01653 29.3236 6.81575 28.6134 6.69454 27.4323L5.00458 10.9643C4.9793 10.718 5.05956 10.4725 5.22547 10.2887ZM24.8431 11.75H23.6377C23.5904 11.8364 23.5364 11.9309 23.4754 12.0323C23.1919 12.5036 22.7531 13.1288 22.1258 13.7546C20.8602 15.0171 18.8349 16.2703 15.8438 16.2703C12.8526 16.2703 10.8273 15.0171 9.56172 13.7546C8.93438 13.1288 8.49557 12.5036 8.21209 12.0323C8.15114 11.9309 8.09716 11.8364 8.04984 11.75H6.84439L8.4354 27.2536C8.43626 27.262 8.43827 27.2664 8.44086 27.2704C8.44427 27.2757 8.45112 27.2835 8.46276 27.2908C8.48728 27.3061 8.51247 27.3078 8.53427 27.3004C10.1189 26.7635 13.18 25.8539 15.8438 25.8539C18.5075 25.8539 21.5686 26.7635 23.1532 27.3004C23.175 27.3078 23.2002 27.3061 23.2247 27.2908C23.2364 27.2835 23.2432 27.2757 23.2466 27.2704C23.2482 27.2681 23.2495 27.2656 23.2505 27.2622C23.2512 27.2598 23.2518 27.2571 23.2521 27.2536L24.8431 11.75Z" fill="#292929"/>
</g>
<defs>
<clipPath id="clip0_5840_2027">
<rect width="32" height="32" fill="white"/>
</clipPath>
</defs>
</svg>
