<svg width="32" height="32" viewBox="0 0 32 32" fill="none" xmlns="http://www.w3.org/2000/svg">
<path fill-rule="evenodd" clip-rule="evenodd" d="M16.6414 5.47355C16.4912 5.1827 16.1912 5 15.8639 5C15.5366 5 15.2366 5.1827 15.0864 5.47355L12.1181 11.2222L5.73347 12.2689C5.41045 12.3218 5.144 12.5507 5.04285 12.862C4.9417 13.1733 5.02276 13.515 5.25297 13.7477L9.80302 18.3472L8.82548 24.7428C8.77603 25.0664 8.91131 25.3905 9.17613 25.5829C9.44094 25.7753 9.79101 25.8038 10.0835 25.6568L15.8639 22.7507L21.6444 25.6568C21.9368 25.8038 22.2869 25.7753 22.5517 25.5829C22.8165 25.3905 22.9518 25.0664 22.9023 24.7428L21.9248 18.3472L26.4749 13.7477C26.7051 13.515 26.7861 13.1733 26.685 12.862C26.5838 12.5507 26.3174 12.3218 25.9944 12.2689L19.6098 11.2222L16.6414 5.47355Z" fill="#FFBC0D"/>
</svg>
