<svg width="32" height="32" viewBox="0 0 32 32" fill="none" xmlns="http://www.w3.org/2000/svg">
<path fill-rule="evenodd" clip-rule="evenodd" d="M24.906 10V5H23.156V10H24.906ZM30.0564 12.1053L28.4789 27H19.5832L18.0057 12.1053C17.9431 11.5147 18.4062 11 19.0001 11H29.062C29.6559 11 30.119 11.5147 30.0564 12.1053Z" fill="#FFBC0D"/>
<path fill-rule="evenodd" clip-rule="evenodd" d="M1.72727 17.3333C1.72727 14.3878 4.00655 12 6.81818 12H11.1818C13.9935 12 16.2727 14.3878 16.2727 17.3333V18.8571H1.72727V17.3333ZM13.3636 28H4.63636C3.02972 28 1.72727 26.6355 1.72727 24.9524V23.4286H16.2727V24.9524C16.2727 26.6355 14.9703 28 13.3636 28ZM1.61216 20C1.27408 20 1 20.2871 1 20.6413C1 21.5495 1.70276 22.2857 2.56965 22.2857H9.21651H15.8634C16.4911 22.2857 17 21.7526 17 21.095C17 20.4902 16.5321 20 15.9548 20H1.61216Z" fill="#FFBC0D"/>
</svg>
