<svg width="32" height="32" viewBox="0 0 32 32" fill="none" xmlns="http://www.w3.org/2000/svg">
<path fill-rule="evenodd" clip-rule="evenodd" d="M15.8623 7.78L13.4723 12.42C13.3423 12.66 13.1123 12.83 12.8423 12.88L7.69233 13.72L11.3623 17.43C11.5523 17.63 11.6423 17.9 11.6023 18.18L10.8123 23.34L15.4723 21C15.7223 20.88 16.0123 20.88 16.2623 21L20.9223 23.34L20.1323 18.18C20.0923 17.91 20.1823 17.63 20.3723 17.43L24.0423 13.72L18.8923 12.88C18.6223 12.84 18.3823 12.66 18.2523 12.42L15.8623 7.78ZM15.8623 5C16.1923 5 16.4923 5.18 16.6423 5.47L19.6123 11.22L25.9923 12.27C26.3123 12.32 26.5823 12.55 26.6823 12.86C26.7823 13.17 26.7023 13.51 26.4723 13.75L21.9223 18.35L22.9023 24.75C22.9523 25.07 22.8123 25.4 22.5523 25.59C22.2923 25.78 21.9423 25.81 21.6423 25.66L15.8623 22.75L10.0823 25.66C9.79233 25.81 9.44233 25.78 9.17233 25.59C8.91233 25.4 8.77233 25.07 8.82233 24.75L9.80233 18.35L5.25233 13.75C5.02233 13.52 4.94233 13.17 5.04233 12.86C5.14233 12.55 5.41233 12.32 5.73233 12.27L12.1123 11.22L15.0823 5.47C15.2423 5.18 15.5423 5 15.8623 5Z" fill="#292929"/>
</svg>
