<svg width="32" height="32" viewBox="0 0 32 32" fill="none" xmlns="http://www.w3.org/2000/svg">
<path fill-rule="evenodd" clip-rule="evenodd" d="M15.7744 11.9062C15.8788 11.9063 15.9805 11.9392 16.0654 12L19.9258 14.7646C20.0123 14.8267 20.0773 14.9144 20.1104 15.0156C20.1434 15.1168 20.1427 15.226 20.1094 15.3271L18.6348 19.8008C18.6018 19.9007 18.5383 19.9882 18.4531 20.0498C18.3679 20.1113 18.2652 20.1445 18.1602 20.1445H13.3887C13.2836 20.1445 13.1809 20.1113 13.0957 20.0498C13.0105 19.9882 12.947 19.9007 12.9141 19.8008L11.4395 15.3271C11.4062 15.226 11.4054 15.1168 11.4385 15.0156C11.4715 14.9144 11.5365 14.8267 11.623 14.7646L15.4834 12C15.5683 11.9393 15.67 11.9063 15.7744 11.9062ZM12.5039 15.3633L13.75 19.1445H17.7988L19.0449 15.3633L15.7744 13.0215L12.5039 15.3633Z" fill="#292929"/>
<path fill-rule="evenodd" clip-rule="evenodd" d="M16 5C16.8205 5 17.6194 5.09233 18.3887 5.2627C18.4371 5.2734 18.4851 5.28554 18.5332 5.29688C18.6739 5.33004 18.8136 5.36481 18.9521 5.40332C19.0162 5.42109 19.08 5.43911 19.1436 5.45801C22.0108 6.31174 24.3854 8.30269 25.749 10.9082C25.7727 10.9533 25.7963 10.9985 25.8193 11.0439C26.5101 12.4099 26.9242 13.9381 26.9883 15.5576C26.9951 15.7044 27 15.8518 27 16C27 18.9029 25.8732 21.541 24.0361 23.5068C24.0141 23.5304 23.992 23.5538 23.9697 23.5771C22.5012 25.1212 20.5902 26.2374 18.4385 26.7246C18.4215 26.7285 18.4047 26.7325 18.3877 26.7363C18.284 26.7593 18.1799 26.7808 18.0752 26.8008C18.0301 26.8095 17.9848 26.8171 17.9395 26.8252C17.3096 26.9373 16.662 27 16 27C15.1777 27 14.3772 26.9064 13.6064 26.7354C13.5764 26.7287 13.5465 26.7217 13.5166 26.7148C13.3546 26.6775 13.1943 26.6362 13.0352 26.5918C12.9921 26.5798 12.9491 26.5682 12.9062 26.5557C10.8562 25.9558 9.05522 24.7764 7.69141 23.2051C7.67035 23.1809 7.64976 23.1562 7.62891 23.1318C7.56743 23.0597 7.50592 22.9877 7.44629 22.9141C7.37391 22.8248 7.30296 22.7342 7.2334 22.6426C5.83288 20.7968 5 18.4957 5 16C5 15.8452 5.00452 15.6913 5.01172 15.5381C5.07315 14.0513 5.42979 12.6417 6.02441 11.3643L6.02344 11.3652C6.0278 11.3559 6.03174 11.3463 6.03613 11.3369C6.0743 11.2555 6.1142 11.175 6.1543 11.0947C6.181 11.0413 6.20878 10.9885 6.23633 10.9355C6.3796 10.6599 6.53391 10.3912 6.69922 10.1299C6.70226 10.1251 6.70496 10.12 6.70801 10.1152C8.04146 8.01448 10.0664 6.39658 12.4639 5.58301C12.5035 5.56946 12.5432 5.55607 12.583 5.54297C12.6602 5.51775 12.7375 5.49229 12.8154 5.46875C12.9388 5.43125 13.0632 5.3963 13.1885 5.36328C14.086 5.12668 15.0282 5 16 5ZM19.8555 6.77148C19.8341 6.80863 19.8103 6.84436 19.7803 6.875C19.7299 6.92644 19.6688 6.96647 19.6016 6.99219L15.9521 8.38574C15.8373 8.42952 15.7105 8.42957 15.5957 8.38574L11.9463 6.99219C11.8993 6.9742 11.8569 6.94703 11.8174 6.91602C10.4252 7.5581 9.20502 8.50919 8.24707 9.68359C8.26563 9.68427 8.28431 9.68377 8.30273 9.68652C8.37546 9.69739 8.44466 9.72485 8.50586 9.76562C8.56709 9.80645 8.6192 9.85984 8.65723 9.92285C8.69524 9.98586 8.71899 10.0567 8.72656 10.1299L9.12793 14.0156C9.14051 14.1379 9.10821 14.2608 9.03613 14.3604L6.74512 17.5244C6.70198 17.584 6.64544 17.6334 6.58105 17.6689C6.51675 17.7044 6.44533 17.7248 6.37207 17.7295C6.29862 17.7342 6.22472 17.7233 6.15625 17.6963C6.15209 17.6946 6.14864 17.6912 6.14453 17.6895C6.38594 19.1079 6.92448 20.4244 7.69629 21.5723C7.72104 21.5656 7.74595 21.5594 7.77148 21.5566C7.84461 21.5488 7.91877 21.557 7.98828 21.5811L11.6797 22.8594C11.7959 22.8996 11.8933 22.9814 11.9531 23.0889L13.3789 25.6504C14.2145 25.8768 15.0928 26 16 26C16.7638 26 17.5069 25.9112 18.2217 25.749L19.6719 23.1436C19.7316 23.0362 19.8292 22.9543 19.9453 22.9141L23.6367 21.6357C23.7062 21.6117 23.7804 21.6035 23.8535 21.6113C23.9267 21.6192 23.9977 21.6434 24.0605 21.6816C24.0995 21.7054 24.133 21.7363 24.1641 21.7695C25.0722 20.4868 25.6858 18.9825 25.9062 17.3516L25.627 17.5693C25.574 17.6105 25.513 17.641 25.4482 17.6582C25.3834 17.6754 25.3154 17.6794 25.249 17.6699C25.1827 17.6605 25.1189 17.6371 25.0615 17.6025C25.0041 17.5679 24.9534 17.5221 24.9141 17.4678L22.624 14.3037C22.5519 14.2041 22.5186 14.0813 22.5312 13.959L22.9336 10.0732C22.941 10.0018 22.9635 9.93293 23 9.87109C23.0366 9.80912 23.0864 9.75592 23.1455 9.71484C23.2046 9.67377 23.2719 9.64549 23.3428 9.63281C23.4135 9.62021 23.4861 9.62267 23.5557 9.64062L23.7588 9.69336C22.7255 8.42365 21.3876 7.41234 19.8555 6.77148ZM20.4531 23.7969L19.5996 25.3291C21.0307 24.7766 22.3016 23.9052 23.3271 22.8008L20.4531 23.7969ZM8.77832 22.9131C9.67458 23.8491 10.7503 24.61 11.9512 25.1426L11.1719 23.7422L8.77832 22.9131ZM23.5459 13.8721L25.4209 16.4619L25.999 16.0107C25.999 16.0072 26 16.0036 26 16C26 14.1582 25.4995 12.4341 24.6309 10.9521L23.8682 10.7549L23.5459 13.8721ZM7.36133 10.9629C6.49684 12.4423 6 14.1629 6 16C6 16.0483 6.00225 16.0964 6.00293 16.1445L6.28906 16.4482L8.11328 13.9287L7.79395 10.834L7.36133 10.9629ZM16 6C15.0276 6 14.0881 6.14055 13.1992 6.39941L15.7744 7.38379L18.542 6.32617C17.7303 6.11346 16.8784 6 16 6Z" fill="#292929"/>
</svg>
