<svg width="32" height="32" viewBox="0 0 32 32" fill="none" xmlns="http://www.w3.org/2000/svg">
<path d="M27.19 7H4.81C3.81 7 3 7.81 3 8.81V23.5C3 24.5 3.81 25.31 4.81 25.31H27.19C28.19 25.31 29 24.5 29 23.5V8.81C29 7.81 28.19 7 27.19 7ZM18 15.5C17.47 14.97 17.41 13.79 18.35 12.85C19.29 11.91 20.47 11.96 21 12.5C21.53 13.04 21.59 14.21 20.65 15.15C20.44 15.36 20.22 15.51 20 15.62H18.16C18.1 15.59 18.04 15.55 18 15.5ZM12.35 15.15C11.41 14.21 11.46 13.03 12 12.5C12.54 11.97 13.71 11.91 14.65 12.85C15.59 13.79 15.54 14.97 15 15.5C14.95 15.55 14.9 15.58 14.84 15.62H13C12.78 15.51 12.56 15.36 12.35 15.15ZM4.75 8.81C4.75 8.78 4.78 8.75 4.81 8.75H15.62V11.39C14.21 10.19 12.1 9.92 10.76 11.26C9.57 12.45 9.65 14.25 10.52 15.62H4.75V8.81ZM15.62 23.56H4.81C4.78 23.56 4.75 23.53 4.75 23.5V17.38H12.68C13.16 17.56 13.65 17.64 14.14 17.63C13.53 18.11 13 18.47 12.57 18.68C11.9 19.01 11 19.24 9.87 19.37L9 19.46L9.09 20.33C9.14 20.81 9.57 21.16 10.05 21.11C11.37 20.97 12.47 20.68 13.35 20.25C13.99 19.93 14.74 19.41 15.62 18.69V23.54V23.56ZM27.25 23.5C27.25 23.53 27.22 23.56 27.19 23.56H17.38V23.53V18.51C18.34 19.31 19.16 19.9 19.85 20.24C20.73 20.68 21.82 20.96 23.15 21.1C23.63 21.15 24.06 20.8 24.11 20.32L24.2 19.45L23.33 19.36C22.2 19.24 21.3 19 20.63 18.67C20.21 18.46 19.67 18.1 19.06 17.62C19.49 17.61 19.91 17.53 20.32 17.37H26.5H27.25V23.5ZM27.25 15.62H26.5H22.48C23.35 14.24 23.43 12.44 22.24 11.25C20.9 9.91 18.79 10.18 17.38 11.38V8.75H27.19C27.22 8.75 27.25 8.78 27.25 8.81V15.62Z" fill="#292929"/>
</svg>
