<svg width="32" height="32" viewBox="0 0 32 32" fill="none" xmlns="http://www.w3.org/2000/svg">
<path d="M17.6436 13.1426C19.283 13.1426 20.6123 19.2835 20.6123 26.8574H21.4111C19.8602 27.5888 18.1283 28 16.2998 28C15.7489 28 15.2069 27.9615 14.6758 27.8896C14.6876 19.7354 16.0122 13.1427 17.6436 13.1426ZM16.2998 4C21.951 4 26.6865 7.90719 27.96 13.167C27.3406 12.4155 26.6654 12 25.9561 12C24.277 12 22.7791 14.1533 21.7998 17.5195C20.8205 14.1533 19.3226 12 17.6436 12C14.7699 12.0001 12.4245 18.7961 12.3047 27.3154C7.64194 25.6692 4.2998 21.2263 4.2998 16C4.2998 9.37258 9.67239 4 16.2998 4ZM25.9561 13.1426C26.8208 13.1426 27.5982 14.994 28.1406 17.9473C27.5969 21.2787 25.6826 24.1483 22.9941 25.959C23.0943 18.8036 24.3819 13.1426 25.9561 13.1426Z" fill="#FFBC0D"/>
</svg>
