<svg width="32" height="32" viewBox="0 0 32 32" fill="none" xmlns="http://www.w3.org/2000/svg">
<path d="M17.6438 13.1426C19.2832 13.1426 20.6125 19.2835 20.6125 26.8574H21.4114C19.8604 27.5888 18.1285 28 16.3 28C15.7492 28 15.2072 27.9615 14.676 27.8896C14.6879 19.7354 16.0125 13.1427 17.6438 13.1426ZM16.3 4C21.9513 4 26.6868 7.90719 27.9602 13.167C27.3409 12.4155 26.6656 12 25.9563 12C24.2772 12 22.7793 14.1533 21.8 17.5195C20.8208 14.1533 19.3229 12 17.6438 12C14.7701 12.0001 12.4247 18.7961 12.3049 27.3154C7.64218 25.6692 4.30005 21.2263 4.30005 16C4.30005 9.37258 9.67263 4 16.3 4ZM25.9563 13.1426C26.8211 13.1426 27.5985 14.994 28.1409 17.9473C27.5972 21.2787 25.6828 24.1483 22.9944 25.959C23.0945 18.8036 24.3822 13.1426 25.9563 13.1426Z" fill="#FFBC0D"/>
</svg>
