<svg width="32" height="32" viewBox="0 0 32 32" fill="none" xmlns="http://www.w3.org/2000/svg">
<path fill-rule="evenodd" clip-rule="evenodd" d="M3 17.2188V23.1875C3 24.1885 3.81148 25 4.8125 25H15.625V18.5237C14.7494 19.2442 13.996 19.7636 13.3548 20.0842C12.4788 20.5222 11.3802 20.807 10.057 20.9492C9.57656 21.0008 9.14518 20.6532 9.09354 20.1727L9.00003 19.3027L9.87002 19.2092C11.0006 19.0877 11.902 18.854 12.5722 18.5189C13.0709 18.2696 13.7019 17.8355 14.4563 17.2188H3ZM17.375 25H27.1875C28.1885 25 29 24.1885 29 23.1875V17.2188H18.7426C19.4971 17.8355 20.1281 18.2696 20.6268 18.5189C21.2969 18.854 22.1984 19.0877 23.329 19.2092L24.1989 19.3027L24.1054 20.1727C24.0538 20.6532 23.6224 21.0008 23.1419 20.9492C21.8187 20.807 20.7202 20.5222 19.8441 20.0842C19.1549 19.7396 18.336 19.1652 17.375 18.3582V25ZM29 15.4688V8.8125C29 7.81148 28.1885 7 27.1875 7H17.375V11.3919C17.454 11.2826 17.5392 11.1821 17.6309 11.0904C18.9219 9.79944 21.0329 9.83431 22.3464 11.1478C23.5334 12.3348 23.6762 14.173 22.7402 15.4688H29ZM15.625 7V11.3919C15.546 11.2826 15.4608 11.1821 15.3691 11.0904C14.0781 9.79944 11.9671 9.83431 10.6536 11.1478C9.4666 12.3348 9.32375 14.173 10.2598 15.4688H3V8.8125C3 7.81148 3.81148 7 4.8125 7H15.625ZM18.8684 12.3278C18.5264 12.6698 18.3165 13.6276 18.3324 15.1619C19.8667 15.1777 20.8245 14.9679 21.1665 14.6259C21.7647 14.0277 21.7481 13.0244 21.109 12.3853C20.4699 11.7462 19.4666 11.7296 18.8684 12.3278ZM14.1316 12.3278C13.5334 11.7296 12.5301 11.7462 11.891 12.3853C11.2519 13.0244 11.2353 14.0277 11.8335 14.6259C12.1755 14.9679 13.1333 15.1777 14.6676 15.1619C14.6835 13.6276 14.4736 12.6698 14.1316 12.3278Z" fill="#FFBC0D"/>
</svg>
