<svg width="32" height="32" viewBox="0 0 32 32" fill="none" xmlns="http://www.w3.org/2000/svg">
<path fill-rule="evenodd" clip-rule="evenodd" d="M24.2727 5.5H8.72727C8.70073 5.5 8.65663 5.50874 8.60378 5.56551C8.54922 5.62411 8.5 5.72291 8.5 5.85533V25.9211L10.7628 24.1063C11.3724 23.6174 12.2368 23.6174 12.8464 24.1063L16.5983 27.1154L20.2481 24.1201C20.8632 23.6154 21.746 23.6154 22.361 24.1201L24.5 25.8755V5.85533C24.5 5.7229 24.4508 5.62411 24.3962 5.56551C24.3434 5.50874 24.2993 5.5 24.2727 5.5ZM26 5.85533C26 4.83066 25.2267 4 24.2727 4H8.72727C7.77333 4 7 4.83066 7 5.85533V28.6769C7 28.8296 7.16215 28.9169 7.27607 28.8256L11.7013 25.2765C11.7626 25.2273 11.8466 25.2273 11.9079 25.2765L16.5047 28.9631C16.5665 29.0127 16.6515 29.0122 16.7129 28.9619L21.1997 25.2797C21.2616 25.2288 21.3476 25.2288 21.4095 25.2797L25.7224 28.8192C25.8361 28.9124 26 28.8254 26 28.6717V5.85533Z" fill="#292929"/>
<path fill-rule="evenodd" clip-rule="evenodd" d="M10 9.8C10 9.35817 10.3582 9 10.8 9H21.2C21.6418 9 22 9.35817 22 9.8C22 10.2418 21.6418 10.6 21.2 10.6H10.8C10.3582 10.6 10 10.2418 10 9.8Z" fill="#292929"/>
<path fill-rule="evenodd" clip-rule="evenodd" d="M10 13.8C10 13.3582 10.3582 13 10.8 13H21.2C21.6418 13 22 13.3582 22 13.8C22 14.2418 21.6418 14.6 21.2 14.6H10.8C10.3582 14.6 10 14.2418 10 13.8Z" fill="#292929"/>
<path fill-rule="evenodd" clip-rule="evenodd" d="M10 17.8C10 17.3582 10.3582 17 10.8 17H18.2C18.6418 17 19 17.3582 19 17.8C19 18.2418 18.6418 18.6 18.2 18.6H10.8C10.3582 18.6 10 18.2418 10 17.8Z" fill="#292929"/>
</svg>
