<svg width="32" height="32" viewBox="0 0 32 32" fill="none" xmlns="http://www.w3.org/2000/svg">
<path fill-rule="evenodd" clip-rule="evenodd" d="M8.72727 4C7.77333 4 7 4.83066 7 5.85533V28.6769C7 28.8296 7.16215 28.9169 7.27607 28.8256L11.7013 25.2765C11.7626 25.2273 11.8466 25.2273 11.9079 25.2765L16.5047 28.9631C16.5665 29.0127 16.6515 29.0122 16.7129 28.9619L21.1997 25.2797C21.2616 25.2288 21.3476 25.2288 21.4095 25.2797L25.7224 28.8192C25.8361 28.9124 26 28.8254 26 28.6717V5.85533C26 4.83066 25.2267 4 24.2727 4H8.72727ZM10.8 9C10.3582 9 10 9.35817 10 9.8C10 10.2418 10.3582 10.6 10.8 10.6H21.2C21.6418 10.6 22 10.2418 22 9.8C22 9.35817 21.6418 9 21.2 9H10.8ZM10.8 13C10.3582 13 10 13.3582 10 13.8C10 14.2418 10.3582 14.6 10.8 14.6H21.2C21.6418 14.6 22 14.2418 22 13.8C22 13.3582 21.6418 13 21.2 13H10.8ZM10 17.8C10 17.3582 10.3582 17 10.8 17H18.2C18.6418 17 19 17.3582 19 17.8C19 18.2418 18.6418 18.6 18.2 18.6H10.8C10.3582 18.6 10 18.2418 10 17.8Z" fill="#FFBC0D"/>
</svg>
