<svg width="32" height="32" viewBox="0 0 32 32" fill="none" xmlns="http://www.w3.org/2000/svg">
<path fill-rule="evenodd" clip-rule="evenodd" d="M16 28C22.6274 28 28 22.6274 28 16C28 9.37258 22.6274 4 16 4C9.37258 4 4 9.37258 4 16C4 22.6274 9.37258 28 16 28ZM15.9 12C15.4789 12 15.1237 11.8544 14.8342 11.5632C14.5447 11.272 14.4 10.9176 14.4 10.5C14.4 10.0824 14.5447 9.72802 14.8342 9.43681C15.1237 9.1456 15.4789 9 15.9 9C16.321 9 16.6763 9.1456 16.9658 9.43681C17.2553 9.72802 17.4 10.0824 17.4 10.5C17.4 10.9176 17.2553 11.272 16.9658 11.5632C16.6763 11.8544 16.321 12 15.9 12ZM16.7501 21.3154C16.7501 22.0525 16.1526 22.65 15.4155 22.65H15.3337C15.1495 22.65 15.0001 22.5006 15.0001 22.3163V15.4346C15.0001 14.6975 15.5976 14.1 16.3347 14.1H16.4164C16.6007 14.1 16.7501 14.2494 16.7501 14.4336V21.3154Z" fill="#FFBC0D"/>
</svg>
