<svg width="32" height="32" viewBox="0 0 32 32" fill="none" xmlns="http://www.w3.org/2000/svg">
<path d="M15.4988 8.62109C17.3296 8.61391 19.1149 9.19281 20.5935 10.2725C22.0722 11.3522 23.1669 12.8769 23.7175 14.623C24.268 16.3691 24.2459 18.2461 23.6541 19.9785C23.0621 21.7108 21.9312 23.2088 20.4275 24.2529C20.4857 24.3014 20.535 24.3598 20.574 24.4248L21.4939 26.0674C21.5728 26.2121 21.5914 26.3827 21.5457 26.541C21.4998 26.6992 21.3926 26.8329 21.2488 26.9131C21.1574 26.9711 21.0504 27.0011 20.9421 26.999C20.8322 26.998 20.7243 26.9681 20.6296 26.9121C20.535 26.8562 20.457 26.7764 20.4031 26.6807L19.3484 25.0254C19.3156 24.9734 19.2944 24.9145 19.2869 24.8535C18.0827 25.4651 16.7507 25.7841 15.4001 25.7842C14.0497 25.7841 12.7184 25.465 11.5144 24.8535C11.5263 24.9099 11.5262 24.969 11.5144 25.0254L10.5945 26.6807C10.5428 26.7727 10.4683 26.8506 10.3787 26.9062C10.2888 26.9619 10.1854 26.9938 10.0798 26.999C9.97147 27.0011 9.8647 26.9712 9.77319 26.9131C9.62903 26.833 9.52226 26.6994 9.47632 26.541C9.43049 26.3826 9.44912 26.2121 9.52808 26.0674L10.447 24.4248C10.486 24.3599 10.5363 24.3014 10.5945 24.2529C9.09228 23.21 7.96248 21.7145 7.36987 19.9844C6.77742 18.2543 6.7532 16.3796 7.30054 14.6348C7.84802 12.89 8.93835 11.3648 10.4128 10.2832C11.8875 9.20171 13.67 8.61905 15.4988 8.62109ZM15.6824 11.6865C15.601 11.6865 15.5202 11.7029 15.4451 11.7344C15.3699 11.7659 15.301 11.8119 15.2439 11.8701C15.1869 11.9283 15.1421 11.9975 15.1121 12.0732C15.082 12.1489 15.0675 12.2301 15.0691 12.3115V17.2773C15.0717 17.3808 15.0998 17.4824 15.1511 17.5723C15.2024 17.6619 15.2754 17.7373 15.363 17.792C15.46 17.8592 15.5762 17.8941 15.6941 17.8906C15.779 17.9081 15.867 17.9081 15.9519 17.8906L18.7224 16.6641C18.8741 16.5945 18.9929 16.4684 19.0525 16.3125C19.112 16.1568 19.1081 15.9839 19.0417 15.8311C19.0145 15.7509 18.9704 15.6772 18.9138 15.6143C18.8572 15.5514 18.7885 15.5004 18.7117 15.4648C18.635 15.4294 18.552 15.4097 18.4675 15.4072C18.3831 15.4048 18.299 15.4193 18.2205 15.4502L16.3074 16.3086V12.2998C16.313 12.2168 16.3008 12.1334 16.2712 12.0557C16.2416 11.9779 16.1949 11.9079 16.1355 11.8496C16.0761 11.7914 16.0048 11.7458 15.9265 11.7178C15.8484 11.6899 15.765 11.6793 15.6824 11.6865ZM8.30933 5.01367C9.42114 4.92734 10.5282 5.24133 11.4285 5.89941C11.56 5.99894 11.6706 6.12447 11.7527 6.26758C11.8347 6.41067 11.8865 6.56962 11.906 6.7334C11.9176 6.8936 11.8937 7.05493 11.8367 7.20508C11.7795 7.3552 11.69 7.49145 11.575 7.60352L6.573 12.5811C6.36225 12.7839 6.08133 12.8986 5.78882 12.9004H5.69019C5.534 12.8824 5.38299 12.8312 5.2478 12.751C5.11285 12.6708 4.99647 12.5629 4.90601 12.4346C4.24624 11.5355 3.92913 10.4294 4.01343 9.31738C4.09785 8.20544 4.5772 7.15939 5.36499 6.37012C6.15276 5.58104 7.19767 5.10014 8.30933 5.01367ZM19.5691 5.89941C20.4691 5.24658 21.5732 4.93655 22.6814 5.02637C23.7897 5.11636 24.83 5.6001 25.613 6.38965C26.4105 7.16671 26.9029 8.20523 26.9998 9.31445C27.0964 10.4235 26.7911 11.5313 26.1404 12.4346C26.0447 12.5688 25.9199 12.6803 25.7761 12.7607C25.6321 12.8413 25.4711 12.8892 25.3064 12.9004H25.1716C25.0284 12.9006 24.8861 12.872 24.7537 12.8174C24.6212 12.7627 24.5006 12.6823 24.3992 12.5811L19.4216 7.60352C19.3064 7.49137 19.2171 7.35535 19.1599 7.20508C19.1028 7.05487 19.079 6.89367 19.0906 6.7334C19.1101 6.56956 19.1628 6.41071 19.2449 6.26758C19.327 6.1245 19.4375 5.99891 19.5691 5.89941Z" fill="#FFBC0D"/>
</svg>
