<svg width="32" height="32" viewBox="0 0 32 32" fill="none" xmlns="http://www.w3.org/2000/svg">
<path fill-rule="evenodd" clip-rule="evenodd" d="M26 13.5946C26 18.7824 19.8597 26.5273 17.2022 29.6363C16.5641 30.3829 15.4359 30.3829 14.7978 29.6363C12.1403 26.5273 6 18.7824 6 13.5946C6 10.669 6.97631 8.17181 8.92893 6.10308C10.8816 4.03436 13.2386 3 16 3C18.7614 3 21.1184 4.03436 23.0711 6.10308C25.0237 8.17181 26 10.669 26 13.5946ZM16 16C17.6569 16 19 14.6569 19 13C19 11.3431 17.6569 10 16 10C14.3431 10 13 11.3431 13 13C13 14.6569 14.3431 16 16 16Z" fill="#FFBC0D"/>
</svg>
