<svg width="32" height="32" viewBox="0 0 32 32" fill="none" xmlns="http://www.w3.org/2000/svg">
<path d="M16.25 5C18.7087 5.00007 20.6366 7.50909 22.0322 10.5479C21.2403 11.2506 20.0974 12.9788 19.5928 14.8125C18.8511 12.1138 17.7188 10.3908 16.4502 10.3906C14.2185 10.3906 12.4092 16.1307 12.4092 23.2119H14.2051C14.2051 16.6353 15.2107 11.3037 16.4502 11.3037C17.6896 11.3043 18.6943 16.2243 18.6943 22.2959H20.4902C20.4902 17.4792 21.5772 13.0443 22.4688 11.5518C22.6906 12.0948 22.8983 12.6465 23.0879 13.1982C24.3015 16.7311 25.0133 20.8987 22.708 23.8379C21.1965 25.7647 18.8651 27 16.25 27C13.6348 27 11.3035 25.7647 9.79199 23.8379C7.48657 20.8987 8.19754 16.7312 9.41113 13.1982C10.812 9.12005 13.0982 5 16.25 5Z" fill="#FFBC0D"/>
</svg>
