<svg width="32" height="32" viewBox="0 0 32 32" fill="none" xmlns="http://www.w3.org/2000/svg">
<path d="M15.5449 4C15.9011 4 16.2519 4.08668 16.5674 4.25195L24.7871 8.76953C25.1836 8.97784 25.5153 9.29135 25.7451 9.67578C25.9748 10.0601 26.0941 10.5005 26.0898 10.9482V20.3369C26.0953 20.7504 25.9947 21.1583 25.7988 21.5225C25.6029 21.8867 25.3179 22.1956 24.9697 22.4189L16.75 27.6426C16.3869 27.8758 15.9647 27.9999 15.5332 28C15.1015 28 14.6786 27.8759 14.3154 27.6426L6.12012 22.4189C5.77201 22.1956 5.48697 21.8867 5.29102 21.5225C5.09512 21.1583 4.99454 20.7504 5 20.3369V10.9482C4.9946 10.5017 5.11228 10.062 5.33984 9.67773C5.56747 9.29339 5.89672 8.97946 6.29102 8.76953L14.5225 4.25195C14.838 4.08667 15.1887 4.00001 15.5449 4ZM24.9375 10.2568C24.8034 10.0155 24.4982 9.92841 24.2568 10.0625L15.5 14.9277L6.74316 10.0625C6.5018 9.92841 6.19663 10.0155 6.0625 10.2568C5.92841 10.4982 6.01551 10.8034 6.25684 10.9375L15 15.7939V26C15 26.2761 15.2239 26.5 15.5 26.5C15.7761 26.5 16 26.2761 16 26V15.7939L24.7432 10.9375C24.9845 10.8034 25.0716 10.4982 24.9375 10.2568ZM19.6436 21.6387C19.2661 21.4197 18.6816 21.7723 18.292 22.4053C17.9025 23.0383 17.9149 23.7445 18.292 23.9639C18.6694 24.183 19.2539 23.8425 19.6436 23.1973C20.0332 22.5519 20.021 21.8578 19.6436 21.6387ZM24.5391 18.7285C24.1494 18.5093 23.5644 18.838 23.1748 19.4834C22.7853 20.1287 22.7853 20.8228 23.1748 21.042C23.5644 21.2612 24.1616 20.9325 24.5391 20.2871C24.9164 19.642 24.9162 18.9479 24.5391 18.7285ZM10.6377 18.833C10.2725 18.1881 9.63968 17.8477 9.27441 18.0664C8.90912 18.2856 8.90912 18.9797 9.27441 19.625C9.63973 20.2702 10.2724 20.6108 10.6377 20.3916C11.0028 20.1723 11.0151 19.4782 10.6377 18.833ZM19.6562 16.001C19.2788 15.7818 18.6816 16.1105 18.292 16.7559C17.9025 17.4011 17.9025 18.0952 18.292 18.3145C18.7182 18.5702 19.2666 18.2049 19.6562 17.5596C20.0458 16.9144 20.0335 16.2203 19.6562 16.001ZM24.5146 13.0664C24.1251 12.8473 23.5527 13.188 23.1631 13.833C22.7734 14.4784 22.7856 15.1724 23.1631 15.3916C23.5406 15.6107 24.125 15.2582 24.5146 14.625C24.9042 13.992 24.8919 13.2857 24.5146 13.0664ZM10.8027 8.40234C10.0723 8.4389 9.50019 8.79232 9.5 9.25488C9.5 9.71749 10.1329 10.0461 10.8633 10.0098C11.6058 9.98542 12.1905 9.57198 12.1787 9.13379C12.1665 8.69544 11.5333 8.36581 10.8027 8.40234ZM20.9707 8.30273C20.228 8.33933 19.6436 8.71697 19.668 9.15527C19.6925 9.59353 20.3013 9.88573 21.0439 9.88574C21.7867 9.86139 22.371 9.47155 22.3467 9.0332C22.3222 8.59493 21.7134 8.26621 20.9707 8.30273Z" fill="#FFBC0D"/>
</svg>
