<svg width="32" height="32" viewBox="0 0 32 32" fill="none" xmlns="http://www.w3.org/2000/svg">
<path d="M16.0005 5.84082C21.6108 5.84105 26.1587 10.3896 26.1587 16C26.1585 21.6102 21.6107 26.158 16.0005 26.1582C10.3901 26.1582 5.84154 21.6103 5.84131 16C5.84131 10.3895 10.39 5.84082 16.0005 5.84082ZM16.0005 9.79492C14.3549 9.79492 12.7764 10.4487 11.6128 11.6123C10.4492 12.7759 9.79541 14.3544 9.79541 16C9.79552 17.6454 10.4493 19.2232 11.6128 20.3867C12.7764 21.5503 14.3549 22.2041 16.0005 22.2041C17.6459 22.204 19.2237 21.5502 20.3872 20.3867C21.5507 19.2232 22.2045 17.6454 22.2046 16C22.2046 14.3544 21.5508 12.7759 20.3872 11.6123C19.2237 10.4488 17.6459 9.79504 16.0005 9.79492Z" stroke="#292929" stroke-width="1.5"/>
<path d="M16.1194 19.2726C15.5269 19.2726 15.0146 19.1136 14.5841 18.7956C14.1536 18.4776 13.8979 18.0253 13.8184 17.4388H15.0191C15.0739 17.6833 15.1976 17.8791 15.3904 18.0253C15.5831 18.1716 15.8261 18.2451 16.1194 18.2451C16.4861 18.2451 16.7794 18.1333 16.9991 17.9106C17.2189 17.6878 17.3291 17.4021 17.3291 17.0533C17.3291 16.7173 17.2219 16.4391 17.0081 16.2193C16.7944 15.9996 16.5101 15.8893 16.1554 15.8893C15.6664 15.8893 15.3116 16.0761 15.0919 16.4488H13.9279L14.5331 12.7266H17.9801V13.7353H15.5321L15.2666 15.2751C15.5539 15.0058 15.9574 14.8716 16.4764 14.8716C17.0816 14.8716 17.5811 15.0673 17.9749 15.4581C18.3686 15.8488 18.5659 16.3686 18.5659 17.0166C18.5659 17.6518 18.3349 18.1866 17.8736 18.6208C17.4124 19.0551 16.8274 19.2718 16.1179 19.2718L16.1194 19.2726Z" fill="#292929"/>
</svg>
