<svg width="32" height="32" viewBox="0 0 32 32" fill="none" xmlns="http://www.w3.org/2000/svg">
<path d="M9.4547 6.77646V6.27321H8.36345V6.52521L9.4547 6.77646ZM11.6364 7.27971V6.27246H10.5452V7.02771L11.6364 7.27971ZM12.7269 6.27321H13.8182V7.36446H12.7269V6.27321ZM17.0912 6.27321H18.1824V7.36446H17.0912V6.27321ZM21.4547 6.27321H22.546V7.36446H21.4547V6.27321ZM14.9087 6.27321H15.9999V7.36446H14.9087V6.27321ZM19.273 6.27321H20.3642V7.36446H19.273V6.27321ZM23.6364 6.27321H24.7277V7.36446H23.6364V6.27321ZM23.6364 12.8185H24.7277V13.9097H23.6364V12.8185ZM23.6364 19.3637H24.7277V20.455H23.6364V19.3637ZM23.6364 8.45496H24.7277V9.54621H23.6364V8.45496ZM23.6364 15.0002H24.7277V16.0915H23.6364V15.0002ZM23.6364 21.5455H24.7277V22.6367H23.6364V21.5455ZM23.6364 10.6367H24.7277V11.728H23.6364V10.6367ZM23.6364 17.182H24.7277V18.2732H23.6364V17.182ZM21.4547 21.5455H22.546V22.6367H21.4547V21.5455ZM7.27295 7.36371L20.2472 10.3577V25.6285L7.27295 22.6345V7.36371ZM13.3292 19.2505L10.6967 18.6475L12.4314 16.303C12.8859 15.6962 13.2212 15.1075 13.2212 14.092C13.2212 13.426 13.1132 12.8822 12.6827 12.355C12.4554 12.0775 12.0842 11.755 11.4264 11.6042C10.8399 11.47 10.4094 11.5855 10.1582 11.776C9.81095 12.046 9.7277 12.49 9.7277 13.1665V14.1595L10.6967 14.3815V13.4672C10.6967 13.027 10.6967 12.3505 11.4504 12.523C12.2162 12.6985 12.2282 13.423 12.2282 13.7845C12.2282 14.6417 12.097 14.9275 11.3784 15.9257L9.6317 18.3122V19.2602L13.3292 20.107V19.2505ZM17.1459 19.1995L17.8877 19.3697V18.5237L17.1459 18.3535V13.0052L15.6744 12.6677L13.9637 17.3755V18.4697L16.1537 18.9715V20.7542L17.1467 20.9815V19.1987L17.1459 19.1995ZM14.7527 17.8052L16.2002 13.6915L16.1522 18.1262L14.7527 17.8052Z" fill="#FFBC0D"/>
</svg>
