<svg width="32" height="32" viewBox="0 0 32 32" fill="none" xmlns="http://www.w3.org/2000/svg">
<path d="M27.8791 16.2073C27.6625 15.5385 27.2044 14.9744 26.5941 14.6253C26.5361 14.5933 26.5331 14.5153 26.5331 14.5153C25.8071 9.46232 21.4031 5.65332 16.2931 5.65332C11.2291 5.65332 6.86709 9.39432 6.08009 14.3753C5.81409 14.4443 5.58009 14.5253 5.40509 14.6263C4.75805 14.9985 4.28378 15.6108 4.08509 16.3303C4.00084 16.6366 3.97815 16.9566 4.01831 17.2717C4.05848 17.5869 4.16071 17.8909 4.31909 18.1663C4.63609 18.7193 5.15909 19.1183 5.79609 19.2913C6.02409 19.3533 6.26009 19.3843 6.49609 19.3843L6.51809 19.3823C7.21813 21.4173 8.53666 23.1827 10.2893 24.4315C12.0419 25.6803 14.1411 26.3501 16.2931 26.3473C18.4595 26.3513 20.5722 25.6733 22.3318 24.4096C24.0914 23.1459 25.4088 21.3605 26.0971 19.3063C26.1321 19.2983 26.1691 19.3013 26.2031 19.2913C26.5109 19.2113 26.7997 19.0711 27.0531 18.8789C27.3064 18.6867 27.5192 18.4462 27.6791 18.1713C28.0211 17.5813 28.0931 16.8843 27.8791 16.2073ZM16.2931 6.70132C20.7511 6.70132 24.5991 9.92732 25.4201 14.2663C23.9791 14.0143 21.9771 14.0603 21.4821 14.0773C21.3931 14.0801 21.3062 14.1056 21.2298 14.1513C21.1534 14.1969 21.0898 14.2614 21.0452 14.3384C21.0005 14.4155 20.9763 14.5027 20.9747 14.5917C20.9731 14.6807 20.9942 14.7687 21.0361 14.8473C21.1891 15.1343 21.6611 15.9963 22.2321 16.8713C22.1019 16.8507 21.9693 16.8507 21.8391 16.8713C20.9841 17.0053 18.9831 17.3173 16.0321 17.3173C13.0251 17.3173 10.9591 16.9883 10.1721 16.8633C10.0382 16.838 9.90071 16.8386 9.76709 16.8653C10.1914 16.2086 10.5891 15.5351 10.9591 14.8463C11.0009 14.7679 11.022 14.6801 11.0205 14.5912C11.019 14.5023 10.9949 14.4153 10.9505 14.3382C10.9061 14.2612 10.8429 14.1968 10.7667 14.151C10.6905 14.1051 10.6039 14.0795 10.5151 14.0763C10.0871 14.0623 8.52709 14.0273 7.18009 14.1813C8.03809 9.88632 11.8641 6.70132 16.2931 6.70132ZM21.7691 17.9443C21.4381 20.6553 18.9771 22.7373 16.0351 22.7373C13.0931 22.7373 10.6331 20.6543 10.3001 17.9443C11.2571 18.0923 13.2561 18.3663 16.0341 18.3663C18.7621 18.3663 20.7021 18.1063 21.7691 17.9443ZM6.06909 18.2803C5.89323 18.2353 5.72811 18.1557 5.58336 18.0462C5.43862 17.9366 5.31716 17.7993 5.22609 17.6423C5.13653 17.4853 5.07909 17.3121 5.05712 17.1327C5.03514 16.9533 5.04907 16.7713 5.09809 16.5973C5.21209 16.1613 5.51609 15.7743 5.92809 15.5333C6.47309 15.2193 8.22309 15.1143 9.61309 15.1113C8.91609 16.3133 7.95109 17.7763 7.40709 18.0903C7.0039 18.3274 6.52238 18.3957 6.06909 18.2803ZM16.2931 25.2993C14.3801 25.3016 12.5133 24.7125 10.9481 23.6126C9.38298 22.5127 8.19612 20.9559 7.55009 19.1553C7.67809 19.1043 7.81009 19.0673 7.93009 18.9983C8.32709 18.7693 8.78509 18.2473 9.22509 17.6493C9.22509 17.6733 9.22509 17.7013 9.22709 17.7193C9.44609 21.1203 12.4361 23.7843 16.0341 23.7843C19.6281 23.7843 22.6121 21.1283 22.8401 17.7343C23.2601 18.2953 23.6921 18.7803 24.0701 18.9983C24.3541 19.1613 24.6631 19.2543 24.9761 19.3133C24.3086 21.0753 23.1201 22.592 21.5688 23.6614C20.0175 24.7309 18.1772 25.3022 16.2931 25.2993ZM26.7711 17.6463C26.5941 17.9563 26.2951 18.1813 25.9301 18.2803C25.477 18.3957 24.9968 18.3281 24.5931 18.0923C24.0491 17.7773 23.0821 16.3143 22.3861 15.1123C23.7751 15.1153 25.5251 15.2203 26.0681 15.5333C26.4631 15.7633 26.7501 16.1153 26.8801 16.5243C27.0041 16.9143 26.9671 17.3123 26.7711 17.6463Z" fill="#292929"/>
<path d="M9.96005 13.3385C9.86795 13.3384 9.77764 13.313 9.69909 13.2649C9.62054 13.2168 9.55681 13.1479 9.51492 13.0659C9.47302 12.9839 9.4546 12.8919 9.46169 12.8C9.46877 12.7082 9.50108 12.6201 9.55505 12.5455C9.99005 11.9455 11.0231 11.4825 12.1281 11.3935C13.2501 11.3275 14.336 11.6415 14.848 12.1755C14.8936 12.2228 14.9293 12.2787 14.9532 12.3398C14.9771 12.401 14.9888 12.4662 14.9875 12.5319C14.9862 12.5975 14.972 12.6623 14.9456 12.7224C14.9193 12.7826 14.8814 12.837 14.834 12.8825C14.7867 12.928 14.7309 12.9637 14.6697 12.9876C14.6086 13.0116 14.5433 13.0232 14.4776 13.0219C14.412 13.0206 14.3472 13.0064 14.2871 12.9801C14.2269 12.9537 14.1726 12.9158 14.127 12.8685C13.863 12.5925 13.077 12.3415 12.197 12.3905C11.34 12.4605 10.59 12.8215 10.367 13.1315C10.3206 13.1957 10.2596 13.2479 10.189 13.2839C10.1184 13.3199 10.0393 13.3386 9.96005 13.3385ZM21.962 13.3385C22.0541 13.3383 22.1443 13.3127 22.2228 13.2646C22.3012 13.2165 22.3649 13.1477 22.4069 13.0658C22.4488 12.9839 22.4674 12.892 22.4606 12.8002C22.4537 12.7084 22.4217 12.6203 22.368 12.5455C21.933 11.9455 20.9 11.4825 19.796 11.3935C18.673 11.3275 17.586 11.6415 17.075 12.1755C17.0267 12.2221 16.9882 12.2781 16.962 12.34C16.9358 12.4018 16.9223 12.4684 16.9223 12.5356C16.9224 12.6028 16.936 12.6693 16.9623 12.7311C16.9886 12.793 17.0271 12.8488 17.0756 12.8955C17.124 12.9421 17.1813 12.9784 17.2441 13.0024C17.3069 13.0263 17.3739 13.0374 17.441 13.0349C17.5082 13.0323 17.5742 13.0163 17.635 12.9877C17.6958 12.9591 17.7503 12.9186 17.795 12.8685C18.061 12.5925 18.847 12.3415 19.727 12.3905C20.583 12.4605 21.333 12.8215 21.557 13.1315C21.6034 13.1955 21.6642 13.2477 21.7346 13.2837C21.8051 13.3197 21.883 13.3384 21.962 13.3385Z" fill="#292929"/>
</svg>
