<svg width="32" height="32" viewBox="0 0 32 32" fill="none" xmlns="http://www.w3.org/2000/svg">
<circle cx="16" cy="16" r="12" fill="#FFBC0D"/>
<path fill-rule="evenodd" clip-rule="evenodd" d="M5 16C5 22.0789 9.9 27 16 27C22.1 27 27 22.0789 27 16C27 9.92105 22.1 5 16 5C9.9 5 5 9.92105 5 16ZM5.2 16C5.2 10.0175 10.1 5.19298 16 5.19298C22 5.19298 26.8 10.0175 26.8 16C26.8 21.9825 22 26.807 16 26.807C10 26.807 5.2 21.9825 5.2 16Z" fill="#292929"/>
<mask id="mask0_5840_2103" style="mask-type:luminance" maskUnits="userSpaceOnUse" x="5" y="12" width="3" height="3">
<path d="M6.80005 14.1665V14.07C6.80005 14.07 6.70005 14.07 6.70005 13.9735L6.00005 13.6841H5.90005C5.90005 13.6841 5.90005 13.7806 5.80005 13.7806L5.90005 13.3946L6.70005 13.2981L6.10005 12.8157L6.20005 12.4297V12.5262L6.30005 12.6227L7.00005 12.8157H7.10005C7.10005 12.8157 7.10005 12.7192 7.20005 12.7192L7.10005 13.2981V13.2016L7.00005 13.1051L6.20005 12.8157L7.00005 13.3946L6.00005 13.4911L6.70005 13.6841H6.80005C6.80005 13.6841 6.90005 13.6841 6.90005 13.5876L6.80005 14.1665Z" fill="white"/>
</mask>
<g mask="url(#mask0_5840_2103)">
<path d="M5.19995 11.9473H7.79995V14.7455H5.19995V11.9473Z" fill="#292929"/>
</g>
<mask id="mask1_5840_2103" style="mask-type:luminance" maskUnits="userSpaceOnUse" x="7" y="9" width="2" height="2">
<path d="M8.20005 10.3073L8.00005 9.92131L8.40005 10.0178L8.20005 10.3073ZM8.30005 10.6932L8.50005 10.4038C8.50005 10.4038 8.50005 10.5003 8.40005 10.5003H8.30005L8.20005 10.4038C8.20005 10.4038 8.20005 10.3073 8.10005 10.3073L8.30005 10.0178H8.50005V10.1143C8.50005 10.1143 8.50005 10.2108 8.40005 10.2108L9.00005 9.92131C9.00005 9.92131 9.00005 10.0178 8.90005 9.92131H8.70005L7.80005 9.63184L8.30005 10.4038C8.30005 10.5003 8.40005 10.5003 8.40005 10.5003C8.30005 10.5967 8.30005 10.6932 8.30005 10.6932Z" fill="white"/>
</mask>
<g mask="url(#mask1_5840_2103)">
<path d="M7.19995 9.05273H9.49995V11.272H7.19995V9.05273Z" fill="#292929"/>
</g>
<mask id="mask2_5840_2103" style="mask-type:luminance" maskUnits="userSpaceOnUse" x="10" y="7" width="2" height="2">
<path d="M10.8999 8.18426C10.9999 8.08777 10.9999 8.08777 10.9999 7.99128L10.5999 7.41233L10.4999 7.31584H10.3999L10.8999 7.02637C10.7999 7.02637 10.7999 7.12286 10.7999 7.12286V7.21935L11.1999 7.89479H11.3999C11.4999 7.89479 11.4999 7.7983 11.5999 7.70181C11.5999 7.60531 11.6999 7.50882 11.5999 7.41233L11.6999 7.7983L10.8999 8.18426Z" fill="white"/>
</mask>
<g mask="url(#mask2_5840_2103)">
<path d="M9.7998 6.44727H12.2998V8.76306H9.7998V6.44727Z" fill="#292929"/>
</g>
<mask id="mask3_5840_2103" style="mask-type:luminance" maskUnits="userSpaceOnUse" x="13" y="5" width="2" height="2">
<path d="M14.4999 6.44711L14.2999 6.06115L14.1999 6.44711H14.4999ZM13.8999 6.92957C13.9999 6.83308 13.9999 6.92957 13.8999 6.92957L14.0999 6.73659L14.2999 5.86816L14.7999 6.64009C14.8999 6.73659 14.8999 6.73659 14.8999 6.83308H14.9999L14.4999 6.92957H14.5999V6.73659L14.4999 6.64009L14.1999 6.73659V6.92957H14.3999H13.8999Z" fill="white"/>
</mask>
<g mask="url(#mask3_5840_2103)">
<path d="M13.3999 5.19238H15.5999V7.41168H13.3999V5.19238Z" fill="#292929"/>
</g>
<mask id="mask4_5840_2103" style="mask-type:luminance" maskUnits="userSpaceOnUse" x="17" y="5" width="2" height="3">
<path d="M18.2 5.96484H18.1V6.06133L18.2 6.4473L18.4 6.25432V5.96484H18.3L18.7 6.06133H18.5L18.1 6.4473V6.92976L18.2 7.02625L17.7 6.92976H17.8L17.9 6.83326L18 6.64028L17.8 6.06133V5.96484H17.7H18.2Z" fill="white"/>
</mask>
<g mask="url(#mask4_5840_2103)">
<path d="M17.0999 5.28906H19.2999V7.60485H17.0999V5.28906Z" fill="#292929"/>
</g>
<mask id="mask5_5840_2103" style="mask-type:luminance" maskUnits="userSpaceOnUse" x="20" y="7" width="2" height="2">
<path d="M20.9999 7.79807V8.08755C20.9999 8.18404 21.0999 8.18404 21.0999 8.28053C21.1999 8.28053 21.1999 8.37702 21.2999 8.28053C21.2999 8.28053 21.3999 8.28053 21.3999 8.18404V8.08755C21.3999 8.08755 21.3999 7.99106 21.2999 7.99106L21.1999 7.89457C21.0999 7.79807 21.0999 7.70158 21.0999 7.70158C21.0999 7.60509 21.0999 7.60509 21.1999 7.5086C21.1999 7.41211 21.2999 7.41211 21.3999 7.41211C21.4999 7.41211 21.5999 7.41211 21.6999 7.5086L21.7999 7.60509L21.8999 7.70158L21.6999 7.99106V7.79807C21.6999 7.70158 21.6999 7.70158 21.5999 7.60509H21.4999C21.4999 7.60509 21.3999 7.60509 21.3999 7.70158V7.79807C21.3999 7.79807 21.3999 7.89457 21.4999 7.99106L21.5999 8.08755C21.5999 8.18404 21.5999 8.18404 21.6999 8.28053C21.6999 8.37702 21.6999 8.47351 21.5999 8.47351C21.5999 8.57 21.4999 8.57 21.3999 8.57C21.2999 8.57 21.1999 8.57 21.0999 8.47351C21.0999 8.47351 20.9999 8.47351 20.9999 8.37702C20.9999 8.37702 20.9999 8.28053 20.8999 8.28053L20.9999 7.79807Z" fill="white"/>
</mask>
<g mask="url(#mask5_5840_2103)">
<path d="M20.2 6.73633H22.5V8.95563H20.2V6.73633Z" fill="#292929"/>
</g>
<mask id="mask6_5840_2103" style="mask-type:luminance" maskUnits="userSpaceOnUse" x="23" y="9" width="2" height="2">
<path d="M23.2 10.2108C23.3 10.2108 23.3 10.2108 23.2 10.2108C23.3 10.3073 23.3 10.3073 23.4 10.3073L24 9.82482L24.1 9.72833V9.63184L24.4 10.1143L24.3 10.0178H24.2L23.6 10.5003C23.6 10.5003 23.5 10.5967 23.6 10.5967V10.6932L23.2 10.2108Z" fill="white"/>
</mask>
<g mask="url(#mask6_5840_2103)">
<path d="M22.5999 9.05273H24.8999V11.272H22.5999V9.05273Z" fill="#292929"/>
</g>
<mask id="mask7_5840_2103" style="mask-type:luminance" maskUnits="userSpaceOnUse" x="24" y="12" width="2" height="2">
<path d="M25.2 13.2022L25.5 12.9127H25.1L25.2 13.2022ZM24.7 12.7197C24.8 12.8162 24.8 12.8162 24.9 12.8162L25.8 12.9127L25.1 13.4917C25 13.5881 25 13.5881 24.9 13.5881V13.6846L24.8 13.2022V13.2987H25L25.1 13.2022L25 12.8162H24.8V13.0092L24.7 12.7197Z" fill="white"/>
</mask>
<g mask="url(#mask7_5840_2103)">
<path d="M24.0999 12.1406H26.3999V14.2634H24.0999V12.1406Z" fill="#292929"/>
</g>
<mask id="mask8_5840_2103" style="mask-type:luminance" maskUnits="userSpaceOnUse" x="7" y="7" width="18" height="18">
<path d="M16 7.21973C11.1 7.21973 7.19995 11.1759 7.19995 16.0004C7.19995 20.9215 11.2 24.7811 16 24.7811C20.9 24.7811 24.8 20.825 24.8 16.0004C24.8 11.1759 20.9 7.21973 16 7.21973ZM21.8 18.4127V21.7899H18.4L16 24.2022L13.6 21.7899H10.2V18.4127L7.79995 16.0004L10.2 13.5881V10.211H13.6L16 7.79867L18.4 10.211H21.8V13.5881L24.2 16.0004L21.8 18.4127Z" fill="white"/>
</mask>
<g mask="url(#mask8_5840_2103)">
<path d="M6.59985 6.64062H25.3999V25.3599H6.59985V6.64062Z" fill="#292929"/>
</g>
<mask id="mask9_5840_2103" style="mask-type:luminance" maskUnits="userSpaceOnUse" x="5" y="15" width="2" height="2">
<path d="M6.2001 16.193L6.5001 16.4825L6.4001 16.0965L6.7001 15.9035H6.3001L6.2001 15.5176L6.1001 15.9035H5.6001L6.0001 16.0965L5.9001 16.4825L6.2001 16.193Z" fill="white"/>
</mask>
<g mask="url(#mask9_5840_2103)">
<path d="M5.1001 14.9385H7.3001V16.9648H5.1001V14.9385Z" fill="#292929"/>
</g>
<mask id="mask10_5840_2103" style="mask-type:luminance" maskUnits="userSpaceOnUse" x="25" y="15" width="2" height="2">
<path d="M25.7 16.193L26.1 16.4825L26 16.0965L26.3 15.9035H25.9L25.8 15.5176L25.6 15.9035H25.2L25.5 16.0965L25.4 16.4825L25.7 16.193Z" fill="white"/>
</mask>
<g mask="url(#mask10_5840_2103)">
<path d="M24.5999 14.9385H26.7999V16.9648H24.5999V14.9385Z" fill="#292929"/>
</g>
<mask id="mask11_5840_2103" style="mask-type:luminance" maskUnits="userSpaceOnUse" x="10" y="11" width="4" height="8">
<path d="M10.6 16.9652C10.6 16.9652 10.8 17.7372 12.5 17.4477C12.8 17.3512 13.2 17.2547 13.3 16.9652C13.5 16.5793 13.3 16.0968 13.3 15.7108C13.2 15.1319 13.2 14.5529 13.1 13.8775C13.1 13.588 13 13.2986 13 13.0091V12.6231L12.9 12.3336L13.3 11.6582C13.3 11.6582 13.3 11.9477 13.6 12.2371C13.6 12.2371 13.8 12.4301 13.8 12.5266C13.8 12.5266 13.5 13.0091 13.5 13.2021C13.6 13.781 13.6 14.36 13.7 14.9389C13.8 15.7108 13.9 16.4828 13.5 17.2547C13.5 17.2547 13.3 17.9301 12.1 18.2196C11.6 18.3161 11 18.3161 10.6 17.9301C10.4 17.7372 10.3 17.4477 10.2 17.2547C10.2 16.9652 10.2 16.5793 10.3 16.2898C10.4 16.1933 10.4 16.0003 10.5 15.8073C10.5 15.7108 10.6 15.6143 10.6 15.5179L10.7 15.3249C10.8 15.3249 10.8 15.5179 10.8 15.5179C10.8 15.6143 10.7 15.8073 10.7 15.9038C10.6 16.2898 10.5 16.6757 10.6 16.9652Z" fill="white"/>
</mask>
<g mask="url(#mask11_5840_2103)">
<path d="M9.59985 11.0791H14.2999V18.7984H9.59985V11.0791Z" fill="#292929"/>
</g>
<mask id="mask12_5840_2103" style="mask-type:luminance" maskUnits="userSpaceOnUse" x="13" y="13" width="3" height="4">
<path d="M13.8999 13.2021V13.2986C13.8999 13.5881 13.8999 13.7811 13.9999 13.9741C14.0999 14.0706 14.0999 14.1671 14.2999 14.2636C14.2999 14.2636 14.6999 14.553 14.7999 14.553C14.7999 14.553 14.8999 14.553 14.8999 14.4565C14.8999 14.4565 15.4999 14.8425 15.6999 15.7109C15.6999 15.7109 15.7999 16.1934 15.8999 16.1934C15.8999 16.1934 16.0999 15.2285 15.4999 14.36C15.1999 13.9741 14.9999 13.5881 14.5999 13.2986C14.3999 13.2986 14.0999 13.2021 13.8999 13.2021Z" fill="white"/>
</mask>
<g mask="url(#mask12_5840_2103)">
<path d="M13.2998 12.623H16.4998V16.7722H13.2998V12.623Z" fill="#292929"/>
</g>
<mask id="mask13_5840_2103" style="mask-type:luminance" maskUnits="userSpaceOnUse" x="13" y="12" width="10" height="7">
<path d="M15.2 17.061C16.2 16.3856 16.5 15.2277 16.5 15.2277C16.7 14.3593 17 12.8154 17 12.8154C17 12.6224 17.1 12.4294 17.2 12.7189C17.3 12.9119 17.4 13.2014 17.4 13.3943C17.5 14.0698 17.5 14.7452 17.5 15.4207C17.6 16.675 18 16.675 18 16.675C18.3 16.0961 18.7 15.4207 19.4 15.3242C19.9 15.3242 20.6 15.5171 21 15.8066C21.5 16.0961 22.6 16.2891 22.6 16.2891L22.1 16.9645C21.5 16.675 19.6 17.447 19.6 17.447C19.4 17.5435 19.1 17.64 18.8 17.64C18.2 17.64 17.5 17.3505 17.4 16.675C17.3 16.0961 17.2 15.6136 17.2 15.0347V14.0698C17.2 13.9733 17.1 13.9733 17.1 14.0698C17 14.1663 17.1 14.3593 17.1 14.4557C17.1 14.5522 17.1 14.7452 17 14.8417C17 15.0347 16.9 15.2277 16.9 15.4207C16.6 17.447 15.1 17.7364 15.1 17.7364C12.8 18.3154 13.1 18.1224 13.1 18.1224C14 17.8329 15.2 17.061 15.2 17.061ZM18.3 16.7715C18.5 16.868 18.9 16.868 18.9 16.868C20 16.7715 20.6 16.4821 20.6 16.4821C20.5 16.3856 19.7 16.0961 19.7 16.0961C18.8 15.8066 18.3 16.675 18.3 16.675C18.2 16.7715 18.3 16.7715 18.3 16.7715Z" fill="white"/>
</mask>
<g mask="url(#mask13_5840_2103)">
<path d="M12.3999 12.0439H23.0999V18.7983H12.3999V12.0439Z" fill="#292929"/>
</g>
<mask id="mask14_5840_2103" style="mask-type:luminance" maskUnits="userSpaceOnUse" x="12" y="18" width="2" height="2">
<path d="M12.8 19.5698C12.9 19.5698 12.9 19.5698 12.9 19.4733V18.7979H12.8H13.2H13.1V19.1838H13.4V18.7979H13.3H13.8H13.7V19.5698H13.8H13.3H13.4V19.1838H13.1V19.5698H13.2H12.8Z" fill="white"/>
</mask>
<g mask="url(#mask14_5840_2103)">
<path d="M12.2 18.2188H14.3V20.1486H12.2V18.2188Z" fill="#292929"/>
</g>
<mask id="mask15_5840_2103" style="mask-type:luminance" maskUnits="userSpaceOnUse" x="14" y="18" width="2" height="2">
<path d="M14.5 19.2811L14.6 18.9916L14.7 19.2811H14.5ZM14.3 19.5706H14.6H14.5V19.3776H14.8V19.5706H14.7H15.1H15C15 19.5706 15 19.4741 14.9 19.3776L14.6 18.7021L14.3 19.3776C14.4 19.4741 14.4 19.4741 14.3 19.5706Z" fill="white"/>
</mask>
<g mask="url(#mask15_5840_2103)">
<path d="M13.7 18.123H15.7V20.0529H13.7V18.123Z" fill="#292929"/>
</g>
<mask id="mask16_5840_2103" style="mask-type:luminance" maskUnits="userSpaceOnUse" x="15" y="18" width="2" height="2">
<path d="M15.7 19.5698C15.8 19.5698 15.8 19.5698 15.8 19.4733V18.7979H15.7H16.1H16V19.5698H16.3C16.4 19.5698 16.4 19.4733 16.4 19.3768V19.5698H15.7Z" fill="white"/>
</mask>
<g mask="url(#mask16_5840_2103)">
<path d="M15.0999 18.2188H17.0999V20.1486H15.0999V18.2188Z" fill="#292929"/>
</g>
<mask id="mask17_5840_2103" style="mask-type:luminance" maskUnits="userSpaceOnUse" x="17" y="18" width="1" height="2">
<path d="M17.5 19.2811L17.4 18.9916L17.3 19.2811H17.5ZM17 19.5706C17.1 19.4741 17.1 19.4741 17.1 19.3776L17.4 18.7021L17.7 19.3776C17.7 19.4741 17.8 19.4741 17.8 19.4741H17.9H17.5H17.6V19.2811H17.3V19.4741H17.4L17 19.5706Z" fill="white"/>
</mask>
<g mask="url(#mask17_5840_2103)">
<path d="M16.3999 18.123H18.3999V20.0529H16.3999V18.123Z" fill="#292929"/>
</g>
<mask id="mask18_5840_2103" style="mask-type:luminance" maskUnits="userSpaceOnUse" x="18" y="18" width="2" height="2">
<path d="M18.3999 19.5698C18.4999 19.5698 18.4999 19.5698 18.4999 19.4733V18.7979H18.3999H18.8999H18.7999V19.5698H19.0999C19.1999 19.5698 19.1999 19.4733 19.1999 19.3768V19.6663L18.3999 19.5698Z" fill="white"/>
</mask>
<g mask="url(#mask18_5840_2103)">
<path d="M17.7998 18.2188H19.6998V20.1486H17.7998V18.2188Z" fill="#292929"/>
</g>
<mask id="mask19_5840_2103" style="mask-type:luminance" maskUnits="userSpaceOnUse" x="12" y="24" width="3" height="3">
<path d="M12.1 24.6846C12.1 24.6846 12.2 24.4916 12.2 24.3951C12.2 24.2986 12.3 24.2021 12.3 24.2021V24.3951L12.1 24.6846C12.2 24.7811 12.1 25.1671 12.2 25.1671C12.2 25.1671 12.5 25.4565 13.3 25.6495C13.5 25.746 13.7 25.746 13.9 25.746H14.1C14.1 25.746 14.2 25.6495 14.1 25.6495L14.2 25.4565C14.2 25.4565 14.3 25.553 14.3 25.746C14.3 25.746 14.2 26.0355 14 26.0355H13.8C13.6 26.0355 13.3 25.939 13.1 25.939C12.9 25.8425 12.7 25.8425 12.5 25.746C12.3 25.6495 12.2 25.6495 12.1 25.553L12 25.4565V25.36C12 25.36 12 25.2636 12.1 25.0706V24.6846Z" fill="white"/>
</mask>
<g mask="url(#mask19_5840_2103)">
<path d="M11.3 23.7197H14.8V26.518H11.3V23.7197Z" fill="#292929"/>
</g>
<mask id="mask20_5840_2103" style="mask-type:luminance" maskUnits="userSpaceOnUse" x="12" y="25" width="2" height="2">
<path d="M12.6001 25.9383L12.7001 25.8418H12.8001C12.8001 25.8418 12.8001 25.9383 12.9001 25.9383H13.0001C13.0001 25.9383 13.1001 25.9383 13.1001 25.8418H13.2001L13.3001 25.9383C13.3001 25.9383 13.3001 26.0348 13.2001 26.0348C13.2001 26.0348 13.1001 26.1313 13.1001 26.0348V25.9383L13.0001 25.8418H12.7001C12.7001 26.0348 12.7001 26.0348 12.6001 25.9383Z" fill="white"/>
</mask>
<g mask="url(#mask20_5840_2103)">
<path d="M12.1001 25.2627H13.8001V26.7101H12.1001V25.2627Z" fill="#292929"/>
</g>
<mask id="mask21_5840_2103" style="mask-type:luminance" maskUnits="userSpaceOnUse" x="14" y="25" width="1" height="1">
<path d="M14.8 25.167L14.9 25.36L14.8 25.4565L14.7 25.36L14.8 25.167Z" fill="white"/>
</mask>
<g mask="url(#mask21_5840_2103)">
<path d="M14.0999 24.6846H15.4999V26.1319H14.0999V24.6846Z" fill="#292929"/>
</g>
<mask id="mask22_5840_2103" style="mask-type:luminance" maskUnits="userSpaceOnUse" x="15" y="26" width="1" height="1">
<path d="M15.2001 26.325C15.3001 26.325 15.3001 26.325 15.2001 26.325C15.3001 26.4215 15.3001 26.4215 15.4001 26.4215V26.325C15.4001 26.325 15.4001 26.2285 15.5001 26.2285H15.7001V26.325H15.6001L15.5001 26.2285L15.4001 26.325C15.4001 26.325 15.4001 26.4215 15.3001 26.4215C15.3001 26.4215 15.2001 26.4215 15.2001 26.325C15.2001 26.325 15.1001 26.325 15.1001 26.2285C15.1001 26.4215 15.2001 26.4215 15.2001 26.325Z" fill="white"/>
</mask>
<g mask="url(#mask22_5840_2103)">
<path d="M14.6001 25.7461H16.3001V27.1935H14.6001V25.7461Z" fill="#292929"/>
</g>
<mask id="mask23_5840_2103" style="mask-type:luminance" maskUnits="userSpaceOnUse" x="14" y="24" width="4" height="3">
<path d="M14.3001 26.3243H14.8001C14.8001 26.3243 15.0001 26.2278 15.1001 26.1313V25.8419L15.2001 25.6489L15.3001 25.7454C15.3001 25.7454 15.4001 25.7454 15.5001 25.6489L15.6001 25.4559L15.7001 25.6489V25.7454C15.7001 25.8419 15.7001 25.9384 15.8001 25.9384C15.9001 26.0348 16.1001 26.0348 16.2001 26.0348H16.4001C16.4001 26.0348 17.1001 26.0348 17.3001 25.9384C17.3001 25.9384 17.6001 25.9384 17.6001 25.8419C17.6001 25.8419 17.6001 25.7454 17.5001 25.5524C17.5001 25.5524 17.4001 25.1664 17.4001 25.0699L17.5001 24.877C17.5001 24.877 17.5001 25.0699 17.7001 25.0699L17.4001 25.3594C17.4001 25.3594 17.6001 25.7454 17.5001 25.9384C17.5001 25.9384 17.5001 26.1313 17.3001 26.1313C17.3001 26.1313 16.5001 26.4208 15.7001 26.2278C15.7001 26.2278 15.5001 26.2278 15.5001 26.0348V25.7454C15.5001 25.7454 15.4001 25.9384 15.2001 25.9384C15.2001 25.9384 15.2001 26.3243 14.7001 26.4208C14.7001 26.4208 14.5001 26.5173 14.3001 26.3243Z" fill="white"/>
</mask>
<g mask="url(#mask23_5840_2103)">
<path d="M13.6001 24.3945H18.1001V26.9998H13.6001V24.3945Z" fill="#292929"/>
</g>
<mask id="mask24_5840_2103" style="mask-type:luminance" maskUnits="userSpaceOnUse" x="18" y="24" width="3" height="2">
<path d="M18 24.8769C18.1 24.9734 18.1 25.0699 18.1 25.1663C18.1 25.2628 18.2 25.4558 18.2 25.5523C18.2 25.6488 18.3 25.7453 18.4 25.7453C18.4 25.7453 18.7 25.7453 18.9 25.6488H19.2C19.3 25.6488 19.3 25.5523 19.4 25.5523C19.5 25.5523 19.5 25.4558 19.6 25.4558C19.7 25.4558 19.7 25.3593 19.7 25.3593V25.1663C19.7 25.1663 19.7 25.0699 19.8 25.0699C19.8 24.9734 19.9 24.9734 19.9 24.9734H20C20 24.9734 20.2 25.0699 20.3 25.1663C20.3 25.1663 20.3 25.3593 20.2 25.3593H19.8C19.8 25.4558 19.8 25.4558 19.7 25.4558L19.6 25.5523C19.5 25.6488 19.4 25.6488 19.3 25.6488C19.2 25.6488 19.1 25.7453 19 25.7453C18.9 25.7453 18.7 25.8418 18.6 25.8418C18.5 25.8418 18.4 25.7453 18.4 25.6488L18.2 24.9734L18 24.8769ZM19.8 25.1663C19.9 25.1663 19.9 25.1663 19.8 25.1663H20C19.9 25.0699 19.9 25.0699 19.8 25.1663C19.9 25.0699 19.9 25.0699 19.8 25.1663Z" fill="white"/>
</mask>
<g mask="url(#mask24_5840_2103)">
<path d="M17.3999 24.2979H20.7999V26.5172H17.3999V24.2979Z" fill="#292929"/>
</g>
</svg>
