<svg width="32" height="32" viewBox="0 0 32 32" fill="none" xmlns="http://www.w3.org/2000/svg">
<path fill-rule="evenodd" clip-rule="evenodd" d="M25.9947 9.35875C24.6783 7.37765 22.8028 5.83245 20.6065 4.91938C18.4101 4.0063 15.992 3.76654 13.6591 4.23055C11.3262 4.69455 9.18383 5.84139 7.50404 7.52542C5.82424 9.20945 4.68281 11.3547 4.22468 13.6887C3.84509 15.6227 3.94767 17.6203 4.52334 19.5052C5.09902 21.3901 6.13008 23.1041 7.52541 24.496C8.92075 25.8878 10.6374 26.9145 12.5237 27.4855C14.4101 28.0564 16.408 28.1539 18.3409 27.7695C20.2739 27.385 22.0824 26.5304 23.6067 25.2811C25.131 24.0318 26.3241 22.4263 27.0806 20.6065C27.8372 18.7866 28.1339 16.8085 27.9445 14.8468C27.7551 12.8851 27.0854 11.0002 25.9947 9.35875ZM20.9948 15.7487L21.1448 16.8087H22.9948L23.1948 17.8787H21.3348L21.8048 20.5287L20.6548 20.7387L20.1548 17.8787H17.4748L15.9948 20.7787L14.5148 17.8787H11.8348L11.3348 20.7387L10.1848 20.5287L10.6548 17.8787H8.79477L8.99477 16.8087H10.8148L10.9948 15.7487H9.23477L9.44477 14.6887H11.2248L11.9948 10.3287L14.2048 14.6887H17.7748L19.9948 10.3287L20.7748 14.6887H22.5748L22.7848 15.7487H20.9948ZM19.5948 14.6887L19.4648 13.9587L19.0948 14.6887H19.5948ZM16.7148 16.8087L17.2448 15.7487H14.7448L15.2748 16.8087H16.7148ZM12.8948 14.6887L12.5248 13.9587L12.3948 14.6887H12.8948ZM12.1748 15.7487L11.9948 16.8087H13.9948L13.4348 15.7487H12.1748ZM15.8148 17.8787L15.9948 18.2187L16.1748 17.8787H15.8148ZM18.5348 15.7487L17.9948 16.8087H19.9948L19.7648 15.7487H18.5348Z" fill="#FFBC0D"/>
</svg>
