<svg width="32" height="32" viewBox="0 0 32 32" fill="none" xmlns="http://www.w3.org/2000/svg">
<g clip-path="url(#clip0_5747_44909)">
<path fill-rule="evenodd" clip-rule="evenodd" d="M25.2374 7.23744L23.2929 9.18198C22.9024 9.5725 22.2692 9.5725 21.8787 9.18198L21.3483 8.65165L23.2929 6.70711C23.6834 6.31658 24.3166 6.31658 24.7071 6.70711L25.2374 7.23744Z" fill="#FFBC0D"/>
<path fill-rule="evenodd" clip-rule="evenodd" d="M7.23744 6.76256L9.18198 8.70711C9.5725 9.09763 9.5725 9.7308 9.18198 10.1213L8.65165 10.6517L6.70711 8.70711C6.31658 8.31658 6.31658 7.68342 6.70711 7.29289L7.23744 6.76256Z" fill="#FFBC0D"/>
<path fill-rule="evenodd" clip-rule="evenodd" d="M16.75 3L16.75 5.75C16.75 6.30228 16.3023 6.75 15.75 6.75L15 6.75L15 4C15 3.44772 15.4477 3 16 3L16.75 3Z" fill="#FFBC0D"/>
<path fill-rule="evenodd" clip-rule="evenodd" d="M19 26.75C19 27.3023 18.5523 27.75 18 27.75H14C13.4477 27.75 13 27.3023 13 26.75V26H19V26.75Z" fill="#FFBC0D"/>
<path fill-rule="evenodd" clip-rule="evenodd" d="M21.3158 20.5663C20.4391 21.6857 19.5424 22.8306 19.1991 24.2037L19 25H13L12.8009 24.2037C12.4576 22.8306 11.5609 21.6857 10.6842 20.5663C10.6141 20.4768 10.5442 20.3875 10.4746 20.2982C9.55049 19.112 9 17.6203 9 16C9 12.134 12.134 9 16 9C19.866 9 23 12.134 23 16C23 17.6203 22.4495 19.112 21.5254 20.2982C21.4558 20.3875 21.3859 20.4768 21.3158 20.5663ZM14.4118 17.4169C14.0701 17.0752 13.5161 17.0752 13.1744 17.4169L12.5557 18.0357L13.1744 18.6544C13.7307 19.2107 14.4102 19.5687 15.1251 19.7284V21.875C15.1251 22.4273 15.5728 22.875 16.1251 22.875H16.8751V19.7284C17.59 19.5687 18.2695 19.2107 18.8258 18.6544L19.4446 18.0357L18.8258 17.4169C18.4841 17.0752 17.9301 17.0752 17.5884 17.4169C16.7112 18.2941 15.289 18.2941 14.4118 17.4169Z" fill="#FFBC0D"/>
<path fill-rule="evenodd" clip-rule="evenodd" d="M29 14.75C29 15.3023 28.5523 15.75 28 15.75L25.25 15.75L25.25 15C25.25 14.4477 25.6977 14 26.25 14L29 14L29 14.75Z" fill="#FFBC0D"/>
<path fill-rule="evenodd" clip-rule="evenodd" d="M3 14.25L5.75 14.25C6.30228 14.25 6.75 14.6977 6.75 15.25L6.75 16L4 16C3.44772 16 3 15.5523 3 15L3 14.25Z" fill="#FFBC0D"/>
</g>
<defs>
<clipPath id="clip0_5747_44909">
<rect width="32" height="32" fill="white"/>
</clipPath>
</defs>
</svg>
