<svg width="32" height="32" viewBox="0 0 32 32" fill="none" xmlns="http://www.w3.org/2000/svg">
<g clip-path="url(#clip0_5840_2075)">
<path fill-rule="evenodd" clip-rule="evenodd" d="M15.5903 7.68674C12.3299 7.68674 9.68674 10.3299 9.68674 13.5903C9.68674 14.9577 10.1506 16.2144 10.93 17.2149C11.0005 17.3054 11.0727 17.3974 11.1461 17.4908C11.9721 18.5426 12.9483 19.7857 13.3251 21.2929L13.3573 21.4216H17.8234L17.8556 21.2929C18.2324 19.7857 19.2086 18.5426 20.0345 17.4908C20.1079 17.3974 20.1801 17.3054 20.2506 17.2149C21.0301 16.2144 21.4939 14.9577 21.4939 13.5903C21.4939 10.3299 18.8508 7.68674 15.5903 7.68674ZM8 13.5903C8 9.39831 11.3983 6 15.5903 6C19.7823 6 23.1807 9.39831 23.1807 13.5903C23.1807 15.3463 22.5833 16.9652 21.5813 18.2515C21.5223 18.3271 21.4639 18.402 21.4059 18.4762C20.5321 19.5945 19.7774 20.5603 19.492 21.702L19.3001 22.4695C19.2062 22.845 18.8689 23.1084 18.4819 23.1084H12.6988C12.3118 23.1084 11.9744 22.845 11.8806 22.4695L11.6887 21.702C11.4033 20.5604 10.6486 19.5945 9.77477 18.4762C9.7168 18.402 9.65831 18.3271 9.5994 18.2515C8.59735 16.9652 8 15.3463 8 13.5903Z" fill="#292929"/>
<path fill-rule="evenodd" clip-rule="evenodd" d="M19.0844 25.0364C19.0844 25.5687 18.6528 26.0002 18.1205 26.0002H13.3013C12.7689 26.0002 12.3374 25.5687 12.3374 25.0364V24.3135H19.0844V25.0364Z" fill="#292929"/>
<path fill-rule="evenodd" clip-rule="evenodd" d="M12.9338 14.9218C13.2631 14.5925 13.7971 14.5925 14.1265 14.9218C14.9719 15.7673 16.3427 15.7673 17.1882 14.9218C17.5176 14.5925 18.0516 14.5925 18.3809 14.9218L18.9773 15.5182L18.3809 16.1145C17.8447 16.6507 17.1898 16.9958 16.5007 17.1497V20.1826H15.7778C15.2455 20.1826 14.814 19.7511 14.814 19.2188V17.1497C14.1249 16.9958 13.47 16.6507 12.9338 16.1145L12.3374 15.5182L12.9338 14.9218Z" fill="#292929"/>
</g>
<defs>
<clipPath id="clip0_5840_2075">
<rect width="32" height="32" fill="white"/>
</clipPath>
</defs>
</svg>
