<svg width="32" height="32" viewBox="0 0 32 32" fill="none" xmlns="http://www.w3.org/2000/svg">
<path d="M15.4978 8.62207C17.3288 8.61477 19.1147 9.1927 20.5935 10.2725C22.0723 11.3522 23.1669 12.8768 23.7175 14.623C24.2681 16.3692 24.246 18.2459 23.6541 19.9785C23.062 21.7112 21.9306 23.2087 20.4265 24.2529C20.4848 24.3014 20.535 24.3598 20.574 24.4248L21.4939 26.0684C21.5726 26.213 21.5905 26.3828 21.5447 26.541C21.4987 26.6995 21.392 26.8339 21.2478 26.9141C21.1565 26.9719 21.0502 27.002 20.9421 27C20.8323 26.999 20.7242 26.9689 20.6296 26.9131C20.5349 26.8571 20.456 26.7766 20.4021 26.6807L19.3484 25.0254C19.3156 24.9735 19.2944 24.9154 19.2869 24.8545C18.0826 25.4662 16.7508 25.7842 15.4001 25.7842C14.0495 25.7842 12.7177 25.4661 11.5134 24.8545C11.5252 24.9109 11.5252 24.969 11.5134 25.0254L10.5945 26.6807C10.5427 26.7731 10.4678 26.8515 10.3777 26.9072C10.2877 26.9629 10.1845 26.9948 10.0789 27C9.97078 27.002 9.86451 26.9719 9.77319 26.9141C9.62899 26.8339 9.52225 26.6995 9.47632 26.541C9.43052 26.3828 9.44839 26.213 9.5271 26.0684L10.447 24.4248C10.486 24.3598 10.5362 24.3014 10.5945 24.2529C9.0922 23.2099 7.96246 21.7146 7.36987 19.9844C6.77732 18.2542 6.75214 16.3798 7.29956 14.6348C7.84703 12.8897 8.9381 11.3649 10.4128 10.2832C11.8874 9.20167 13.6691 8.62012 15.4978 8.62207ZM18.3132 10.4072C16.9691 9.85053 15.4901 9.70544 14.0632 9.98926C12.6363 10.2731 11.3254 10.9732 10.2966 12.002C9.2679 13.0307 8.56779 14.3417 8.28394 15.7686C8.00012 17.1954 8.14523 18.6745 8.7019 20.0186C9.25867 21.3627 10.2022 22.512 11.4119 23.3203C12.6214 24.1284 14.0432 24.5595 15.4978 24.5596C17.4488 24.5596 19.3204 23.7848 20.7 22.4053C22.0794 21.0258 22.8542 19.1549 22.8542 17.2041C22.8542 15.7493 22.4231 14.3268 21.615 13.1172C20.8067 11.9075 19.6574 10.964 18.3132 10.4072ZM15.6824 11.6865C15.765 11.6793 15.8484 11.6898 15.9265 11.7178C16.0048 11.7458 16.0761 11.7914 16.1355 11.8496C16.1949 11.9079 16.2416 11.9779 16.2712 12.0557C16.3008 12.1334 16.313 12.2168 16.3074 12.2998V16.3086L18.2205 15.4502C18.299 15.4193 18.3831 15.4048 18.4675 15.4072C18.552 15.4097 18.635 15.4294 18.7117 15.4648C18.7885 15.5004 18.8572 15.5514 18.9138 15.6143C18.9704 15.6772 19.0145 15.7509 19.0417 15.8311C19.1081 15.9839 19.112 16.1568 19.0525 16.3125C18.9929 16.4684 18.8741 16.5945 18.7224 16.6641L15.9519 17.8906C15.867 17.9081 15.779 17.9081 15.6941 17.8906C15.5762 17.8941 15.46 17.8592 15.363 17.792C15.2754 17.7373 15.2024 17.6619 15.1511 17.5723C15.0998 17.4824 15.0717 17.3808 15.0691 17.2773V12.3115C15.0675 12.2301 15.082 12.1489 15.1121 12.0732C15.1421 11.9975 15.1869 11.9283 15.2439 11.8701C15.301 11.8119 15.3699 11.7659 15.4451 11.7344C15.5202 11.7029 15.601 11.6865 15.6824 11.6865ZM8.30933 5.01367C9.42109 4.92728 10.5272 5.24145 11.4275 5.89941C11.5591 5.99894 11.6696 6.12444 11.7517 6.26758C11.8339 6.41082 11.8866 6.56942 11.906 6.7334C11.9176 6.89377 11.8938 7.05478 11.8367 7.20508C11.7795 7.35533 11.6901 7.49137 11.575 7.60352L6.573 12.582C6.36208 12.785 6.08059 12.8988 5.78784 12.9004H5.69019C5.53395 12.8824 5.38303 12.8313 5.2478 12.751C5.11266 12.6707 4.99555 12.5631 4.90503 12.4346C4.24524 11.5354 3.9291 10.4294 4.01343 9.31738C4.09782 8.20546 4.57725 7.16038 5.36499 6.37109C6.15288 5.58173 7.19739 5.10009 8.30933 5.01367ZM19.5681 5.89941C20.4683 5.24625 21.5729 4.93741 22.6814 5.02734C23.7899 5.11729 24.8299 5.60088 25.613 6.39062C26.4104 7.16773 26.902 8.20523 26.9988 9.31445C27.0955 10.4238 26.7913 11.5311 26.1404 12.4346C26.0446 12.5691 25.9193 12.6802 25.7751 12.7607C25.631 12.8413 25.4711 12.8893 25.3064 12.9004H25.1716C25.0283 12.9006 24.8862 12.8721 24.7537 12.8174C24.6213 12.7627 24.5006 12.6832 24.3992 12.582L19.4216 7.60352C19.3064 7.49135 19.2171 7.35538 19.1599 7.20508C19.1028 7.05476 19.079 6.8938 19.0906 6.7334C19.11 6.56943 19.1627 6.41081 19.2449 6.26758C19.327 6.12452 19.4365 5.9989 19.5681 5.89941ZM8.6814 6.16992C8.02848 6.16576 7.38691 6.34135 6.82788 6.67871C6.26892 7.01604 5.81404 7.50153 5.51343 8.08105C5.21282 8.66071 5.07846 9.31254 5.12476 9.96387C5.17106 10.6152 5.39652 11.2412 5.77612 11.7725L10.7654 6.84375C10.1582 6.40684 9.42943 6.17139 8.6814 6.16992ZM22.3025 6.16992C21.5734 6.18364 20.8668 6.42353 20.28 6.85645L25.1833 11.7598C25.5583 11.2302 25.7814 10.6082 25.8269 9.96094C25.8724 9.31369 25.7384 8.6666 25.4412 8.08984C25.144 7.51322 24.6947 7.029 24.1414 6.69043C23.5878 6.35185 22.9514 6.17186 22.3025 6.16992Z" fill="#292929"/>
</svg>
