<svg width="32" height="32" viewBox="0 0 32 32" fill="none" xmlns="http://www.w3.org/2000/svg">
<path d="M16.4504 10.4678C17.0468 10.468 17.6268 10.8738 18.1555 11.6338C18.6829 12.3919 19.1482 13.4882 19.5178 14.833L19.593 15.1055L19.6672 14.833C20.1573 13.0519 20.8157 11.7108 21.5588 11.0107L21.9485 11.8428C21.5003 12.5868 21.1197 13.9785 20.8499 15.7725C20.5779 17.5803 20.4177 19.8078 20.4143 22.2178H18.7717C18.7675 19.209 18.5176 16.4853 18.1135 14.5068C17.9099 13.51 17.6663 12.6983 17.3938 12.1338C17.2576 11.8517 17.1119 11.6266 16.9573 11.4717C16.8026 11.3168 16.6328 11.2257 16.4504 11.2256C16.2655 11.2256 16.0947 11.3259 15.9407 11.4932C15.7865 11.6605 15.6411 11.903 15.5051 12.208C15.233 12.8186 14.9899 13.6976 14.7864 14.7773C14.3822 16.9212 14.1321 19.8732 14.1282 23.1338H12.4875C12.4941 19.6298 12.9444 16.4627 13.6672 14.1689C14.0315 13.0132 14.4635 12.0834 14.9397 11.4443C15.4169 10.804 15.9285 10.4678 16.4504 10.4678Z" fill="#292929" stroke="#292929" stroke-width="0.155172"/>
<path fill-rule="evenodd" clip-rule="evenodd" d="M16.2499 25.6C18.4123 25.6 20.3456 24.5808 21.606 22.9741C22.5014 21.8327 22.8545 20.4065 22.818 18.7723C22.7812 17.1255 22.3486 15.3548 21.7641 13.6533C21.085 11.6762 20.2193 9.77861 19.2006 8.40317C18.16 6.99815 17.1644 6.4 16.2499 6.4C15.3354 6.4 14.3398 6.99815 13.2992 8.40317C12.2805 9.77861 11.4148 11.6762 10.7357 13.6533C10.1512 15.3548 9.71861 17.1255 9.68183 18.7723C9.64533 20.4065 9.99843 21.8327 10.8938 22.9741C12.1542 24.5808 14.0875 25.6 16.2499 25.6ZM22.7075 23.8381C21.196 25.7649 18.8651 27 16.2499 27C13.6347 27 11.3038 25.7649 9.79226 23.8381C7.48657 20.8989 8.19796 16.7316 9.41159 13.1985C10.8125 9.12029 13.098 5 16.2499 5C19.4018 5 21.6873 9.12029 23.0882 13.1985C24.3018 16.7316 25.0132 20.8989 22.7075 23.8381Z" fill="#292929"/>
</svg>
