<svg width="32" height="32" viewBox="0 0 32 32" fill="none" xmlns="http://www.w3.org/2000/svg">
<path d="M12.7403 25.622C12.7707 25.6665 12.8018 25.711 12.8332 25.7549C12.8939 25.7413 12.9537 25.727 13.0132 25.7123C12.9818 25.6687 12.9507 25.625 12.9204 25.5813C12.8609 25.5954 12.801 25.609 12.7403 25.622ZM14.349 25.3814C14.3636 25.3343 14.3636 25.2892 14.35 25.245C14.3402 25.2166 14.3186 25.1725 14.286 25.1136C14.2304 25.1775 14.1744 25.2408 14.1167 25.3036C14.1835 25.3687 14.2092 25.4304 14.191 25.4888C13.9224 25.5189 13.6775 25.4878 13.3211 25.3782C13.0008 25.2791 12.6848 25.1645 12.3734 25.034C12.3731 25.0344 12.3725 25.0348 12.3723 25.0354C12.3559 25.0287 12.3449 25.0239 12.3387 25.0219C12.2905 24.9994 12.2542 24.9746 12.2345 24.9474C12.1596 24.8502 12.1943 24.7037 12.3339 24.5097C12.4556 24.3399 12.4797 24.2889 12.6011 24.1191C12.5431 24.1336 12.4847 24.1471 12.4256 24.1601C12.3081 24.3257 12.2886 24.3723 12.1719 24.5383C12.0362 24.7298 11.9779 24.8886 12.0016 25.016C12.0074 25.0457 12.0302 25.0809 12.0701 25.1202C12.1029 25.1528 12.1321 25.1733 12.1557 25.1837C12.5073 25.3346 12.8652 25.4663 13.2277 25.5787C13.3786 25.6213 13.4788 25.6504 13.6256 25.6626C13.9015 25.686 14.0817 25.6538 14.158 25.6041C14.2621 25.5365 14.3247 25.4616 14.349 25.3814ZM13.0132 25.7123C13.0451 25.756 13.0776 25.8001 13.111 25.8437C13.1708 25.8281 13.2301 25.8121 13.2891 25.7959C13.2558 25.7529 13.2232 25.7099 13.1911 25.6668C13.1322 25.6823 13.073 25.6975 13.0132 25.7123ZM15.0603 26.0748C15.1157 26.1141 15.1719 26.1532 15.229 26.1917C15.2934 26.1595 15.3569 26.1272 15.4196 26.0939C15.3625 26.0555 15.3059 26.017 15.2503 25.9782C15.1879 26.0105 15.1246 26.0427 15.0603 26.0748ZM14.7892 24.879C14.7255 24.9134 14.6609 24.9475 14.5949 24.9809C14.6426 25.0285 14.6913 25.0759 14.7412 25.1227C14.8072 25.0885 14.872 25.0538 14.9356 25.0184C14.8859 24.9722 14.8368 24.9258 14.7892 24.879ZM15.4196 26.0939C15.4768 26.132 15.5346 26.1696 15.5937 26.2067C15.6561 26.1729 15.7179 26.1384 15.7787 26.1039C15.7198 26.0672 15.662 26.0302 15.6047 25.9931C15.5437 26.0271 15.4821 26.0609 15.4196 26.0939ZM17.3459 24.9746C17.3701 24.9095 17.385 24.8516 17.3917 24.7993C17.3599 24.7898 17.3277 24.775 17.2959 24.7548C17.2579 24.7316 17.2368 24.7095 17.2323 24.6887C17.2299 24.6792 17.231 24.665 17.2352 24.6467C17.2387 24.6272 17.2394 24.6134 17.2379 24.6046C17.2349 24.5899 17.2277 24.5835 17.2166 24.5847C17.2004 24.5868 17.1739 24.6232 17.1337 24.6933C17.0935 24.7636 17.0737 24.8084 17.0768 24.8265C17.0799 24.8427 17.114 24.872 17.1803 24.9141C17.2433 25.1507 17.3077 25.387 17.374 25.623C17.3091 25.6508 17.1959 25.6724 17.0519 25.6882C17.0519 25.6881 17.0519 25.6879 17.0519 25.6879C16.7192 25.7168 16.3848 25.7323 16.0507 25.7345C16.0507 25.7345 16.0507 25.7345 16.0507 25.7347C15.9444 25.7342 15.8701 25.7286 15.8388 25.7182C15.808 25.7089 15.7776 25.6892 15.748 25.6583C15.7206 25.6303 15.7049 25.6035 15.7004 25.5802C15.68 25.4704 15.6609 25.3601 15.6428 25.25C15.6414 25.2373 15.6295 25.2277 15.6074 25.2193C15.5836 25.2344 15.5568 25.2589 15.5261 25.294C15.4981 25.3254 15.4712 25.3468 15.4472 25.3575C15.4084 25.3753 15.3527 25.3824 15.2807 25.378C15.2345 25.3412 15.1893 25.3036 15.1448 25.2661C15.0961 25.3228 15.0465 25.379 14.9958 25.4349C15.082 25.5126 15.1222 25.5944 15.111 25.6831C15.1081 25.7057 15.1017 25.7294 15.0926 25.7531C15.0877 25.7673 15.083 25.7811 15.0782 25.7953C15.0763 25.7953 15.0745 25.7951 15.0726 25.7951C15.0244 25.8557 14.9281 25.9126 14.7803 25.9627C14.6289 26.014 14.4961 26.0321 14.3879 26.0188C14.3024 26.0085 14.2003 25.9859 14.0828 25.9508C14.1134 25.9961 14.1789 26.0433 14.2807 26.092C14.3823 26.1403 14.4742 26.1684 14.5544 26.1773C14.69 26.1917 14.8256 26.1506 14.9525 26.0537C15.0234 26.0006 15.0806 25.9348 15.1307 25.8634C15.2066 25.7885 15.2487 25.6956 15.2583 25.5833C15.2593 25.5762 15.2599 25.5693 15.2607 25.5624C15.3724 25.5479 15.4685 25.5077 15.5463 25.4434C15.5545 25.5045 15.5629 25.5658 15.5706 25.6271C15.5892 25.7198 15.6201 25.7918 15.6635 25.8435C15.7211 25.9132 15.802 25.9489 15.9034 25.9495C16.3256 25.9522 16.7479 25.9335 17.1685 25.8938C17.3061 25.8811 17.4031 25.8201 17.4559 25.7134C17.4971 25.6303 17.5054 25.5399 17.4839 25.4436C17.48 25.4279 17.4327 25.2712 17.3459 24.9746ZM19.9028 24.8164C19.8766 24.8288 19.8281 24.838 19.7565 24.8441C19.6811 24.8508 19.6405 24.8473 19.6322 24.8345C19.6239 24.8223 19.6281 24.7977 19.6438 24.7602C19.6587 24.7232 19.6766 24.6994 19.6955 24.6907C19.7334 24.6736 19.7792 24.6744 19.833 24.6922C19.8812 24.7085 19.9168 24.7295 19.9365 24.7572C19.9528 24.7791 19.9415 24.7989 19.9028 24.8164ZM19.8778 24.5606C19.7773 24.5198 19.7092 24.5072 19.6708 24.5247C19.6174 24.5495 19.578 24.6211 19.5488 24.7416C19.5124 24.892 19.4821 24.9785 19.4658 25.0002C19.4456 25.0298 19.3764 25.0702 19.2627 25.1182C19.2627 25.1174 19.2619 25.1171 19.2615 25.1164C18.9694 25.2286 18.7553 25.3164 18.4559 25.4019C18.4563 25.4023 18.3732 25.4134 18.3736 25.414C18.357 25.4186 18.4006 25.4226 18.3945 25.4246C18.3429 25.4377 18.2544 25.4138 18.2186 25.4019C18.0806 25.3557 18.0591 25.2656 17.9818 25.05C17.9133 24.8617 17.8965 24.779 17.8287 24.591C17.803 24.6344 17.7768 24.6775 17.7499 24.7207C17.7905 24.92 17.7991 25.0052 17.8667 25.1874C17.9447 25.399 17.9863 25.5413 18.113 25.6157C18.1428 25.6331 18.1876 25.6439 18.2482 25.6481C18.2978 25.6516 18.3361 25.6489 18.3607 25.6422C18.7265 25.5418 19.0875 25.4223 19.4435 25.2831C19.5844 25.2282 19.6446 25.1366 19.6215 25.0141C19.6326 25.0255 19.6902 25.0257 19.7962 25.0127C19.9028 24.9993 19.9705 24.9842 20.0009 24.9706C20.0744 24.9368 20.1123 24.8856 20.1143 24.8192C20.1146 24.7673 20.0952 24.7154 20.0551 24.6633C20.0315 24.6325 19.9713 24.5986 19.8778 24.5606ZM25.032 13.4792L24.9831 13.2757L25.3109 13.3006L25.3121 13.3054L25.032 13.4792ZM25.6918 13.3569L25.643 13.2524L24.7429 13.1333C24.5966 13.1131 24.5846 13.0908 24.5537 13.0124L24.4916 13.0273L24.5811 13.3981L24.6435 13.3833L24.6368 13.336C24.6273 13.2607 24.6432 13.257 24.7164 13.2609L24.8812 13.2717L24.9441 13.5328L24.7956 13.6294C24.7433 13.664 24.7266 13.6646 24.7045 13.6077L24.6864 13.5614L24.6246 13.5766L24.7456 14.0763L24.8074 14.0611C24.7983 13.9808 24.799 13.9502 24.9256 13.866C25.0729 13.7661 25.2443 13.652 25.4171 13.5377L25.6918 13.3569ZM8.40288 9.79803L8.4059 9.79429L8.70952 9.92219L8.57178 10.0802L8.40288 9.79803ZM8.60491 10.5827L8.65306 10.6247L8.90375 10.3372L8.85556 10.2952L8.8207 10.3279C8.76503 10.3791 8.75271 10.3684 8.71365 10.306L8.62745 10.1656L8.80409 9.96323L8.96851 10.0287C9.02711 10.0514 9.0373 10.0646 9.0035 10.1156L8.97604 10.157L9.02423 10.1991L9.36241 9.81152L9.31435 9.76968C9.25425 9.82343 9.22855 9.84055 9.08682 9.78612C8.91978 9.72319 8.728 9.64938 8.53502 9.57409L8.22842 9.45481L8.17138 9.55482L8.59415 10.3584C8.66214 10.4895 8.65092 10.5124 8.60491 10.5827ZM14.6264 6.37514L14.6314 6.37457L14.7692 6.6738L14.5608 6.6975L14.6264 6.37514ZM14.6322 7.11113L14.6251 7.04763L14.5774 7.0482C14.5016 7.04843 14.4995 7.03221 14.513 6.95976L14.5442 6.79807L14.811 6.76814L14.8882 6.92733C14.916 6.98346 14.9147 7.00012 14.8554 7.01509L14.8072 7.02722L14.8144 7.09072L15.3254 7.03312L15.318 6.96962C15.2373 6.96883 15.2072 6.96395 15.1392 6.82846C15.0585 6.66927 14.9669 6.48513 14.8751 6.2994L14.7297 6.00426L14.6199 6.03963L14.3894 6.91792C14.3513 7.06056 14.3276 7.06986 14.2458 7.09049L14.253 7.1541L14.6322 7.11113ZM17.8667 6.32253C17.9334 6.53683 17.9685 6.6501 17.9845 6.72913C17.9932 6.77313 17.9928 6.78288 17.9814 6.83413L17.9512 6.97166C17.9125 7.14435 17.8973 7.15263 17.7703 7.1346L17.7567 7.19696L18.31 7.31953L18.3236 7.25706C18.1947 7.21851 18.1845 7.20456 18.2228 7.03199L18.2581 6.87222C18.2728 6.80499 18.28 6.79637 18.3194 6.74637C18.4006 6.64523 18.4733 6.56756 18.5548 6.4781C18.6302 6.39601 18.6617 6.38274 18.7534 6.39294L18.767 6.33069L18.382 6.2452L18.368 6.30757L18.434 6.32877C18.4904 6.34657 18.4819 6.36823 18.4555 6.40576C18.3804 6.50837 18.2782 6.64647 18.2338 6.70067C18.1986 6.57357 18.1744 6.47107 18.1387 6.32741C18.1304 6.29033 18.1277 6.27117 18.1694 6.27378L18.2368 6.27854L18.2508 6.21618L17.7567 6.10687L17.7431 6.16923C17.8128 6.19486 17.8318 6.20733 17.8667 6.32253ZM20.9589 8.54637C21.1689 8.68934 21.3857 8.65839 21.4993 8.49205C21.607 8.33343 21.5467 8.19169 21.4611 8.05019L21.4402 8.01617C21.3804 7.91809 21.3545 7.84292 21.4001 7.77523C21.4447 7.71026 21.5293 7.69053 21.5982 7.73759C21.7052 7.81027 21.6873 7.93862 21.6563 8.04826L21.7223 8.07933C21.7699 7.97717 21.806 7.90404 21.8359 7.84757C21.8222 7.83033 21.804 7.81026 21.7786 7.7809C21.7464 7.74337 21.7071 7.70856 21.665 7.6801C21.4527 7.53553 21.2568 7.58463 21.1526 7.73759C21.0541 7.88249 21.1324 8.03862 21.2083 8.16562L21.2222 8.18875C21.2791 8.28286 21.3016 8.36336 21.2473 8.4433C21.1875 8.53151 21.1018 8.54058 21.0314 8.49273C20.8987 8.40236 20.9214 8.19793 20.9461 8.09997L20.8745 8.07729C20.829 8.17877 20.7967 8.26381 20.7653 8.33365C20.7763 8.3527 20.7971 8.38309 20.8286 8.42425C20.857 8.4611 20.9052 8.50963 20.9589 8.54637ZM7.40356 13.2528L7.53777 12.7582L7.47615 12.7414C7.43407 12.8521 7.42858 12.8541 7.25181 12.8111L6.71804 12.6832C6.55091 12.6429 6.54613 12.6348 6.56775 12.5119L6.506 12.495L6.40174 12.8792L6.96231 13.2909L6.2612 13.3976L6.16039 13.7687L6.22213 13.7856C6.26704 13.6638 6.28769 13.6558 6.48403 13.7211L6.79842 13.8248C6.94029 13.8718 7.0214 13.9041 7.06821 13.9252C7.12406 13.9507 7.13164 13.9849 7.11746 14.0626L7.17922 14.0794L7.28499 13.6889L7.22342 13.6721C7.18758 13.773 7.16389 13.8036 7.10378 13.7943C7.05319 13.7872 6.97684 13.768 6.84214 13.7264L6.49426 13.6204L6.49519 13.6171L7.31036 13.5277L7.3333 13.4424L6.62444 12.9226L6.62595 12.9161L7.18359 13.0625C7.35962 13.1083 7.36302 13.1144 7.34159 13.2361L7.40356 13.2528ZM23.4897 10.8161C23.4294 10.7204 23.4306 10.7028 23.5711 10.5962L24.002 10.2695C24.143 10.1627 24.1597 10.1661 24.2359 10.2502L24.287 10.2115L23.966 9.78873L23.9152 9.82751C23.9759 9.92332 23.9748 9.94101 23.8334 10.0476L23.4033 10.3743C23.2623 10.4813 23.2452 10.4777 23.169 10.3936L23.1179 10.4323L23.4389 10.855L23.4897 10.8161ZM10.9751 7.55673L11.242 8.02672C11.3292 8.18036 11.3236 8.1968 11.2201 8.26687L11.2517 8.32243L11.9582 7.92138C11.9458 7.87002 11.8916 7.70493 11.8695 7.64585L11.8024 7.67069C11.8227 7.7589 11.82 7.81129 11.8128 7.8512C11.8037 7.90528 11.7451 7.94429 11.6995 7.97025C11.6553 7.9952 11.6218 8.01221 11.5927 8.01402C11.5597 8.01572 11.5365 7.98182 11.4944 7.90766L11.2171 7.4192C11.1299 7.26533 11.1357 7.24889 11.2333 7.18245L11.2018 7.12666L10.7388 7.38949L10.7705 7.44505C10.8707 7.39958 10.8877 7.40287 10.9751 7.55673ZM6.55358 15.9057L6.40652 15.4528L6.2593 15.9057H5.7835L6.16831 16.1849L6.02131 16.6378L6.40652 16.3578L6.79138 16.6378L6.64433 16.1849L7.02954 15.9057H6.55358ZM26.217 15.9057H25.7411L25.5936 15.4528L25.447 15.9057H24.971L25.3564 16.1849L25.2091 16.6378L25.5936 16.3578L25.9792 16.6378L25.8321 16.1849L26.217 15.9057ZM14.7596 19.2683L14.8445 19.0075H14.8485L14.9348 19.2683H14.7596ZM15.2271 19.4311C15.1752 19.2915 15.1163 19.1304 15.0574 18.968L14.9647 18.7099L14.8704 18.7289L14.5973 19.435C14.5523 19.5499 14.5317 19.5551 14.462 19.5649V19.618H14.7803V19.5649L14.7409 19.5607C14.678 19.5537 14.678 19.5401 14.6956 19.4816L14.7367 19.3505H14.9607L15.01 19.4898C15.0276 19.5388 15.0247 19.5526 14.9743 19.5593L14.9332 19.5649V19.618H15.3622V19.5649C15.2954 19.5568 15.2706 19.5499 15.2271 19.4311ZM17.1815 19.2683L17.2664 19.0075H17.2701L17.3565 19.2683H17.1815ZM17.6487 19.4311C17.5968 19.2915 17.538 19.1304 17.4793 18.968L17.3864 18.7099L17.292 18.7289L17.0189 19.435C16.9738 19.5499 16.9537 19.5551 16.8839 19.5649V19.618H17.2022V19.5649L17.1625 19.5607C17.0996 19.5537 17.0996 19.5401 17.1174 19.4816L17.1583 19.3505H17.3823L17.4316 19.4898C17.449 19.5388 17.4463 19.5526 17.3959 19.5593L17.355 19.5649V19.618H17.784V19.5649C17.7169 19.5568 17.6926 19.5499 17.6487 19.4311ZM18.8003 19.5074C18.7715 19.5427 18.7129 19.5469 18.6693 19.5469C18.6268 19.5469 18.5953 19.5459 18.5733 19.5348C18.5487 19.5226 18.5461 19.4882 18.5461 19.4172V18.9486C18.5461 18.8012 18.5571 18.7917 18.6556 18.7836V18.7301H18.2115V18.7836C18.3031 18.7917 18.3141 18.8012 18.3141 18.9486V19.3994C18.3141 19.5469 18.3031 19.5568 18.1993 19.5649V19.618H18.877C18.889 19.5755 18.9178 19.4337 18.9257 19.3817L18.8671 19.3722C18.8451 19.4447 18.8219 19.4816 18.8003 19.5074ZM16.3784 19.5074C16.3499 19.5427 16.2913 19.5469 16.2475 19.5469C16.205 19.5469 16.1735 19.5459 16.1517 19.5348C16.1271 19.5226 16.1243 19.4882 16.1243 19.4172V18.9486C16.1243 18.8012 16.1354 18.7917 16.2337 18.7836V18.7301H15.7898V18.7836C15.8812 18.7917 15.8922 18.8012 15.8922 18.9486V19.3994C15.8922 19.5469 15.8812 19.5568 15.7776 19.5649V19.618H16.4549C16.4671 19.5755 16.4959 19.4337 16.5042 19.3817L16.4455 19.3722C16.4235 19.4447 16.4003 19.4816 16.3784 19.5074ZM13.6029 18.7836C13.6891 18.7917 13.6999 18.8012 13.6999 18.9486V19.1071H13.4172V18.9486C13.4172 18.8012 13.4282 18.7917 13.5115 18.7836V18.7301H13.0744V18.7836C13.1739 18.7917 13.1849 18.8012 13.1849 18.9486V19.3994C13.1849 19.5469 13.1739 19.5568 13.0797 19.5649V19.618H13.5169V19.5649C13.4282 19.5568 13.4172 19.5469 13.4172 19.3994V19.1919H13.6999V19.3994C13.6999 19.5469 13.6891 19.5568 13.5919 19.5649V19.618H14.0372V19.5649C13.943 19.5568 13.932 19.5469 13.932 19.3994V18.9486C13.932 18.8012 13.943 18.7917 14.04 18.7836V18.7301H13.6029V18.7836ZM14.7925 14.9443C15.2658 15.2743 15.5246 16.3083 15.5246 16.3083C15.7829 13.9944 13.6732 13.3334 13.6732 13.3334C13.6732 13.3334 13.6294 13.4566 13.6732 14.0756C13.7156 14.6973 14.3175 14.6136 14.7925 14.9443ZM13.5002 16.9275C13.6732 16.5148 13.3708 14.2823 13.3708 13.7035C13.3708 13.1267 13.5856 12.7955 13.5856 12.7955C13.2851 12.6297 13.0706 11.8859 13.0706 11.8859C12.983 12.0926 12.6826 12.5468 12.6826 12.5468C12.6826 12.5468 13.5437 16.6392 12.983 17.1326C12.4242 17.6282 11.3037 17.7125 10.6583 17.3004C10.0114 16.8864 10.7004 15.5632 10.7004 15.5632C10.3125 16.0176 10.0114 16.5551 10.0548 17.1326C10.0977 17.7125 10.5283 18.2893 11.5621 18.3313C12.5953 18.3729 13.3272 17.3403 13.5002 16.9275ZM19.0134 15.3983C18.3122 15.4779 17.9269 16.6541 17.8957 16.7525C17.912 16.7086 18.0072 16.519 18.4964 16.2664C19.0566 15.9758 20.1756 16.5972 20.1756 16.5972C19.6598 17.0516 18.711 17.0929 17.9363 17.0095C17.1614 16.9257 17.2038 15.2743 17.1614 13.9944C17.1174 12.7135 16.8593 12.8376 16.8593 12.8376C16.8593 12.8376 16.9025 12.2578 16.3435 14.9025C15.7829 17.5457 12.7682 18.2064 12.7682 18.2064C14.4486 18.4554 15.6538 17.6703 16.0834 16.8444C16.5148 16.0176 16.815 14.2823 16.815 14.2823C16.815 16.7623 17.0313 17.381 17.6779 17.6703C18.324 17.9609 19.573 17.5473 20.4777 17.2163C21.0533 17.0061 21.7268 17.0929 21.7268 17.0929L22.2428 16.3083C22.2428 16.3083 21.51 16.3484 20.9946 16.1432C20.4777 15.9361 19.7459 15.3164 19.0134 15.3983ZM21.7286 18.3728V21.7284H18.373L16.0001 24.1013L13.6271 21.7284H10.2714V18.3728L7.8983 16L10.2714 13.6272V10.2713H13.6271L16.0001 7.89859L18.373 10.2713H21.7286V13.6272L24.1021 16L21.7286 18.3728ZM16.0001 7.36885C11.2333 7.36885 7.36874 11.2332 7.36874 16.0001C7.36874 20.7668 11.2333 24.6309 16.0001 24.6309C20.7669 24.6309 24.6312 20.7668 24.6312 16.0001C24.6312 11.2332 20.7669 7.36885 16.0001 7.36885ZM16.0001 26.4475C10.2392 26.4475 5.55216 21.7608 5.55216 16.0001C5.55216 10.2392 10.2392 5.5523 16.0001 5.5523C21.7608 5.5523 26.4478 10.2392 26.4478 16.0001C26.4478 21.7608 21.7608 26.4475 16.0001 26.4475ZM16.0001 5C9.93445 5 5 9.93466 5 16.0001C5 22.0652 9.93445 27 16.0001 27C22.0655 27 27 22.0652 27 16.0001C27 9.93466 22.0655 5 16.0001 5Z" fill="#292929"/>
</svg>
