<svg width="32" height="32" viewBox="0 0 32 32" fill="none" xmlns="http://www.w3.org/2000/svg">
<path d="M16.3 5.5C22.099 5.5 26.8 10.201 26.8 16C26.8 21.799 22.099 26.5 16.3 26.5C10.5011 26.5 5.80005 21.799 5.80005 16C5.80005 10.201 10.5011 5.5 16.3 5.5ZM9.72485 16.7842C9.47761 16.743 9.25038 16.9328 9.27075 17.1826C9.4801 19.7478 11.3481 23.5 16.2502 23.5C21.2798 23.4999 22.4965 19.5873 23.0959 17.2959C23.1692 17.0158 22.9284 16.7517 22.6418 16.793C21.0946 17.0161 18.3064 17.3369 15.97 17.3369C13.6034 17.3369 11.0628 17.0076 9.72485 16.7842ZM12.1282 11.3936C11.0233 11.4826 9.98999 11.945 9.55493 12.5449C9.50106 12.6195 9.46926 12.7081 9.46216 12.7998C9.45516 12.8914 9.47319 12.9836 9.51489 13.0654C9.55679 13.1473 9.62103 13.2166 9.69946 13.2646C9.77792 13.3126 9.86825 13.3388 9.96021 13.3389C10.0392 13.339 10.1183 13.32 10.1887 13.2842C10.2592 13.2483 10.321 13.1959 10.3674 13.1318C10.5904 12.8218 11.3405 12.4606 12.1975 12.3906C13.0772 12.3417 13.8631 12.5923 14.1272 12.8682C14.1726 12.9154 14.2274 12.9532 14.2874 12.9795C14.3474 13.0057 14.4122 13.0202 14.4778 13.0215C14.5434 13.0228 14.6091 13.0112 14.6702 12.9873C14.7311 12.9634 14.787 12.9281 14.8342 12.8828C14.8814 12.8375 14.9192 12.7826 14.9456 12.7227C14.9718 12.6627 14.9861 12.5976 14.9875 12.5322C14.9888 12.4667 14.9772 12.4009 14.9534 12.3398C14.9295 12.2788 14.8933 12.2231 14.8479 12.1758C14.3359 11.6418 13.2501 11.3276 12.1282 11.3936ZM19.7961 11.3936C18.6732 11.3276 17.5864 11.6418 17.0754 12.1758C17.0272 12.2224 16.9884 12.2781 16.9622 12.3398C16.936 12.4015 16.9221 12.4682 16.9221 12.5352C16.9222 12.6022 16.9359 12.6697 16.9622 12.7314C16.9885 12.793 17.0272 12.8491 17.0754 12.8955C17.1238 12.942 17.1817 12.978 17.2444 13.002C17.3071 13.0258 17.3746 13.0377 17.4417 13.0352C17.5086 13.0326 17.5744 13.0158 17.635 12.9873C17.6958 12.9587 17.7504 12.9182 17.7952 12.8682C18.0612 12.5922 18.8471 12.3417 19.7268 12.3906C20.5827 12.4607 21.3329 12.8219 21.5569 13.1318C21.6031 13.1956 21.6645 13.2473 21.7346 13.2832C21.8049 13.3191 21.8832 13.3388 21.9622 13.3389C22.0541 13.3386 22.1445 13.3127 22.2229 13.2646C22.3013 13.2166 22.3655 13.1473 22.4075 13.0654C22.4492 12.9837 22.4679 12.8913 22.4612 12.7998C22.4543 12.7082 22.4219 12.6196 22.3684 12.5449C21.9333 11.9451 20.8999 11.4826 19.7961 11.3936Z" fill="#FFBC0D"/>
<path d="M21.311 14.2367C21.0095 14.7589 22.7915 18.5002 24.7978 19.2318C25.8534 19.8412 27.2872 19.3339 28.0003 18.0988C28.7134 16.8636 28.4358 15.3683 27.3803 14.7589C25.7915 13.8416 21.5406 13.8389 21.311 14.2367Z" fill="#FFBC0D"/>
<path d="M10.9805 14.2367C11.282 14.7589 9.5 18.5002 7.49369 19.2318C6.43814 19.8412 5.00435 19.3339 4.29123 18.0988C3.5781 16.8636 3.85569 15.3683 4.91123 14.7589C6.5 13.8416 10.7509 13.8389 10.9805 14.2367Z" fill="#FFBC0D"/>
</svg>
