<svg width="32" height="32" viewBox="0 0 32 32" fill="none" xmlns="http://www.w3.org/2000/svg">
<path fill-rule="evenodd" clip-rule="evenodd" d="M24.8075 23.6927C25.3634 23.7861 25.6906 23.9597 25.8598 24.1194C26.0043 24.2558 26.0879 24.4273 26.0613 24.7243C26.0178 25.2084 25.5768 25.727 24.5417 25.727H7.354C6.48675 25.727 5.92066 25.4872 5.57776 25.1631C5.24263 24.8464 5 24.3356 5 23.538C5 23.2004 5.02819 22.5532 5.29146 21.9698C5.52871 21.444 5.95478 20.9561 6.88498 20.8051L6.89573 20.8033L6.90645 20.8014C7.74409 20.6466 8.31284 20.2313 8.68441 19.6993C8.97575 19.2821 9.12737 18.8044 9.21638 18.524C9.21963 18.5137 9.22279 18.5038 9.22587 18.4941L9.32147 18.3008L9.33977 18.2513C9.8666 16.8255 10.8919 15.8005 12.1244 15.3637L12.1262 15.3633C12.658 15.2549 12.8544 15.2149 13.1279 15.2705L13.2265 15.2905H13.327C14.2235 15.2905 15.1587 15.6185 16.0508 16.3427L16.0722 16.3601L16.0946 16.3763C16.5619 16.7146 16.7817 17.1725 17.2142 18.1588C17.418 18.7543 17.7525 19.2772 18.3243 19.5674C18.8716 19.845 19.4455 19.8051 19.857 19.7458C21.0196 19.5928 21.4408 19.7304 21.65 19.892C21.8824 20.0716 22.1368 20.4902 22.3916 21.6422C22.4339 22.4024 22.8606 22.834 23.0777 23.0536C23.0837 23.0598 23.0896 23.0657 23.0954 23.0716L24.8075 23.6927ZM23.3883 21.519C23.3883 21.9442 23.5982 22.1572 23.8075 22.3695V15.4605C22.1305 14.9288 20.6635 12.4838 20.6635 9.933C20.6635 7.488 22.1313 6 24.4368 6C26.6373 6 28 7.5945 28 9.933C28 12.5903 26.533 15.0353 24.856 15.4605V22.6882C26.323 22.9005 27.1623 23.6445 27.0573 24.8137C26.9523 25.983 25.9045 26.727 24.5417 26.727H7.354C5.25775 26.727 4 25.5577 4 23.538C4 22.794 4.105 20.2432 6.72475 19.818C7.81314 19.6169 8.06111 18.8475 8.26153 18.2256C8.27338 18.1889 8.28507 18.1526 8.29675 18.117L8.40175 17.9047C9.03025 16.2037 10.288 14.9287 11.86 14.397C11.9041 14.388 11.9474 14.3791 11.9901 14.3702C12.4548 14.2741 12.8469 14.193 13.327 14.2905C14.4805 14.2905 15.6333 14.7157 16.681 15.5662C17.3981 16.0854 17.7145 16.808 18.12 17.7342C18.1293 17.7555 18.1386 17.7768 18.148 17.7982C18.4623 18.7552 18.9865 18.8617 19.72 18.7552C21.3943 18.5339 22.2595 18.7738 22.8075 19.7603C23.0485 20.1941 23.2281 20.7722 23.3883 21.519ZM24.3039 14.5688L24.1098 14.5073C23.5929 14.3434 22.9763 13.8248 22.4723 12.9532C21.9798 12.1018 21.6635 11.0246 21.6635 9.933C21.6635 8.91048 21.9671 8.19712 22.4045 7.7447C22.8385 7.29575 23.5042 7 24.4368 7C25.2804 7 25.8892 7.29731 26.297 7.75488C26.716 8.22502 27 8.95353 27 9.933C27 11.0855 26.6798 12.1884 26.1912 13.0331C25.6888 13.9018 25.089 14.3698 24.6102 14.4912L24.3039 14.5688Z" fill="#292929"/>
</svg>
