<svg width="32" height="32" viewBox="0 0 32 32" fill="none" xmlns="http://www.w3.org/2000/svg">
<path fill-rule="evenodd" clip-rule="evenodd" d="M16 9.125C13.8599 9.125 12.125 10.8599 12.125 13C12.125 15.1401 13.8599 16.875 16 16.875C18.1401 16.875 19.875 15.1401 19.875 13C19.875 10.8599 18.1401 9.125 16 9.125ZM13.875 13C13.875 11.8264 14.8264 10.875 16 10.875C17.1736 10.875 18.125 11.8264 18.125 13C18.125 14.1736 17.1736 15.125 16 15.125C14.8264 15.125 13.875 14.1736 13.875 13Z" fill="#292929"/>
<path fill-rule="evenodd" clip-rule="evenodd" d="M26 13.5946C26 18.7824 19.8597 26.5273 17.2022 29.6363C16.5641 30.3829 15.4359 30.3829 14.7978 29.6363C12.1403 26.5273 6 18.7824 6 13.5946C6 10.669 6.97631 8.17181 8.92893 6.10308C10.8816 4.03436 13.2386 3 16 3C18.7614 3 21.1184 4.03436 23.0711 6.10308C25.0237 8.17181 26 10.669 26 13.5946ZM7.75 13.5946C7.75 11.1015 8.56506 9.0381 10.2016 7.30429C11.8348 5.57392 13.7364 4.75 16 4.75C18.2636 4.75 20.1652 5.57392 21.7984 7.3043C23.4349 9.0381 24.25 11.1015 24.25 13.5946C24.25 15.6451 22.9749 18.5038 21.1157 21.4643C19.3711 24.2422 17.3123 26.8047 16 28.349C14.6877 26.8047 12.6289 24.2422 10.8843 21.4643C9.02512 18.5038 7.75 15.6451 7.75 13.5946Z" fill="#292929"/>
</svg>
