<svg width="32" height="32" viewBox="0 0 32 32" fill="none" xmlns="http://www.w3.org/2000/svg">
<g clip-path="url(#clip0_5840_1985)">
<path fill-rule="evenodd" clip-rule="evenodd" d="M19.6666 24.9338C19.6666 25.5229 19.189 26.0005 18.5999 26.0005H14.3333C13.7442 26.0005 13.2666 25.5229 13.2666 24.9338V24.1338H19.6666V24.9338Z" fill="#FFBC0D"/>
<path fill-rule="evenodd" clip-rule="evenodd" d="M22.1368 18.3374C21.2017 19.5314 20.2452 20.7526 19.879 22.2173L19.6667 23.0667H13.2667L13.0543 22.2173C12.6882 20.7526 11.7316 19.5314 10.7965 18.3374C10.7217 18.242 10.6471 18.1467 10.573 18.0515C9.58719 16.7861 9 15.195 9 13.4667C9 9.34294 12.3429 6 16.4667 6C20.5904 6 23.9333 9.34294 23.9333 13.4667C23.9333 15.195 23.3461 16.7861 22.3604 18.0515C22.2862 18.1467 22.2116 18.2419 22.1368 18.3374ZM14.7726 14.9781C14.4081 14.6136 13.8172 14.6136 13.4527 14.9781L12.7927 15.638L13.4527 16.298C14.0461 16.8914 14.7709 17.2733 15.5335 17.4436V19.7334C15.5335 20.3225 16.011 20.8 16.6001 20.8H17.4001V17.4436C18.1627 17.2733 18.8875 16.8914 19.4809 16.298L20.1409 15.638L19.4809 14.9781C19.1164 14.6136 18.5255 14.6136 18.161 14.9781C17.2253 15.9137 15.7083 15.9137 14.7726 14.9781Z" fill="#FFBC0D"/>
</g>
<defs>
<clipPath id="clip0_5840_1985">
<rect width="32" height="32" fill="white"/>
</clipPath>
</defs>
</svg>
