<svg width="32" height="32" viewBox="0 0 32 32" fill="none" xmlns="http://www.w3.org/2000/svg">
<path d="M16.0001 21.4543C17.4467 21.4543 18.8342 20.8796 19.8572 19.8567C20.8801 18.8337 21.4548 17.4463 21.4548 15.9996C21.4548 14.5529 20.8801 13.1654 19.8572 12.1425C18.8342 11.1195 17.4467 10.5448 16.0001 10.5448C14.5534 10.5448 13.1659 11.1195 12.143 12.1425C11.12 13.1654 10.5453 14.5529 10.5453 15.9996C10.5453 17.4463 11.12 18.8337 12.143 19.8567C13.1659 20.8796 14.5534 21.4543 16.0001 21.4543ZM16.0001 26.9083C9.97531 26.9083 5.09131 22.0243 5.09131 15.9996C5.09131 9.97482 9.97531 5.09082 16.0001 5.09082C22.0248 5.09082 26.9088 9.97482 26.9088 15.9996C26.9088 22.0243 22.0248 26.9083 16.0001 26.9083Z" fill="#FFBC0D"/>
<path d="M16.1194 19.2726C15.5269 19.2726 15.0146 19.1136 14.5841 18.7956C14.1536 18.4776 13.8979 18.0253 13.8184 17.4388H15.0191C15.0739 17.6833 15.1976 17.8791 15.3904 18.0253C15.5831 18.1716 15.8261 18.2451 16.1194 18.2451C16.4861 18.2451 16.7794 18.1333 16.9991 17.9106C17.2189 17.6878 17.3291 17.4021 17.3291 17.0533C17.3291 16.7173 17.2219 16.4391 17.0081 16.2193C16.7944 15.9996 16.5101 15.8893 16.1554 15.8893C15.6664 15.8893 15.3116 16.0761 15.0919 16.4488H13.9279L14.5331 12.7266H17.9801V13.7353H15.5321L15.2666 15.2751C15.5539 15.0058 15.9574 14.8716 16.4764 14.8716C17.0816 14.8716 17.5811 15.0673 17.9749 15.4581C18.3686 15.8488 18.5659 16.3686 18.5659 17.0166C18.5659 17.6518 18.3349 18.1866 17.8736 18.6208C17.4124 19.0551 16.8274 19.2718 16.1179 19.2718L16.1194 19.2726Z" fill="#FFBC0D"/>
</svg>
