<svg width="32" height="32" viewBox="0 0 32 32" fill="none" xmlns="http://www.w3.org/2000/svg">
<path d="M15.9998 3.91699C22.6731 3.91699 28.0836 9.32671 28.0837 16C28.0837 22.6734 22.6732 28.084 15.9998 28.084C9.32646 28.0838 3.91675 22.6733 3.91675 16C3.91692 9.32682 9.32657 3.91717 15.9998 3.91699ZM9.0603 17.209C8.89038 17.2091 8.75418 17.3497 8.75952 17.5195C8.95368 20.7117 12.121 23.2508 15.9998 23.251C19.5974 23.251 22.583 21.0667 23.1521 18.2031C23.2597 17.6614 22.802 17.209 22.2498 17.209H9.0603ZM11.7712 9.95898C10.7702 9.95898 9.95874 10.7705 9.95874 11.7715C9.95891 12.7724 10.7703 13.584 11.7712 13.584C12.772 13.5838 13.5836 12.7723 13.5837 11.7715C13.5837 10.7706 12.7721 9.95915 11.7712 9.95898ZM20.2292 9.95898C19.2282 9.95898 18.4167 10.7705 18.4167 11.7715C18.4169 12.7724 19.2283 13.584 20.2292 13.584C21.2302 13.584 22.0416 12.7724 22.0417 11.7715C22.0417 10.7705 21.2303 9.95898 20.2292 9.95898Z" fill="#FFBC0D"/>
</svg>
