<svg width="32" height="32" viewBox="0 0 32 32" fill="none" xmlns="http://www.w3.org/2000/svg">
<path fill-rule="evenodd" clip-rule="evenodd" d="M16 27.4214C22.3079 27.4214 27.4214 22.3079 27.4214 16C27.4214 9.69212 22.3079 4.57857 16 4.57857C9.69212 4.57857 4.57857 9.69212 4.57857 16C4.57857 22.3079 9.69212 27.4214 16 27.4214ZM16 29C23.1797 29 29 23.1797 29 16C29 8.8203 23.1797 3 16 3C8.8203 3 3 8.8203 3 16C3 23.1797 8.8203 29 16 29Z" fill="#292929"/>
<path fill-rule="evenodd" clip-rule="evenodd" d="M19.2501 10.4287C20.532 10.4287 21.5708 15.8334 21.5708 22.5H23.4287C23.4287 15.32 21.5576 9.5 19.2501 9.5C17.9371 9.5 16.7658 11.2495 16.0001 13.9846C15.2344 11.2495 14.0631 9.5 12.7501 9.5C10.4432 9.5 8.57153 15.32 8.57153 22.5H10.4294C10.4294 15.8334 11.4687 10.4287 12.7501 10.4287C14.0321 10.4287 15.0715 15.4175 15.0715 21.5713H16.9287C16.9287 15.4175 17.9681 10.4287 19.2501 10.4287Z" fill="#292929"/>
</svg>
