<svg width="32" height="32" viewBox="0 0 32 32" fill="none" xmlns="http://www.w3.org/2000/svg">
<g clip-path="url(#clip0_5840_2146)">
<path d="M15.5449 4C15.9011 4 16.2519 4.08668 16.5674 4.25195L24.7871 8.76953C25.1836 8.97784 25.5153 9.29135 25.7451 9.67578C25.9748 10.0601 26.0941 10.5005 26.0898 10.9482V20.3369C26.0953 20.7504 25.9947 21.1583 25.7988 21.5225C25.6029 21.8867 25.3179 22.1956 24.9697 22.4189L16.75 27.6426C16.3869 27.8757 15.9647 27.9999 15.5332 28C15.1015 28 14.6786 27.8759 14.3154 27.6426L6.12012 22.4189C5.77201 22.1956 5.48697 21.8867 5.29102 21.5225C5.09512 21.1583 4.99454 20.7504 5 20.3369V10.9482C4.9946 10.5017 5.11228 10.062 5.33984 9.67773C5.56747 9.29339 5.89672 8.97946 6.29102 8.76953L14.5225 4.25195C14.838 4.08667 15.1887 4.00001 15.5449 4ZM6.21777 10.9482L6.20605 20.3369C6.20019 20.5467 6.24857 20.7549 6.34668 20.9404C6.44482 21.1259 6.58898 21.2833 6.76562 21.3965L14.9121 26.5713V15.8555L6.21777 10.8633V10.9482ZM16.1416 15.8555V26.5713L24.2754 21.3965C24.4521 21.2832 24.5972 21.126 24.6953 20.9404C24.7934 20.7549 24.8418 20.5467 24.8359 20.3369V10.8633L16.1416 15.8555ZM17.542 22.5166C17.9316 21.8834 18.5161 21.5299 18.8936 21.749C19.271 21.9682 19.2831 22.6623 18.8936 23.3076C18.504 23.9528 17.9195 24.2941 17.542 24.0752C17.1646 23.856 17.1525 23.1497 17.542 22.5166ZM22.4248 19.5938C22.8143 18.9487 23.3985 18.6201 23.7881 18.8389C24.1656 19.058 24.1656 19.7521 23.7881 20.3975C23.4106 21.0428 22.8144 21.3715 22.4248 21.1523C22.0352 20.9332 22.0352 20.2391 22.4248 19.5938ZM9.90723 17.4756C10.2725 17.2564 10.9062 17.5968 11.2715 18.2422C11.6488 18.8873 11.6364 19.5814 11.2715 19.8008C10.9062 20.0199 10.2725 19.6794 9.90723 19.0342C9.542 18.3889 9.54213 17.6949 9.90723 17.4756ZM17.542 16.8662C17.9315 16.2212 18.5278 15.8926 18.9053 16.1113C19.2827 16.3305 19.2949 17.0246 18.9053 17.6699C18.5156 18.3152 17.9682 18.6805 17.542 18.4248C17.1524 18.2056 17.1524 17.5115 17.542 16.8662ZM22.4121 13.9443C22.8016 13.2992 23.374 12.958 23.7637 13.1768C24.1411 13.3959 24.1533 14.1022 23.7637 14.7354C23.374 15.3685 22.7896 15.7221 22.4121 15.5029C22.0349 15.2837 22.0227 14.5895 22.4121 13.9443ZM15.5332 5.21387C15.3771 5.23303 15.2271 5.2871 15.0947 5.37207L6.875 9.90137L15.5332 14.7725L24.1904 9.90137L15.9951 5.32324C15.8512 5.25268 15.6934 5.21534 15.5332 5.21387ZM10.7471 9.04883C11.4777 9.0123 12.1109 9.34192 12.123 9.78027C12.1348 10.2184 11.551 10.6318 10.8086 10.6562C10.078 10.6928 9.44434 10.3641 9.44434 9.90137C9.44452 9.43885 10.0168 9.08545 10.7471 9.04883ZM20.415 9.07324C21.1575 9.03673 21.7662 9.3656 21.791 9.80371C21.8154 10.2421 21.231 10.6319 20.4883 10.6562C19.7457 10.6562 19.1367 10.3641 19.1123 9.92578C19.0881 9.48759 19.6726 9.1099 20.415 9.07324Z" fill="#292929"/>
</g>
<defs>
<clipPath id="clip0_5840_2146">
<rect width="32" height="32" fill="white"/>
</clipPath>
</defs>
</svg>
