<svg width="32" height="32" viewBox="0 0 32 32" fill="none" xmlns="http://www.w3.org/2000/svg">
<path d="M13.6592 4.23047C15.992 3.76651 18.4102 4.00595 20.6064 4.91895C22.8028 5.83201 24.6787 7.37732 25.9951 9.3584C27.0858 10.9998 27.7549 12.885 27.9443 14.8467C28.1337 16.8083 27.8375 18.7867 27.0811 20.6064C26.3245 22.4263 25.1307 24.032 23.6064 25.2812C22.0822 26.5304 20.2737 27.3851 18.3408 27.7695C16.4079 28.154 14.4097 28.0563 12.5234 27.4854C10.6373 26.9144 8.92065 25.8878 7.52539 24.4961C6.13005 23.1043 5.09911 21.3898 4.52344 19.5049C3.94783 17.6201 3.84504 15.6223 4.22461 13.6885C4.68276 11.3545 5.8242 9.20935 7.50391 7.52539C9.1837 5.84136 11.3263 4.69447 13.6592 4.23047ZM21.5957 6.79199C19.3799 5.4583 16.759 4.96474 14.21 5.40137C11.6607 5.83805 9.35263 7.17561 7.70703 9.1709C6.06162 11.166 5.18775 13.686 5.24414 16.2715C5.30065 18.8572 6.28443 21.3373 8.01562 23.2588C9.74674 25.1801 12.1101 26.4163 14.6758 26.7412C17.2416 27.0661 19.8396 26.4577 21.9951 25.0283C23.7809 23.8455 25.1739 22.157 25.9951 20.1787C26.988 17.7906 27.0895 15.125 26.2822 12.668C25.4749 10.2109 23.8115 8.12578 21.5957 6.79199ZM20.7744 14.6885H22.5752L22.7852 15.749H20.9951L21.1445 16.8086H22.9951L23.1943 17.8789H21.335L21.8047 20.5283L20.6543 20.7383L20.1543 17.8789H17.4746L15.9951 20.7783L14.5146 17.8789H11.835L11.335 20.7383L10.1846 20.5283L10.6543 17.8789H8.79492L8.99512 16.8086H10.8145L10.9951 15.749H9.23438L9.44434 14.6885H11.2246L11.9951 10.3291L14.2051 14.6885H17.7744L19.9951 10.3291L20.7744 14.6885ZM15.8145 17.8789L15.9951 18.2188L16.1748 17.8789H15.8145ZM12.1748 15.749L11.9951 16.8086H13.9951L13.4346 15.749H12.1748ZM14.7451 15.749L15.2744 16.8086H16.7148L17.2451 15.749H14.7451ZM18.5352 15.749L17.9951 16.8086H19.9951L19.7646 15.749H18.5352ZM12.3945 14.6885H12.8945L12.5244 13.959L12.3945 14.6885ZM19.0947 14.6885H19.5947L19.4648 13.959L19.0947 14.6885Z" fill="#292929"/>
</svg>
