<svg width="32" height="32" viewBox="0 0 32 32" fill="none" xmlns="http://www.w3.org/2000/svg">
<path fill-rule="evenodd" clip-rule="evenodd" d="M23.3883 21.519C23.3883 21.9442 23.5982 22.1572 23.8075 22.3695V15.4605C22.1305 14.9288 20.6635 12.4838 20.6635 9.933C20.6635 7.488 22.1313 6 24.4368 6C26.6373 6 28 7.5945 28 9.933C28 12.5903 26.533 15.0353 24.856 15.4605V22.6882C26.323 22.9005 27.1623 23.6445 27.0573 24.8137C26.9523 25.983 25.9045 26.727 24.5417 26.727H7.354C5.25775 26.727 4 25.5577 4 23.538C4 22.794 4.105 20.2432 6.72475 19.818C7.81314 19.6169 8.06111 18.8475 8.26153 18.2256C8.27338 18.1889 8.28507 18.1526 8.29675 18.117L8.40175 17.9047C9.03025 16.2037 10.288 14.9287 11.86 14.397C11.9041 14.388 11.9474 14.3791 11.9901 14.3702C12.4548 14.2741 12.8469 14.193 13.327 14.2905C14.4805 14.2905 15.6333 14.7157 16.681 15.5662C17.3981 16.0854 17.7145 16.808 18.12 17.7342C18.1293 17.7555 18.1386 17.7768 18.148 17.7982C18.4623 18.7552 18.9865 18.8617 19.72 18.7552C21.3943 18.5339 22.2595 18.7738 22.8075 19.7603C23.0485 20.1941 23.2281 20.7722 23.3883 21.519Z" fill="#FFBC0D"/>
</svg>
