<svg width="32" height="32" viewBox="0 0 32 32" fill="none" xmlns="http://www.w3.org/2000/svg">
<g clip-path="url(#clip0_5840_2067)">
<path fill-rule="evenodd" clip-rule="evenodd" d="M23.9241 6.19373C24.1302 6.35984 24.25 6.61031 24.25 6.87501V19.75H22.5V7.96066L12.75 10.0802V21.75H11V9.37501C11 8.96339 11.2869 8.60742 11.6891 8.51998L23.1891 6.01998C23.4478 5.96375 23.718 6.02763 23.9241 6.19373Z" fill="#292929"/>
<path fill-rule="evenodd" clip-rule="evenodd" d="M11.0793 21.8767C11.0795 21.8767 11.08 21.879 11.0802 21.8836C11.0793 21.8791 11.0791 21.8767 11.0793 21.8767ZM11.078 21.9201C11.0247 21.8784 10.8923 21.8028 10.6017 21.7533C10.0945 21.6669 9.34741 21.7269 8.52928 22.0575C7.71115 22.388 7.132 22.8638 6.8272 23.2783C6.65257 23.5157 6.60981 23.6621 6.60045 23.7291C6.65372 23.7708 6.78615 23.8464 7.07673 23.8959C7.5839 23.9823 8.331 23.9222 9.14913 23.5917C9.96726 23.2611 10.5464 22.7854 10.8512 22.3709C11.0258 22.1334 11.0686 21.9871 11.078 21.9201ZM6.56936 23.6989C6.5695 23.6988 6.57103 23.7005 6.57351 23.7044C6.57045 23.7009 6.56922 23.699 6.56936 23.6989ZM6.59909 23.7724C6.59891 23.7725 6.59843 23.7702 6.59819 23.7655C6.59915 23.7701 6.59927 23.7724 6.59909 23.7724ZM11.1049 21.9447C11.108 21.9482 11.1092 21.9502 11.1091 21.9503C11.1089 21.9504 11.1074 21.9487 11.1049 21.9447ZM9.80469 25.2142C11.9441 24.3499 13.2461 22.5793 12.7129 21.2595C12.1797 19.9397 10.0131 19.5705 7.87372 20.4349C5.73432 21.2993 4.43226 23.0699 4.96549 24.3897C5.49871 25.7094 7.6653 26.0786 9.80469 25.2142Z" fill="#292929"/>
<path fill-rule="evenodd" clip-rule="evenodd" d="M23.0793 19.8767C23.0795 19.8767 23.08 19.879 23.0802 19.8836C23.0793 19.8791 23.0791 19.8767 23.0793 19.8767ZM23.078 19.9201C23.0247 19.8784 22.8923 19.8028 22.6017 19.7533C22.0945 19.6669 21.3474 19.7269 20.5293 20.0575C19.7111 20.388 19.132 20.8638 18.8272 21.2783C18.6526 21.5157 18.6098 21.6621 18.6005 21.7291C18.6537 21.7708 18.7861 21.8464 19.0767 21.8959C19.5839 21.9823 20.331 21.9222 21.1491 21.5917C21.9673 21.2611 22.5464 20.7854 22.8512 20.3709C23.0258 20.1334 23.0686 19.9871 23.078 19.9201ZM18.5694 21.6989C18.5695 21.6988 18.571 21.7005 18.5735 21.7044C18.5705 21.7009 18.5692 21.699 18.5694 21.6989ZM18.5991 21.7724C18.5989 21.7725 18.5984 21.7702 18.5982 21.7655C18.5991 21.7701 18.5993 21.7724 18.5991 21.7724ZM23.1049 19.9447C23.108 19.9482 23.1092 19.9502 23.1091 19.9503C23.1089 19.9504 23.1074 19.9487 23.1049 19.9447ZM21.8047 23.2142C23.9441 22.3499 25.2461 20.5793 24.7129 19.2595C24.1797 17.9397 22.0131 17.5705 19.8737 18.4349C17.7343 19.2993 16.4323 21.0699 16.9655 22.3897C17.4987 23.7094 19.6653 24.0786 21.8047 23.2142Z" fill="#292929"/>
<path fill-rule="evenodd" clip-rule="evenodd" d="M23.3507 11.7145L12.3507 13.9645L12 12.25L23 10L23.3507 11.7145Z" fill="#292929"/>
</g>
<defs>
<clipPath id="clip0_5840_2067">
<rect width="32" height="32" fill="white"/>
</clipPath>
</defs>
</svg>
