<svg width="32" height="32" viewBox="0 0 32 32" fill="none" xmlns="http://www.w3.org/2000/svg">
<path fill-rule="evenodd" clip-rule="evenodd" d="M8.30383 5.09511C8.02455 4.95548 7.69289 4.9704 7.42728 5.13455C7.16167 5.29871 7 5.58868 7 5.90092V27.0991C7 27.5966 7.40336 28 7.90092 28H24.8594C25.357 28 25.7604 27.5966 25.7604 27.0991V5.90092C25.7604 5.58868 25.5987 5.29871 25.3331 5.13455C25.0675 4.9704 24.7358 4.95548 24.4565 5.09511L22.7396 5.95357L21.0227 5.09511C20.7691 4.9683 20.4705 4.9683 20.2169 5.09511L18.5 5.95357L16.7831 5.09511C16.5295 4.9683 16.2309 4.9683 15.9773 5.09511L14.2604 5.95357L12.5435 5.09511C12.2898 4.9683 11.9913 4.9683 11.7376 5.09511L10.0207 5.95357L8.30383 5.09511ZM21.7943 25.509C21.7943 18.4853 22.9297 12.7906 24.3295 12.7906V11.7304C22.8956 11.7304 21.6175 13.7271 20.7805 16.8498C19.9452 13.7271 18.6654 11.7304 17.2316 11.7304C14.7126 11.7304 12.6705 18.3732 12.6705 26.5691H14.698C14.698 18.9585 15.8334 12.7906 17.2316 12.7906C18.633 12.7906 19.7668 18.4853 19.7668 25.509H21.7943Z" fill="#FFBC0D"/>
</svg>
