<svg width="32" height="32" viewBox="0 0 32 32" fill="none" xmlns="http://www.w3.org/2000/svg">
<g clip-path="url(#clip0_5747_44972)">
<path fill-rule="evenodd" clip-rule="evenodd" d="M21.34 21.431H25.0445C25.1323 21.431 25.2035 21.3598 25.2035 21.272V7.909C25.2035 7.82119 25.1323 7.75 25.0445 7.75H6.909C6.82118 7.75 6.75 7.82118 6.75 7.909V21.272C6.75 21.3598 6.82118 21.431 6.909 21.431H17.8752L21.34 25.0438V21.431ZM21.5781 27.8203L17.1288 23.181H6.909C5.85469 23.181 5 22.3263 5 21.272V7.909C5 6.85469 5.85469 6 6.909 6H25.0445C26.0988 6 26.9535 6.85469 26.9535 7.909V21.272C26.9535 22.3263 26.0988 23.181 25.0445 23.181H23.09V27.0455C23.09 27.5727 22.6626 28 22.1355 28C21.9354 28 21.7404 27.9372 21.5781 27.8203Z" fill="#292929"/>
</g>
<defs>
<clipPath id="clip0_5747_44972">
<rect width="32" height="32" fill="white"/>
</clipPath>
</defs>
</svg>
