<svg width="32" height="32" viewBox="0 0 32 32" fill="none" xmlns="http://www.w3.org/2000/svg">
<g clip-path="url(#clip0_5840_1977)">
<path fill-rule="evenodd" clip-rule="evenodd" d="M23.9241 6.19373C24.1302 6.35984 24.25 6.61031 24.25 6.87501V19.75H22.5V7.96066L12.75 10.0802V21.75H11V9.37501C11 8.96339 11.2869 8.60742 11.6891 8.51998L23.1891 6.01998C23.4478 5.96375 23.718 6.02763 23.9241 6.19373Z" fill="#FFBC0D"/>
<path d="M12.7129 21.2595C13.2461 22.5793 11.9441 24.3499 9.80469 25.2142C7.6653 26.0786 5.49871 25.7094 4.96549 24.3897C4.43226 23.0699 5.73432 21.2993 7.87372 20.4349C10.0131 19.5705 12.1797 19.9397 12.7129 21.2595Z" fill="#FFBC0D"/>
<path d="M23.7129 19.2595C24.2461 20.5793 22.9441 22.3499 20.8047 23.2142C18.6653 24.0786 16.4987 23.7094 15.9655 22.3897C15.4323 21.0699 16.7343 19.2993 18.8737 18.4349C21.0131 17.5705 23.1797 17.9397 23.7129 19.2595Z" fill="#FFBC0D"/>
<path fill-rule="evenodd" clip-rule="evenodd" d="M23.3507 11.7145L12.3507 13.9645L12 12.25L23 10L23.3507 11.7145Z" fill="#FFBC0D"/>
</g>
<defs>
<clipPath id="clip0_5840_1977">
<rect width="32" height="32" fill="white"/>
</clipPath>
</defs>
</svg>
