<svg width="32" height="32" viewBox="0 0 32 32" fill="none" xmlns="http://www.w3.org/2000/svg">
<path fill-rule="evenodd" clip-rule="evenodd" d="M4 16.4754C4 9.58545 9.58538 4 16.4754 4C23.3654 4 28.9508 9.58544 28.9508 16.4754C28.9508 23.3654 23.3654 28.9507 16.4754 28.9507C9.58539 28.9507 4 23.3654 4 16.4754ZM16.4754 5C10.1377 5 5 10.1377 5 16.4754C5 22.8131 10.1377 27.9507 16.4754 27.9507C22.8131 27.9507 27.9508 22.8131 27.9508 16.4754C27.9508 10.1377 22.8131 5 16.4754 5ZM13 23.4507C13.2761 23.4507 13.5 23.2268 13.5 22.9507C13.5 22.6745 13.2761 22.4507 13 22.4507C12.7239 22.4507 12.5 22.6745 12.5 22.9507C12.5 23.2268 12.7239 23.4507 13 23.4507ZM20 23.4507C20.2761 23.4507 20.5 23.2268 20.5 22.9507C20.5 22.6745 20.2761 22.4507 20 22.4507C19.7239 22.4507 19.5 22.6745 19.5 22.9507C19.5 23.2268 19.7239 23.4507 20 23.4507ZM19.1001 23.3208C19.1001 23.5969 18.8762 23.8208 18.6001 23.8208C18.324 23.8208 18.1001 23.5969 18.1001 23.3208C18.1001 23.0447 18.324 22.8208 18.6001 22.8208C18.8762 22.8208 19.1001 23.0447 19.1001 23.3208ZM17.2 23.9507C17.4761 23.9507 17.7 23.7268 17.7 23.4507C17.7 23.1745 17.4761 22.9507 17.2 22.9507C16.9238 22.9507 16.7 23.1745 16.7 23.4507C16.7 23.7268 16.9238 23.9507 17.2 23.9507ZM16.3 23.4507C16.3 23.7268 16.0762 23.9507 15.8 23.9507C15.5239 23.9507 15.3 23.7268 15.3 23.4507C15.3 23.1745 15.5239 22.9507 15.8 22.9507C16.0762 22.9507 16.3 23.1745 16.3 23.4507ZM14.3999 23.8208C14.676 23.8208 14.8999 23.5969 14.8999 23.3208C14.8999 23.0447 14.676 22.8208 14.3999 22.8208C14.1238 22.8208 13.8999 23.0447 13.8999 23.3208C13.8999 23.5969 14.1238 23.8208 14.3999 23.8208ZM20.9999 19.4507C20.9999 14.3223 20.1606 10.1649 19.125 10.1649C18.0898 10.1649 17.2499 14.0027 17.2499 18.7365H15.7503C15.7503 14.0027 14.9107 10.1649 13.8751 10.1649C12.8398 10.1649 12.0002 14.3223 12.0002 19.4507H10.5C10.5 13.9278 12.0113 9.45068 13.8751 9.45068C14.9353 9.45068 15.8816 10.7962 16.5001 12.9004C17.1189 10.7962 18.0648 9.45068 19.125 9.45068C20.989 9.45068 22.5 13.9278 22.5 19.4507H20.9999ZM11.5 20.4507C10.9477 20.4507 10.5 20.8984 10.5 21.4507C10.5 22.003 10.9477 22.4507 11.5 22.4507C12.0524 22.4507 12.5 22.003 12.5 21.4507C12.5 20.8984 12.0524 20.4507 11.5 20.4507ZM11.5 20.7474C11.8878 20.7474 12.2033 21.0629 12.2033 21.4507C12.2033 21.6386 12.1301 21.8151 11.9973 21.948C11.8645 22.0807 11.6878 22.1539 11.5 22.1539C11.1123 22.1539 10.7967 21.8384 10.7967 21.4507C10.7967 21.2629 10.8699 21.0862 11.0027 20.9535C11.1356 20.8206 11.3122 20.7474 11.5 20.7474ZM21.4999 22.4507C22.0522 22.4507 22.5 22.003 22.5 21.4507C22.5 20.8983 22.0522 20.4507 21.4999 20.4507C20.9477 20.4507 20.5 20.8983 20.5 21.4507C20.5 22.003 20.9477 22.4507 21.4999 22.4507Z" fill="#292929"/>
</svg>
