<svg width="32" height="32" viewBox="0 0 32 32" fill="none" xmlns="http://www.w3.org/2000/svg">
<path fill-rule="evenodd" clip-rule="evenodd" d="M7.38052 5.11983C7.61706 4.97364 7.91242 4.96035 8.16114 5.0847L9.94186 5.97507L11.7226 5.0847C11.9485 4.97177 12.2143 4.97177 12.4402 5.0847L14.2209 5.97507L16.0017 5.0847C16.2275 4.97177 16.4934 4.97177 16.7193 5.0847L18.5 5.97507L20.2807 5.0847C20.5066 4.97177 20.7725 4.97177 20.9983 5.0847L22.7791 5.97507L24.5598 5.0847C24.8085 4.96035 25.1039 4.97364 25.3404 5.11983C25.577 5.26602 25.7209 5.52426 25.7209 5.80233V27.1977C25.7209 27.6408 25.3617 28 24.9186 28H7.80233C7.35921 28 7 27.6408 7 27.1977V5.80233C7 5.52426 7.14398 5.26602 7.38052 5.11983ZM8.60465 7.10052V26.3953H24.1163V7.10052L23.1379 7.58972C22.912 7.70265 22.6461 7.70265 22.4203 7.58972L20.6395 6.69935L18.8588 7.58972C18.6329 7.70265 18.3671 7.70265 18.1412 7.58972L16.3605 6.69935L14.5797 7.58972C14.3539 7.70265 14.088 7.70265 13.8621 7.58972L12.0814 6.69935L10.3007 7.58972C10.0748 7.70265 9.80893 7.70265 9.58305 7.58972L8.60465 7.10052Z" fill="#292929"/>
<path d="M24.7674 13.07C23.3546 13.07 22.2087 18.8177 22.2087 25.9067H20.1623C20.1623 18.8177 19.018 13.07 17.6035 13.07C16.1923 13.07 15.0464 19.2953 15.0464 26.9767H13C13 18.7046 15.0611 12 17.6035 12C19.0507 12 20.3424 14.0152 21.1855 17.167C22.0302 14.0152 23.3202 12 24.7674 12V13.07Z" fill="#292929"/>
</svg>
