<svg width="32" height="32" viewBox="0 0 32 32" fill="none" xmlns="http://www.w3.org/2000/svg">
<path fill-rule="evenodd" clip-rule="evenodd" d="M18.736 13.8927C19.9047 13.8927 20.8518 19.0911 20.8518 25.5041H22.5461C22.5461 18.5986 20.8394 13 18.736 13C17.5395 13 16.4707 14.6821 15.773 17.3134C15.0743 14.6821 14.0066 13 12.8101 13C10.7056 13 9 18.5986 9 25.5041H10.6933C10.6933 19.0911 11.6414 13.8927 12.8101 13.8927C13.9788 13.8927 14.9269 18.6921 14.9269 24.6103H16.6202C16.6202 18.6921 17.5673 13.8927 18.736 13.8927Z" fill="#FFBC0D"/>
<path fill-rule="evenodd" clip-rule="evenodd" d="M25.2677 25.4767C26.2878 23.7908 26.8749 21.8137 26.8749 19.6994C26.8749 13.5274 21.8715 8.52393 15.6994 8.52393C9.52737 8.52393 4.52393 13.5274 4.52393 19.6994C4.52393 21.8137 5.11105 23.7908 6.13113 25.4767H4.38716C3.5003 23.7436 3 21.7799 3 19.6994C3 12.6857 8.68573 7 15.6994 7C22.7131 7 28.3989 12.6857 28.3989 19.6994C28.3989 21.7799 27.8986 23.7436 27.0117 25.4767H25.2677Z" fill="url(#paint0_linear_5840_1921)"/>
<path fill-rule="evenodd" clip-rule="evenodd" d="M31.4786 25.7051H0V24H31.4786V25.7051Z" fill="#FFBC0D"/>
<defs>
<linearGradient id="paint0_linear_5840_1921" x1="28.3989" y1="16.2383" x2="3" y2="16.2383" gradientUnits="userSpaceOnUse">
<stop offset="0.0006" stop-color="#910063"/>
<stop offset="0.0362" stop-color="#990059"/>
<stop offset="0.1727" stop-color="#B60035"/>
<stop offset="0.3012" stop-color="#CA001C"/>
<stop offset="0.4172" stop-color="#D7000C"/>
<stop offset="0.5101" stop-color="#DB0007"/>
<stop offset="1" stop-color="#E8720A"/>
</linearGradient>
</defs>
</svg>
