<svg width="32" height="32" viewBox="0 0 32 32" fill="none" xmlns="http://www.w3.org/2000/svg">
<path fill-rule="evenodd" clip-rule="evenodd" d="M5.75 26.25H26.25V20C26.25 14.3391 21.6609 9.75 16 9.75C10.3391 9.75 5.75 14.3391 5.75 20V26.25ZM4 26.3333C4 27.2538 4.74619 28 5.66667 28H26.3333C27.2538 28 28 27.2538 28 26.3333V20C28 13.3726 22.6274 8 16 8C9.37258 8 4 13.3726 4 20L4 26.3333Z" fill="#292929"/>
<path fill-rule="evenodd" clip-rule="evenodd" d="M16 23.25C18.8995 23.25 21.25 20.8995 21.25 18C21.25 15.1005 18.8995 12.75 16 12.75C13.1005 12.75 10.75 15.1005 10.75 18C10.75 20.8995 13.1005 23.25 16 23.25ZM16 25C19.866 25 23 21.866 23 18C23 14.134 19.866 11 16 11C12.134 11 9 14.134 9 18C9 21.866 12.134 25 16 25Z" fill="#292929"/>
<path fill-rule="evenodd" clip-rule="evenodd" d="M14.6602 15.0749C16.1455 16.1391 17.0066 16.9141 17.2435 17.3999C17.6441 18.2213 17.303 19.2118 16.4817 19.6124C15.6604 20.013 14.6699 19.6719 14.2693 18.8506C14.0323 18.3648 13.9518 17.2091 14.0276 15.3835L14.0274 15.3835C14.0366 15.1627 14.223 14.9912 14.4438 15.0004C14.5217 15.0036 14.5969 15.0295 14.6602 15.0749Z" fill="#292929"/>
<path fill-rule="evenodd" clip-rule="evenodd" d="M16.75 5V9H15V5H16.75Z" fill="#292929"/>
<path d="M5 5.75C4.44772 5.75 4 5.30228 4 4.75V4H27.75V4.75C27.75 5.30228 27.3023 5.75 26.75 5.75H5Z" fill="#292929"/>
</svg>
