<svg width="32" height="32" viewBox="0 0 32 32" fill="none" xmlns="http://www.w3.org/2000/svg">
<path fill-rule="evenodd" clip-rule="evenodd" d="M10.75 17.875C10.75 20.7745 13.1005 23.125 16 23.125C18.8995 23.125 21.25 20.7745 21.25 17.875C21.25 14.9755 18.8995 12.625 16 12.625C13.1005 12.625 10.75 14.9755 10.75 17.875ZM17.589 17.5044C17.3521 17.0185 16.491 16.2435 15.0057 15.1793C14.9424 15.1339 14.8671 15.108 14.7893 15.1048C14.5685 15.0956 14.3821 15.2672 14.3729 15.4879C14.2971 17.3135 14.3778 18.4692 14.6148 18.955C15.0154 19.7763 16.0059 20.1174 16.8272 19.7168C17.6485 19.3162 17.9896 18.3257 17.589 17.5044Z" fill="#FFBC0D"/>
<path fill-rule="evenodd" clip-rule="evenodd" d="M5.66667 27.875C4.74619 27.875 4 27.1288 4 26.2083V19.875C4 13.2476 9.37258 7.875 16 7.875C22.6274 7.875 28 13.2476 28 19.875V26.2083C28 27.1288 27.2538 27.875 26.3333 27.875H5.66667ZM23 17.875C23 21.741 19.866 24.875 16 24.875C12.134 24.875 9 21.741 9 17.875C9 14.009 12.134 10.875 16 10.875C19.866 10.875 23 14.009 23 17.875Z" fill="#FFBC0D"/>
<path d="M4 4H28V5C28 5.55228 27.5523 6 27 6H5C4.44772 6 4 5.55228 4 5V4Z" fill="#FFBC0D"/>
<rect x="15" y="5" width="1.5" height="4" fill="#FFBC0D"/>
</svg>
