<svg width="32" height="32" viewBox="0 0 32 32" fill="none" xmlns="http://www.w3.org/2000/svg">
<path fill-rule="evenodd" clip-rule="evenodd" d="M19.2891 14.9116V10.4375C19.2891 8.31034 17.5647 6.58594 15.4375 6.58594C13.3103 6.58594 11.5859 8.31034 11.5859 10.4375V14.9116H19.2891ZM20.875 10.4375C20.875 7.43445 18.4405 5 15.4375 5C12.4345 5 10 7.43445 10 10.4375V16.4975H20.875V10.4375Z" fill="#292929"/>
<path fill-rule="evenodd" clip-rule="evenodd" d="M22.3125 16.5859H7.8125C7.68737 16.5859 7.58594 16.6874 7.58594 16.8125V25.875C7.58594 26.0001 7.68737 26.1016 7.8125 26.1016H22.3125C22.4376 26.1016 22.5391 26.0001 22.5391 25.875V16.8125C22.5391 16.6874 22.4376 16.5859 22.3125 16.5859ZM7.8125 15C6.81148 15 6 15.8115 6 16.8125V25.875C6 26.876 6.81148 27.6875 7.8125 27.6875H22.3125C23.3135 27.6875 24.125 26.876 24.125 25.875V16.8125C24.125 15.8115 23.3135 15 22.3125 15H7.8125Z" fill="#292929"/>
<path d="M14 19.5434C14 18.691 14.691 18 15.5434 18C15.5669 18 15.5859 18.0191 15.5859 18.0426V23.2109H14V19.5434Z" fill="#292929"/>
</svg>
