<svg width="32" height="32" viewBox="0 0 32 32" fill="none" xmlns="http://www.w3.org/2000/svg">
<path fill-rule="evenodd" clip-rule="evenodd" d="M19.0722 14.128C18.8158 14.1068 18.5631 14.1994 18.3813 14.3813L14 18.7626L12.6187 17.3813C12.277 17.0396 11.723 17.0396 11.3813 17.3813L7 22V23H25V22L19.712 14.4914C19.5625 14.2821 19.3285 14.1492 19.0722 14.128Z" fill="#FFBC0D"/>
<path fill-rule="evenodd" clip-rule="evenodd" d="M8.125 13C8.125 11.4122 9.41218 10.125 11 10.125C12.5878 10.125 13.875 11.4122 13.875 13C13.875 14.5878 12.5878 15.875 11 15.875C9.41218 15.875 8.125 14.5878 8.125 13Z" fill="#FFBC0D"/>
<path fill-rule="evenodd" clip-rule="evenodd" d="M6 6.875C5.37868 6.875 4.875 7.37868 4.875 8V10C4.875 10.4832 4.48325 10.875 4 10.875C3.51675 10.875 3.125 10.4832 3.125 10V8C3.125 6.41218 4.41218 5.125 6 5.125H7.66667C8.14992 5.125 8.54167 5.51675 8.54167 6C8.54167 6.48325 8.14992 6.875 7.66667 6.875H6ZM10.125 6C10.125 5.51675 10.5168 5.125 11 5.125H14.3333C14.8166 5.125 15.2083 5.51675 15.2083 6C15.2083 6.48325 14.8166 6.875 14.3333 6.875H11C10.5168 6.875 10.125 6.48325 10.125 6ZM16.7917 6C16.7917 5.51675 17.1834 5.125 17.6667 5.125H21C21.4832 5.125 21.875 5.51675 21.875 6C21.875 6.48325 21.4832 6.875 21 6.875H17.6667C17.1834 6.875 16.7917 6.48325 16.7917 6ZM23.4583 6C23.4583 5.51675 23.8501 5.125 24.3333 5.125H26C27.5878 5.125 28.875 6.41218 28.875 8V10C28.875 10.4832 28.4832 10.875 28 10.875C27.5168 10.875 27.125 10.4832 27.125 10V8C27.125 7.37868 26.6213 6.875 26 6.875H24.3333C23.8501 6.875 23.4583 6.48325 23.4583 6ZM28 13.125C28.4832 13.125 28.875 13.5168 28.875 14V18C28.875 18.4832 28.4832 18.875 28 18.875C27.5168 18.875 27.125 18.4832 27.125 18V14C27.125 13.5168 27.5168 13.125 28 13.125ZM4 13.125C4.48325 13.125 4.875 13.5168 4.875 14V18C4.875 18.4832 4.48325 18.875 4 18.875C3.51675 18.875 3.125 18.4832 3.125 18V14C3.125 13.5168 3.51675 13.125 4 13.125ZM4 21.125C4.48325 21.125 4.875 21.5168 4.875 22V24C4.875 24.6213 5.37868 25.125 6 25.125H7.66667C8.14992 25.125 8.54167 25.5168 8.54167 26C8.54167 26.4832 8.14992 26.875 7.66667 26.875H6C4.41218 26.875 3.125 25.5878 3.125 24V22C3.125 21.5168 3.51675 21.125 4 21.125ZM28 21.125C28.4832 21.125 28.875 21.5168 28.875 22V24C28.875 25.5878 27.5878 26.875 26 26.875H24.3333C23.8501 26.875 23.4583 26.4832 23.4583 26C23.4583 25.5168 23.8501 25.125 24.3333 25.125H26C26.6213 25.125 27.125 24.6213 27.125 24V22C27.125 21.5168 27.5168 21.125 28 21.125ZM10.125 26C10.125 25.5168 10.5168 25.125 11 25.125H14.3333C14.8166 25.125 15.2083 25.5168 15.2083 26C15.2083 26.4832 14.8166 26.875 14.3333 26.875H11C10.5168 26.875 10.125 26.4832 10.125 26ZM16.7917 26C16.7917 25.5168 17.1834 25.125 17.6667 25.125H21C21.4832 25.125 21.875 25.5168 21.875 26C21.875 26.4832 21.4832 26.875 21 26.875H17.6667C17.1834 26.875 16.7917 26.4832 16.7917 26Z" fill="#FFBC0D"/>
</svg>
