<svg width="32" height="32" viewBox="0 0 32 32" fill="none" xmlns="http://www.w3.org/2000/svg">
<path fill-rule="evenodd" clip-rule="evenodd" d="M19.7472 17.0712C21.0444 15.9096 21.8606 14.222 21.8606 12.3438C21.8606 8.84019 19.0204 6 15.5169 6C12.0133 6 9.17314 8.84019 9.17314 12.3438C9.17314 14.222 9.98938 15.9095 11.2865 17.0711C11.3504 17.1283 11.4155 17.1843 11.4817 17.2389C12.5783 18.1439 13.9841 18.6875 15.5169 18.6875C17.1422 18.6875 18.6247 18.0763 19.7472 17.0712ZM6 21.6895C6 20.0493 7.41447 18.5881 9.61878 17.6441C11.0704 19.2583 13.1751 20.2734 15.5169 20.2734C17.8586 20.2734 19.9633 19.2584 21.4149 17.6442C23.619 18.5882 25.0333 20.0494 25.0333 21.6895C25.0333 24.5361 20.7726 26.8438 15.5167 26.8438C10.2608 26.8438 6 24.5361 6 21.6895Z" fill="#FFBC0D"/>
</svg>
