<svg width="32" height="32" viewBox="0 0 32 32" fill="none" xmlns="http://www.w3.org/2000/svg">
<path fill-rule="evenodd" clip-rule="evenodd" d="M14.6977 6.72993C14.6977 5.97966 14.1026 5.37144 13.3684 5.37144C12.6342 5.37144 12.0391 5.97966 12.0391 6.72993V19.862C12.0391 20.1121 11.8407 20.3148 11.596 20.3148C11.1529 20.3148 10.7943 19.7652 10.4811 19.2851L10.2667 18.9563L9.61807 18.0284L9.3347 17.7388C8.54577 16.9326 7.31671 16.7895 6.37058 17.3938C5.55677 17.9161 6.25413 18.8998 6.8326 19.7158C6.99215 19.9408 7.14265 20.1531 7.24991 20.3395L9.73574 24.6581C10.7707 26.4561 12.6596 27.5601 14.7008 27.5601H22.2421L24.1498 24.2812C24.9239 22.9509 25.3324 21.4318 25.3324 19.884V10.3526C25.3324 9.6023 24.7373 8.99408 24.0031 8.99408C23.2689 8.99408 22.6738 9.6023 22.6738 10.3526V15.4572C22.6738 15.7073 22.4754 15.91 22.2307 15.91C21.9859 15.91 21.7875 15.7073 21.7875 15.4572V12.172L21.7875 12.1639V7.63559C21.7875 6.88532 21.1923 6.2771 20.4581 6.2771C19.724 6.2771 19.1288 6.88532 19.1288 7.63559V13.0696C19.1288 13.3196 18.9304 13.5224 18.6857 13.5224C18.441 13.5224 18.2426 13.3196 18.2426 13.0696L18.2426 5.35849C18.2426 4.60822 17.6474 4 16.9132 4C16.1791 4 15.5839 4.60822 15.5839 5.35849L15.5839 13.0696C15.5839 13.3196 15.3856 13.5224 15.1408 13.5224C14.8961 13.5224 14.6977 13.3196 14.6977 13.0696V6.72993ZM15.2037 19.0028L14.3323 19.0826L14.4121 19.9539C14.4561 20.4352 14.8819 20.7896 15.3632 20.7455C16.8153 20.6126 17.9903 21.3043 18.4185 22.1869C18.6294 22.6217 19.1529 22.8032 19.5877 22.5922L20.3749 22.2103L19.993 21.423C19.1882 19.7642 17.2375 18.8167 15.2037 19.0028Z" fill="#FFBC0D"/>
</svg>
