<svg width="32" height="32" viewBox="0 0 32 32" fill="none" xmlns="http://www.w3.org/2000/svg">
<g clip-path="url(#clip0_5840_2059)">
<path fill-rule="evenodd" clip-rule="evenodd" d="M10 4.75C9.86193 4.75 9.75 4.86193 9.75 5V20C9.75 20.1381 9.86193 20.25 10 20.25H23C23.1381 20.25 23.25 20.1381 23.25 20V5C23.25 4.86193 23.1381 4.75 23 4.75H10ZM8 5V20V27C8 28.1046 8.89543 29 10 29H23C24.1046 29 25 28.1046 25 27V20V5C25 3.89543 24.1046 3 23 3H10C8.89543 3 8 3.89543 8 5ZM23.25 27V21.9845C23.1681 21.9947 23.0847 22 23 22H10C9.91533 22 9.8319 21.9947 9.75 21.9845V27C9.75 27.1381 9.86193 27.25 10 27.25H23C23.1381 27.25 23.25 27.1381 23.25 27ZM16.5 26C17.3284 26 18 25.3284 18 24.5C18 23.6716 17.3284 23 16.5 23C15.6716 23 15 23.6716 15 24.5C15 25.3284 15.6716 26 16.5 26Z" fill="#292929"/>
</g>
<defs>
<clipPath id="clip0_5840_2059">
<rect width="32" height="32" fill="white"/>
</clipPath>
</defs>
</svg>
