<svg width="32" height="32" viewBox="0 0 32 32" fill="none" xmlns="http://www.w3.org/2000/svg">
<g clip-path="url(#clip0_5840_1979)">
<path fill-rule="evenodd" clip-rule="evenodd" d="M14.123 19.4279C14.37 19.0126 14.907 18.8761 15.3223 19.123L14.8751 19.8751C15.3223 19.123 15.322 19.1229 15.3223 19.123L15.3236 19.1238L15.3251 19.1247L15.3286 19.1268L15.3382 19.1326L15.3668 19.1504C15.3899 19.1649 15.4209 19.185 15.4588 19.2104C15.5346 19.2612 15.6382 19.3339 15.7604 19.4282C16.0037 19.616 16.3272 19.8941 16.653 20.2601C17.2996 20.9868 18.0015 22.1154 18.0161 23.5998C18.0231 24.3029 17.9108 24.8657 17.7202 25.3499C17.5334 25.8243 17.2834 26.1885 17.0827 26.476C17.0721 26.4912 17.0616 26.5063 17.0511 26.5212C16.6841 27.0464 16.4451 27.3884 16.4437 28.1434C16.4421 29.0474 16.6769 29.6248 16.877 29.9579C16.979 30.1278 17.0767 30.2418 17.1402 30.3071C17.1719 30.3398 17.1951 30.3603 17.2057 30.3693C17.2077 30.371 17.2092 30.3723 17.2103 30.3731C17.5915 30.6565 17.6775 31.1941 17.4007 31.5828C17.1203 31.9764 16.5739 32.0682 16.1803 31.7878L16.688 31.0751C16.1803 31.7878 16.1799 31.7875 16.1794 31.7872L16.1785 31.7865L16.1766 31.7852L16.1725 31.7822L16.1629 31.7751C16.156 31.77 16.148 31.764 16.1391 31.757C16.1211 31.7431 16.0991 31.7254 16.0737 31.7039C16.023 31.6608 15.9584 31.6021 15.8849 31.5265C15.7379 31.3752 15.5551 31.1558 15.3768 30.859C15.0163 30.2588 14.6915 29.3696 14.6937 28.1402C14.6961 26.8331 15.2022 26.1105 15.6026 25.5389C15.6178 25.5171 15.6329 25.4956 15.6478 25.4743C15.8427 25.1951 15.9866 24.9759 16.0918 24.7087C16.1932 24.4513 16.2711 24.114 16.2662 23.6171C16.2572 22.7015 15.8261 21.9635 15.3456 21.4235C15.1078 21.1562 14.8692 20.951 14.6913 20.8137C14.603 20.7455 14.5312 20.6954 14.4842 20.6639C14.4608 20.6481 14.4436 20.6372 14.4339 20.631L14.4249 20.6254L14.426 20.6261L14.4274 20.6269C14.0124 20.3798 13.8762 19.8431 14.123 19.4279Z" fill="#FFBC0D"/>
<path fill-rule="evenodd" clip-rule="evenodd" d="M14.2229 16.2598C14.2814 16.1036 14.4307 16 14.5976 16H17.4497C17.6165 16 17.7658 16.1036 17.8243 16.2598L19.0215 19.4598C19.1194 19.7213 18.9261 20 18.6469 20H13.4004C13.1212 20 12.9279 19.7213 13.0257 19.4598L14.2229 16.2598Z" fill="#FFBC0D"/>
<path fill-rule="evenodd" clip-rule="evenodd" d="M16 18C20.4183 18 24 14.4183 24 10C24 5.58172 20.4183 2 16 2C11.5817 2 8 5.58172 8 10C8 14.4183 11.5817 18 16 18ZM12.4944 9.63153C12.5449 9.15093 12.1963 8.72038 11.7157 8.66986C11.2351 8.61935 10.8045 8.968 10.754 9.44861C10.4495 12.3459 12.5514 14.9416 15.4487 15.2461C15.9293 15.2966 16.3599 14.948 16.4104 14.4674C16.4609 13.9868 16.1122 13.5562 15.6316 13.5057C13.6955 13.3022 12.2909 11.5677 12.4944 9.63153Z" fill="#FFBC0D"/>
</g>
<defs>
<clipPath id="clip0_5840_1979">
<rect width="32" height="32" fill="white"/>
</clipPath>
</defs>
</svg>
