<svg width="32" height="32" viewBox="0 0 32 32" fill="none" xmlns="http://www.w3.org/2000/svg">
<g clip-path="url(#clip0_5747_44895)">
<path fill-rule="evenodd" clip-rule="evenodd" d="M24 21H9V28H24V21ZM16.5 26C17.3284 26 18 25.3284 18 24.5C18 23.6716 17.3284 23 16.5 23C15.6716 23 15 23.6716 15 24.5C15 25.3284 15.6716 26 16.5 26Z" fill="#FFBC0D"/>
<path fill-rule="evenodd" clip-rule="evenodd" d="M23 4.75H10C9.86193 4.75 9.75 4.86193 9.75 5V27C9.75 27.1381 9.86193 27.25 10 27.25H23C23.1381 27.25 23.25 27.1381 23.25 27V5C23.25 4.86193 23.1381 4.75 23 4.75ZM10 3C8.89543 3 8 3.89543 8 5V27C8 28.1046 8.89543 29 10 29H23C24.1046 29 25 28.1046 25 27V5C25 3.89543 24.1046 3 23 3H10Z" fill="#FFBC0D"/>
<path fill-rule="evenodd" clip-rule="evenodd" d="M23 4.75H10C9.86193 4.75 9.75 4.86193 9.75 5V20C9.75 20.1381 9.86193 20.25 10 20.25H23C23.1381 20.25 23.25 20.1381 23.25 20V5C23.25 4.86193 23.1381 4.75 23 4.75ZM10 3C8.89543 3 8 3.89543 8 5V20C8 21.1046 8.89543 22 10 22H23C24.1046 22 25 21.1046 25 20V5C25 3.89543 24.1046 3 23 3H10Z" fill="#FFBC0D"/>
</g>
<defs>
<clipPath id="clip0_5747_44895">
<rect width="32" height="32" fill="white"/>
</clipPath>
</defs>
</svg>
