<svg width="32" height="32" viewBox="0 0 32 32" fill="none" xmlns="http://www.w3.org/2000/svg">
<path fill-rule="evenodd" clip-rule="evenodd" d="M16.3918 6.75C13.3715 6.75 10.9231 9.19844 10.9231 12.2188C10.9231 15.2391 13.3715 17.6875 16.3918 17.6875C19.4122 17.6875 21.8606 15.2391 21.8606 12.2188C21.8606 9.19844 19.4122 6.75 16.3918 6.75ZM9.1731 12.2188C9.1731 8.23194 12.405 5 16.3918 5C20.3787 5 23.6106 8.23194 23.6106 12.2188C23.6106 13.8356 23.0791 15.3282 22.1812 16.5315C23.2456 16.938 24.1833 17.4604 24.931 18.0821C26.0291 18.9951 26.7833 20.1852 26.7833 21.5645C26.7833 23.4613 25.3766 24.9825 23.5377 25.9785C21.6643 26.9931 19.1362 27.5938 16.3917 27.5938C13.6471 27.5938 11.119 26.9931 9.24565 25.9785C7.40676 24.9825 6 23.4613 6 21.5645C6 20.1852 6.75426 18.9951 7.85229 18.0821C8.6001 17.4604 9.53791 16.9379 10.6024 16.5314C9.7046 15.3281 9.1731 13.8355 9.1731 12.2188ZM11.9574 17.9153C10.7137 18.2976 9.69442 18.8264 8.97114 19.4278C8.12528 20.1311 7.75 20.8709 7.75 21.5645C7.75 22.5143 8.47362 23.5702 10.0791 24.4397C11.6501 25.2906 13.8803 25.8438 16.3917 25.8438C18.903 25.8438 21.1333 25.2906 22.7042 24.4397C24.3097 23.5702 25.0333 22.5143 25.0333 21.5645C25.0333 20.8709 24.658 20.1311 23.8122 19.4278C23.089 18.8264 22.0697 18.2977 20.8262 17.9154C19.6026 18.8693 18.0636 19.4375 16.3918 19.4375C14.7201 19.4375 13.181 18.8692 11.9574 17.9153Z" fill="#292929"/>
</svg>
