<svg width="32" height="32" viewBox="0 0 32 32" fill="none" xmlns="http://www.w3.org/2000/svg">
<path fill-rule="evenodd" clip-rule="evenodd" d="M16 26.25C21.6609 26.25 26.25 21.6609 26.25 16C26.25 10.3391 21.6609 5.75 16 5.75C10.3391 5.75 5.75 10.3391 5.75 16C5.75 21.6609 10.3391 26.25 16 26.25ZM16 28C22.6274 28 28 22.6274 28 16C28 9.37258 22.6274 4 16 4C9.37258 4 4 9.37258 4 16C4 22.6274 9.37258 28 16 28Z" fill="#292929"/>
<path fill-rule="evenodd" clip-rule="evenodd" d="M15.3967 13.3508H13C13.0487 12.3247 13.3775 11.5097 13.9864 10.9058C14.5953 10.3019 15.4405 10 16.5219 10C17.2039 10 17.8079 10.1202 18.334 10.3607C18.8601 10.6012 19.2693 10.9433 19.5616 11.3868C19.8539 11.8304 20 12.3568 20 12.966C20 13.5967 19.8685 14.107 19.6054 14.4972C19.3424 14.8873 18.9819 15.2641 18.524 15.6275L17.8664 16.1565C17.6228 16.3489 17.4645 16.5467 17.3914 16.7497C17.3184 16.9528 17.2818 17.1826 17.2818 17.4391V17.5995H15.0459V17.1185C15.0459 16.6375 15.1287 16.2394 15.2944 15.9241C15.46 15.6088 15.7523 15.2694 16.1712 14.906L16.7265 14.425C16.9993 14.1899 17.182 13.9761 17.2745 13.7837C17.3671 13.5913 17.4134 13.3348 17.4134 13.0141C17.4134 12.7149 17.333 12.4583 17.1722 12.2446C17.0115 12.0308 16.7801 11.9239 16.4781 11.9239C16.1663 11.9239 15.9154 12.0388 15.7255 12.2686C15.5355 12.4984 15.4259 12.8592 15.3967 13.3508ZM16.1566 19.1141C16.5365 19.1141 16.8532 19.2477 17.1065 19.5149C17.3598 19.7822 17.4864 20.1295 17.4864 20.5571C17.4864 20.9525 17.3549 21.2919 17.0919 21.5751C16.8288 21.8584 16.5171 22 16.1566 22C15.7864 22 15.4746 21.8584 15.2213 21.5751C14.968 21.2919 14.8413 20.9525 14.8413 20.5571C14.8413 20.1295 14.968 19.7822 15.2213 19.5149C15.4746 19.2477 15.7864 19.1141 16.1566 19.1141Z" fill="#292929"/>
</svg>
