<svg width="32" height="32" viewBox="0 0 32 32" fill="none" xmlns="http://www.w3.org/2000/svg">
<path fill-rule="evenodd" clip-rule="evenodd" d="M16 28C22.6274 28 28 22.6274 28 16C28 9.37258 22.6274 4 16 4C9.37258 4 4 9.37258 4 16C4 22.6274 9.37258 28 16 28ZM11.5 12.983H14.6254C14.6635 12.3986 14.8065 11.9698 15.0542 11.6966C15.302 11.4235 15.6291 11.2869 16.0357 11.2869C16.4295 11.2869 16.7313 11.4139 16.9409 11.668C17.1505 11.9221 17.2554 12.2271 17.2554 12.5828C17.2554 12.964 17.195 13.2689 17.0743 13.4976C16.9536 13.7263 16.7154 13.9804 16.3597 14.2599L15.6355 14.8316C15.0892 15.2636 14.708 15.6669 14.492 16.0417C14.276 16.4165 14.168 16.8898 14.168 17.4615V18.0332H17.0838V17.8427C17.0838 17.5377 17.1315 17.2646 17.2268 17.0232C17.3221 16.7818 17.5285 16.5468 17.8461 16.3181L18.7037 15.6892C19.3009 15.2572 19.7709 14.8094 20.114 14.3456C20.457 13.8819 20.6285 13.2752 20.6285 12.5256C20.6285 11.8014 20.438 11.1757 20.0568 10.6485C19.6757 10.1212 19.142 9.71466 18.456 9.42879C17.7699 9.14293 16.9822 9 16.0929 9C14.6826 9 13.5804 9.35891 12.7864 10.0767C11.9923 10.7946 11.5635 11.7633 11.5 12.983ZM16.8551 20.3101C16.5248 19.9925 16.1119 19.8337 15.6164 19.8337C15.1336 19.8337 14.7271 19.9925 14.3967 20.3101C14.0664 20.6277 13.9012 21.0406 13.9012 21.5488C13.9012 22.0189 14.0664 22.4223 14.3967 22.759C14.7271 23.0957 15.1336 23.264 15.6164 23.264C16.0865 23.264 16.4931 23.0957 16.8361 22.759C17.1791 22.4223 17.3506 22.0189 17.3506 21.5488C17.3506 21.0406 17.1855 20.6277 16.8551 20.3101Z" fill="#FFBC0D"/>
</svg>
