<svg width="32" height="32" viewBox="0 0 32 32" fill="none" xmlns="http://www.w3.org/2000/svg">
<path fill-rule="evenodd" clip-rule="evenodd" d="M12.0417 27.3639C11.5788 26.7106 11.1831 25.96 10.8491 25.1584C9.91937 22.9271 9.34973 20.017 9.26191 16.8593H4C4.34446 21.7401 7.60046 25.817 12.0417 27.3639ZM11.0126 15.1407C11.1962 8.91434 13.359 4 16 4C18.641 4 20.8038 8.91434 20.9874 15.1407H11.0126ZM11.0126 16.8593H20.9874C20.8038 23.0857 18.641 28 16 28C13.359 28 11.1962 23.0857 11.0126 16.8593ZM22.7381 16.8593C22.6503 20.017 22.0806 22.9271 21.1509 25.1584C20.8169 25.96 20.4212 26.7106 19.9582 27.3639C24.3995 25.817 27.6556 21.7401 28 16.8593H22.7381ZM22.7381 15.1407H28C27.6556 10.2599 24.3995 6.18294 19.9582 4.63612C20.4212 5.28942 20.8169 6.03995 21.1509 6.84164C22.0806 9.07295 22.6503 11.983 22.7381 15.1407ZM9.26191 15.1407H4C4.34446 10.2599 7.60047 6.18295 12.0418 4.63613C11.5788 5.28943 11.1831 6.03996 10.8491 6.84164C9.91937 9.07295 9.34973 11.983 9.26191 15.1407Z" fill="#FFBC0D"/>
</svg>
