<svg width="32" height="32" viewBox="0 0 32 32" fill="none" xmlns="http://www.w3.org/2000/svg">
<g clip-path="url(#clip0_5747_45000)">
<g clip-path="url(#clip1_5747_45000)">
<path fill-rule="evenodd" clip-rule="evenodd" d="M18.6774 23.7027C17.6846 25.6882 16.6369 26.25 16 26.25C15.3631 26.25 14.3154 25.6882 13.3226 23.7027C12.4717 22.0009 11.8732 19.6114 11.7669 16.875H20.2331C20.1268 19.6114 19.5283 22.0009 18.6774 23.7027ZM20.2331 15.125H11.7669C11.8732 12.3886 12.4717 9.99913 13.3226 8.29734C14.3154 6.3118 15.3631 5.75 16 5.75C16.6369 5.75 17.6846 6.3118 18.6774 8.29734C19.5283 9.99913 20.1268 12.3886 20.2331 15.125ZM21.9843 16.875C21.8558 20.4405 20.9485 23.5744 19.6008 25.5997C23.2248 24.2397 25.8741 20.8863 26.2132 16.875H21.9843ZM26.2132 15.125H21.9843C21.8558 11.5595 20.9485 8.42557 19.6008 6.40033C23.2248 7.76032 25.8741 11.1137 26.2132 15.125ZM10.0157 15.125C10.1442 11.5595 11.0515 8.42557 12.3992 6.40033C8.77518 7.76032 6.12594 11.1137 5.78682 15.125H10.0157ZM5.78682 16.875C6.12594 20.8863 8.77518 24.2397 12.3992 25.5997C11.0515 23.5744 10.1442 20.4405 10.0157 16.875H5.78682ZM28 16C28 9.37258 22.6274 4 16 4C9.37258 4 4 9.37258 4 16C4 22.6274 9.37258 28 16 28C22.6274 28 28 22.6274 28 16Z" fill="#292929"/>
</g>
</g>
<defs>
<clipPath id="clip0_5747_45000">
<rect width="32" height="32" fill="white"/>
</clipPath>
<clipPath id="clip1_5747_45000">
<rect width="32" height="32" fill="white"/>
</clipPath>
</defs>
</svg>
