<svg width="32" height="32" viewBox="0 0 32 32" fill="none" xmlns="http://www.w3.org/2000/svg">
<path fill-rule="evenodd" clip-rule="evenodd" d="M19 7.75H13C10.1005 7.75 7.75 10.1005 7.75 13V13.25H24.25V13C24.25 10.1005 21.8995 7.75 19 7.75ZM13 6C9.13401 6 6 9.13401 6 13V15H26V13C26 9.13401 22.866 6 19 6H13Z" fill="#292929"/>
<path d="M5 17.3417C5 16.8769 5.37685 16.5 5.84173 16.5H25.5629C26.3566 16.5 27 17.1434 27 17.9371C27 18.8003 26.3003 19.5 25.4371 19.5H7.15827C5.96629 19.5 5 18.5337 5 17.3417Z" fill="#292929"/>
<path fill-rule="evenodd" clip-rule="evenodd" d="M10 25.25H22C23.2426 25.25 24.25 24.2426 24.25 23V22.75H7.75V23C7.75 24.2426 8.75736 25.25 10 25.25ZM10 27H22C24.2091 27 26 25.2091 26 23V21H6V23C6 25.2091 7.79086 27 10 27Z" fill="#292929"/>
</svg>
