<svg width="32" height="32" viewBox="0 0 32 32" fill="none" xmlns="http://www.w3.org/2000/svg">
<path d="M11.75 24C11.75 24.5523 11.3023 25 10.75 25H10V22.75H7V22C7 21.4477 7.44772 21 8 21H10C10 20.4477 10.4477 20 11 20H11.75V24ZM25 21.75C25 22.3023 24.5523 22.75 24 22.75H13V21H25V21.75ZM21.75 15H24C24.5523 15 25 15.4477 25 16V16.75H21.75V18C21.75 18.5523 21.3023 19 20.75 19H20V15C20 14.4477 20.4477 14 21 14H21.75V15ZM18.667 16.75H8C7.44772 16.75 7 16.3023 7 15.75V15H18.667V16.75ZM11.75 12C11.75 12.5523 11.3023 13 10.75 13H10V10.75H7V10C7 9.44772 7.44772 9 8 9H10C10 8.44772 10.4477 8 11 8H11.75V12ZM25 9.75C25 10.3023 24.5523 10.75 24 10.75H13V9H25V9.75Z" fill="#292929"/>
</svg>
