<svg width="32" height="32" viewBox="0 0 32 32" fill="none" xmlns="http://www.w3.org/2000/svg">
<path fill-rule="evenodd" clip-rule="evenodd" d="M15.1921 9.05132C15.392 8.98289 15.608 8.98289 15.8079 9.05132L27.3342 12.9972C28.2219 13.3011 28.2219 14.5907 27.3342 14.8946L15.8079 18.8405C15.608 18.9089 15.392 18.9089 15.1921 18.8405L3.66578 14.8946C2.77807 14.5907 2.77807 13.3011 3.66579 12.9972L15.1921 9.05132ZM8.5 18V22.3333C8.5 24.5425 11.634 26.3333 15.5 26.3333C19.366 26.3333 22.5 24.5425 22.5 22.3333V18L15.8162 20.2279C15.611 20.2963 15.389 20.2963 15.1838 20.2279L8.5 18ZM24.5 21.3333V17.0833L26.25 16.5V23.0833C25.2835 23.0833 24.5 22.2998 24.5 21.3333Z" fill="#FFBC0D"/>
</svg>
