<svg width="32" height="32" viewBox="0 0 32 32" fill="none" xmlns="http://www.w3.org/2000/svg">
<path fill-rule="evenodd" clip-rule="evenodd" d="M7 10.75H10.5V9H8C7.44772 9 7 9.44772 7 10V10.75ZM24 10.75C24.5523 10.75 25 10.3023 25 9.75V9H13V10.75H24ZM21 16.75H25V16C25 15.4477 24.5523 15 24 15H21V16.75ZM25 21.75C25 22.3023 24.5523 22.75 24 22.75H13V21H25V21.75ZM18.6667 16.75H8C7.44772 16.75 7 16.3023 7 15.75V15H18.6667V16.75ZM7 22.75H10.5V21H8C7.44772 21 7 21.4477 7 22V22.75Z" fill="#FFBC0D"/>
<path fill-rule="evenodd" clip-rule="evenodd" d="M11.75 7L11.75 11C11.75 11.5523 11.3023 12 10.75 12L10 12L10 8C10 7.44772 10.4477 7 11 7L11.75 7Z" fill="#FFBC0D"/>
<path fill-rule="evenodd" clip-rule="evenodd" d="M11.75 19L11.75 23C11.75 23.5523 11.3023 24 10.75 24L10 24L10 20C10 19.4477 10.4477 19 11 19L11.75 19Z" fill="#FFBC0D"/>
<path fill-rule="evenodd" clip-rule="evenodd" d="M21.75 13L21.75 17C21.75 17.5523 21.3023 18 20.75 18L20 18L20 14C20 13.4477 20.4477 13 21 13L21.75 13Z" fill="#FFBC0D"/>
</svg>
