<svg width="32" height="32" viewBox="0 0 32 32" fill="none" xmlns="http://www.w3.org/2000/svg">
<path d="M23.2217 19.8311C23.5446 19.3746 24.1791 19.2717 24.6299 19.6025L25 19.874L20.626 26.0811C20.2811 26.5702 19.5862 26.6486 19.1406 26.249L16.7178 24.0762C16.5252 23.9033 16.4074 23.6624 16.3887 23.4043C16.3699 23.1461 16.4514 22.8903 16.6172 22.6914L16.9521 22.29L19.7168 24.7881L23.2217 19.8311Z" fill="#292929"/>
<path d="M18.2002 11.4004C18.4123 11.4004 18.6156 11.4848 18.7656 11.6348C18.9155 11.7848 19 11.9881 19 12.2002C19 12.4123 18.9156 12.6156 18.7656 12.7656C18.6156 12.9156 18.4123 12.9999 18.2002 13H7.7998C7.5877 12.9999 7.38436 12.9156 7.23438 12.7656C7.08439 12.6156 7.00005 12.4123 7 12.2002C7 11.9881 7.08446 11.7848 7.23438 11.6348C7.38436 11.4848 7.5877 11.4004 7.7998 11.4004H18.2002Z" fill="#292929"/>
<path d="M18.2002 7.40039C18.4123 7.40044 18.6156 7.48478 18.7656 7.63477C18.9155 7.78478 19 7.98811 19 8.2002C19 8.4123 18.9156 8.61564 18.7656 8.76562C18.6156 8.91561 18.4123 8.99995 18.2002 9H7.7998C7.5877 8.99995 7.38436 8.91561 7.23438 8.76562C7.08439 8.61564 7.00005 8.4123 7 8.2002C7 7.98811 7.08446 7.78478 7.23438 7.63477C7.38436 7.48478 7.5877 7.40044 7.7998 7.40039H18.2002Z" fill="#292929"/>
<path fill-rule="evenodd" clip-rule="evenodd" d="M21 4C21.552 4.0002 21.9998 4.44799 22 5V14.1318C22.0439 14.1396 22.0872 14.1497 22.1309 14.1582C22.1769 14.1671 22.2228 14.1759 22.2686 14.1855C22.3648 14.2059 22.4606 14.2274 22.5557 14.251C22.5883 14.2591 22.6209 14.2669 22.6533 14.2754C22.7485 14.3002 22.8427 14.3274 22.9365 14.3555C22.9776 14.3677 23.0187 14.3797 23.0596 14.3926C23.4338 14.5106 23.7966 14.6539 24.1465 14.8203C24.1981 14.8448 24.2488 14.8709 24.2998 14.8965C24.3719 14.9326 24.4438 14.9688 24.5146 15.0068C24.5501 15.0259 24.585 15.0459 24.6201 15.0654C24.6982 15.1088 24.776 15.1525 24.8525 15.1982C24.8936 15.2228 24.934 15.2482 24.9746 15.2734C25.0513 15.321 25.1271 15.37 25.2021 15.4199C25.2312 15.4393 25.2602 15.4588 25.2891 15.4785C25.3632 15.5292 25.4364 15.5809 25.5088 15.6338C25.5492 15.6633 25.59 15.6924 25.6299 15.7227C25.699 15.7751 25.7666 15.8293 25.834 15.8838C25.8644 15.9084 25.8957 15.932 25.9258 15.957C25.9958 16.0151 26.0638 16.0755 26.1318 16.1357C26.1622 16.1627 26.1936 16.1885 26.2236 16.2158C26.2738 16.2616 26.322 16.3095 26.3711 16.3564C26.4538 16.4355 26.5348 16.5163 26.6143 16.5986C26.6674 16.6536 26.7209 16.7082 26.7725 16.7646C26.8027 16.7977 26.8316 16.8317 26.8613 16.8652C26.9147 16.9255 26.9678 16.9861 27.0195 17.0479C27.0614 17.0979 27.1018 17.1492 27.1426 17.2002C27.1809 17.2482 27.2195 17.2959 27.2568 17.3447C27.2965 17.3967 27.3355 17.4491 27.374 17.502C27.4199 17.565 27.4646 17.629 27.5088 17.6934C27.5307 17.7252 27.5528 17.7569 27.5742 17.7891C27.6244 17.8643 27.6729 17.9407 27.7207 18.0176C27.7472 18.0601 27.7741 18.1024 27.7998 18.1455C27.8406 18.2138 27.88 18.283 27.9189 18.3525C27.9424 18.3945 27.9665 18.4361 27.9893 18.4785C28.025 18.5449 28.0588 18.6123 28.0928 18.6797C28.1901 18.8726 28.2806 19.0695 28.3633 19.2705C28.4014 19.3632 28.4387 19.4564 28.4736 19.5508C28.4918 19.5999 28.5081 19.6497 28.5254 19.6992C28.5511 19.7728 28.5769 19.8464 28.6006 19.9209C28.6182 19.9762 28.6339 20.0321 28.6504 20.0879C28.6704 20.1556 28.6897 20.2236 28.708 20.292C28.7257 20.3578 28.7427 20.4238 28.7588 20.4902C28.7726 20.5473 28.7861 20.6046 28.7988 20.6621C28.8143 20.7321 28.8281 20.8024 28.8418 20.873C28.8555 20.9438 28.8689 21.0146 28.8809 21.0859C28.8917 21.1508 28.9017 21.2159 28.9111 21.2812C28.9192 21.3371 28.9267 21.393 28.9336 21.4492C28.9431 21.5261 28.9516 21.6032 28.959 21.6807C28.965 21.7436 28.97 21.8068 28.9746 21.8701C28.98 21.9435 28.9858 22.017 28.9893 22.0908C28.9957 22.2263 29 22.3629 29 22.5C29 23.527 28.8181 24.5115 28.4844 25.4229C28.3413 25.8134 28.1699 26.1904 27.9736 26.5518C27.8428 26.7925 27.7005 27.026 27.5479 27.252C27.395 27.4782 27.232 27.6972 27.0586 27.9072C26.7124 28.3267 26.3267 28.7124 25.9072 29.0586C25.6972 29.232 25.4782 29.395 25.252 29.5479C25.026 29.7005 24.7925 29.8428 24.5518 29.9736C24.1904 30.1699 23.8134 30.3413 23.4229 30.4844C22.6417 30.7704 21.8068 30.9452 20.9375 30.9893C20.7926 30.9966 20.6467 31 20.5 31C20.342 31 20.1851 30.9948 20.0293 30.9863C19.9934 30.9844 19.9577 30.9799 19.9219 30.9775C19.8073 30.9698 19.6933 30.9614 19.5801 30.9492C19.5301 30.9438 19.4804 30.9369 19.4307 30.9307C19.3243 30.9173 19.2184 30.903 19.1133 30.8857C19.0675 30.8782 19.0221 30.8696 18.9766 30.8613C18.8802 30.8439 18.7846 30.8244 18.6895 30.8037C18.6283 30.7904 18.5675 30.7763 18.5068 30.7617C18.4217 30.7413 18.337 30.7203 18.2529 30.6973C18.1961 30.6817 18.1394 30.6661 18.083 30.6494C17.9898 30.6218 17.8975 30.5922 17.8057 30.5615C17.76 30.5463 17.7142 30.5316 17.6689 30.5156C17.569 30.4803 17.4703 30.4422 17.3721 30.4033C17.3333 30.388 17.2943 30.3733 17.2559 30.3574C17.1353 30.3076 17.0161 30.2553 16.8984 30.2002C16.8871 30.1949 16.8756 30.1899 16.8643 30.1846C16.7544 30.1325 16.6463 30.0771 16.5391 30.0205C16.5089 30.0046 16.4782 29.9899 16.4482 29.9736C16.1968 29.837 15.954 29.6868 15.7188 29.5264C15.6809 29.5006 15.6439 29.4737 15.6064 29.4473C15.5192 29.3857 15.4325 29.3235 15.3477 29.2588C15.3194 29.2372 15.2916 29.2152 15.2637 29.1934C15.1815 29.129 15.1003 29.0634 15.0205 28.9961C14.9799 28.9618 14.9403 28.9266 14.9004 28.8916C14.83 28.8299 14.7607 28.7671 14.6924 28.7031C14.6583 28.6712 14.6244 28.639 14.5908 28.6064C14.5177 28.5357 14.4456 28.464 14.375 28.3906C14.3413 28.3556 14.3075 28.3207 14.2744 28.2852C14.2116 28.2176 14.1504 28.1487 14.0898 28.0791C14.0667 28.0525 14.0424 28.0269 14.0195 28H5C4.44799 27.9998 4.0002 27.552 4 27V5C4.0002 4.44799 4.44799 4.0002 5 4H21ZM20.5 15.5996C16.6892 15.5996 13.5996 18.6892 13.5996 22.5C13.5996 24.2411 14.2467 25.8299 15.3105 27.0439C16.5774 28.4896 18.431 29.4003 20.5 29.4004C20.6189 29.4004 20.7371 29.3966 20.8545 29.3906C24.3828 29.2119 27.2119 26.3828 27.3906 22.8545L27.4004 22.5C27.4003 21.6608 27.2492 20.8564 26.9746 20.1123C26.9012 19.9132 26.8193 19.7183 26.7285 19.5283C26.433 18.9101 26.0483 18.3426 25.5908 17.8428C25.4518 17.6909 25.3062 17.5452 25.1543 17.4062C24.6547 16.9494 24.0875 16.5655 23.4697 16.2705C23.2778 16.1788 23.0811 16.0954 22.8799 16.0215C22.5304 15.8931 22.1674 15.7934 21.7939 15.7227C21.3747 15.6431 20.9424 15.5996 20.5 15.5996ZM5.60059 26.4004H12.9482C12.3435 25.232 12 23.9064 12 22.5C12 20.4019 12.7616 18.4826 14.0215 17H7.7998C7.5877 16.9999 7.38436 16.9156 7.23438 16.7656C7.08439 16.6156 7.00005 16.4123 7 16.2002C7 15.9881 7.08446 15.7848 7.23438 15.6348C7.38436 15.4848 7.5877 15.4004 7.7998 15.4004H15.2002C15.3565 15.4004 15.5078 15.4462 15.6367 15.5303C16.9896 14.5845 18.6293 14.0223 20.4004 14.002V5.60059H5.60059V26.4004Z" fill="#292929"/>
</svg>
